<?xml version="1.0" encoding="UTF-8" standalone="no"?>
<svg
   xmlns:dc="http://purl.org/dc/elements/1.1/"
   xmlns:cc="http://creativecommons.org/ns#"
   xmlns:rdf="http://www.w3.org/1999/02/22-rdf-syntax-ns#"
   xmlns:svg="http://www.w3.org/2000/svg"
   xmlns="http://www.w3.org/2000/svg"
   xmlns:sodipodi="http://sodipodi.sourceforge.net/DTD/sodipodi-0.dtd"
   xmlns:inkscape="http://www.inkscape.org/namespaces/inkscape"
   width="251.29303pt"
   height="100.53674pt"
   viewBox="0 0 251.29302 100.53673"
   version="1.2"
   id="svg231"
   sodipodi:docname="logo-text.svg"
   inkscape:version="0.92.3 (2405546, 2018-03-11)">
  <metadata
     id="metadata237">
    <rdf:RDF>
      <cc:Work
         rdf:about="">
        <dc:format>image/svg+xml</dc:format>
        <dc:type
           rdf:resource="http://purl.org/dc/dcmitype/StillImage" />
        <dc:title></dc:title>
      </cc:Work>
    </rdf:RDF>
  </metadata>
  <defs
     id="defs235" />
  <sodipodi:namedview
     pagecolor="#ffffff"
     bordercolor="#666666"
     borderopacity="1"
     objecttolerance="10"
     gridtolerance="10"
     guidetolerance="10"
     inkscape:pageopacity="0"
     inkscape:pageshadow="2"
     inkscape:window-width="1920"
     inkscape:window-height="1017"
     id="namedview233"
     showgrid="false"
     inkscape:zoom="3.330217"
     inkscape:cx="144.82099"
     inkscape:cy="45.892597"
     inkscape:window-x="-8"
     inkscape:window-y="-8"
     inkscape:window-maximized="1"
     inkscape:current-layer="svg231" />
  <g
     transform="matrix(1.7730346,0,0,1.7730346,-316.63212,-2639.9723)"
     id="g1167">
    <path
       style="fill:#1e3359;fill-opacity:1;fill-rule:nonzero;stroke:none"
       d="m 178.58203,1509.0898 h 3.72266 v 13.7227 l 14.61718,-13.7227 h 4.91016 l -17.5625,16.4063 18.92969,20.1641 h -4.86719 l -16.02734,-17.0352 v 17.0352 h -3.72266 z m 0,0"
       id="path2"
       inkscape:connector-curvature="0" />
    <path
       style="fill:#1e3359;fill-opacity:1;fill-rule:nonzero;stroke:none"
       d="m 208.13281,1509.0898 h 3.65235 v 36.5704 h -3.65235 z m 0,0"
       id="path4"
       inkscape:connector-curvature="0" />
    <path
       style="fill:#1e3359;fill-opacity:1;fill-rule:nonzero;stroke:none"
       d="m 220.19141,1545.6602 v -36.5704 h 0.79687 l 24.33594,28.0274 v -28.0274 h 3.60937 v 36.5704 h -0.82422 l -24.14062,-27.6954 v 27.6954 z m 0,0"
       id="path6"
       inkscape:connector-curvature="0" />
    <path
       style="fill:#1e3359;fill-opacity:1;fill-rule:nonzero;stroke:none"
       d="m 254.20703,1512.6719 v -3.5821 h 20.03125 v 3.5821 h -8.16016 v 32.9883 h -3.71875 v -32.9883 z m 0,0"
       id="path8"
       inkscape:connector-curvature="0" />
    <path
       style="fill:#1e3359;fill-opacity:1;fill-rule:nonzero;stroke:none"
       d="m 316.64844,1509.0898 h 3.66406 v 36.5704 h -3.66406 z m 0,0"
       id="path10"
       inkscape:connector-curvature="0" />
    <path
       style="fill:#ffffff;fill-opacity:1;fill-rule:nonzero;stroke:none"
       d="m 293.98828,1516.8672 -6.25781,13.2344 h 12.5 z m 0.46094,-7.7774 17.05078,36.5704 h -3.94141 l -5.7539,-12.0313 h -15.75782 l -5.6875,12.0313 h -4.07812 l 17.27344,-36.5704 z m 0,0"
       id="path20"
       inkscape:connector-curvature="0" />
    <path
       style="fill:#ffffff;fill-opacity:1;fill-rule:nonzero;stroke:none"
       d="m 275.23047,1488.957 h 1.46484 v 8.8516 c 0,1.0547 0.0156,1.7031 0.0625,1.9687 0.0664,0.5782 0.23438,1.0586 0.5,1.4493 0.26953,0.3867 0.67578,0.7148 1.22656,0.9765 0.55469,0.2578 1.10547,0.3907 1.66016,0.3907 0.48828,0 0.96094,-0.098 1.40625,-0.3086 0.44141,-0.1993 0.8125,-0.4922 1.11328,-0.8555 0.29688,-0.3672 0.51563,-0.8086 0.65235,-1.3281 0.10156,-0.3711 0.16015,-1.1368 0.16015,-2.293 v -8.8516 h 1.45703 v 8.8516 c 0,1.3125 -0.125,2.375 -0.38281,3.1719 -0.26172,0.8125 -0.76953,1.5156 -1.53125,2.1093 -0.77344,0.6016 -1.70312,0.8985 -2.79297,0.8985 -1.17969,0 -2.19531,-0.2774 -3.03515,-0.8516 -0.84766,-0.5586 -1.41016,-1.3047 -1.69141,-2.2304 -0.18359,-0.5743 -0.26953,-1.6016 -0.26953,-3.0977 z m 0,0"
       id="path22"
       inkscape:connector-curvature="0" />
    <path
       style="fill:#ffffff;fill-opacity:1;fill-rule:nonzero;stroke:none"
       d="m 294.35156,1492.0742 -2.51562,5.3125 h 5.01562 z m 0.17578,-3.1172 6.83985,14.6602 h -1.57422 l -2.30469,-4.8164 h -6.31641 l -2.28515,4.8164 h -1.64063 l 6.9336,-14.6602 z m 0,0"
       id="path24"
       inkscape:connector-curvature="0" />
    <path
       style="fill:#ffffff;fill-opacity:1;fill-rule:nonzero;stroke:none"
       d="m 305.11719,1496.5664 v 5.6172 h 1.82812 c 1.0625,0 1.85547,-0.098 2.35938,-0.3086 0.49218,-0.2109 0.89062,-0.543 1.19531,-0.9883 0.30469,-0.4414 0.45703,-0.9258 0.45703,-1.4414 0,-0.6523 -0.21875,-1.2187 -0.64062,-1.7031 -0.42579,-0.4883 -1.01172,-0.8203 -1.75782,-1 -0.5,-0.1211 -1.36718,-0.1758 -2.61328,-0.1758 z m 0,-6.1719 v 4.6953 h 0.83984 c 1.02734,0 1.76953,-0.094 2.25781,-0.2851 0.47657,-0.1875 0.85547,-0.4883 1.13672,-0.9024 0.28125,-0.4062 0.41406,-0.8554 0.41406,-1.3515 0,-0.6758 -0.23046,-1.2031 -0.69921,-1.586 -0.47266,-0.3828 -1.21875,-0.5703 -2.2461,-0.5703 z m -1.42969,-1.4375 h 2.89062 c 1.16407,0 2.05469,0.1368 2.6875,0.4102 0.61719,0.2773 1.11329,0.707 1.47266,1.2734 0.36328,0.5742 0.54297,1.1992 0.54297,1.9102 0,0.6484 -0.16016,1.2383 -0.47266,1.7812 -0.32031,0.5274 -0.78515,0.9649 -1.39843,1.2969 0.76171,0.2539 1.34375,0.5625 1.75781,0.9102 0.41406,0.3476 0.73047,0.7695 0.96094,1.2617 0.23437,0.4961 0.33984,1.0312 0.33984,1.6172 0,1.1718 -0.42969,2.1679 -1.28906,2.9843 -0.86328,0.8086 -2.01563,1.2149 -3.46485,1.2149 h -4.02734 z m 0,0"
       id="path26"
       inkscape:connector-curvature="0" />
  </g>
</svg>
