<?xml version="1.0" encoding="UTF-8" standalone="no"?>
<!-- Created with Inkscape (http://www.inkscape.org/) -->

<svg
   xmlns:dc="http://purl.org/dc/elements/1.1/"
   xmlns:cc="http://creativecommons.org/ns#"
   xmlns:rdf="http://www.w3.org/1999/02/22-rdf-syntax-ns#"
   xmlns:svg="http://www.w3.org/2000/svg"
   xmlns="http://www.w3.org/2000/svg"
   xmlns:sodipodi="http://sodipodi.sourceforge.net/DTD/sodipodi-0.dtd"
   xmlns:inkscape="http://www.inkscape.org/namespaces/inkscape"
   width="52.478371mm"
   height="44.585396mm"
   viewBox="0 0 52.478371 44.585396"
   version="1.1"
   id="svg8"
   inkscape:version="0.92.3 (2405546, 2018-03-11)"
   sodipodi:docname="pattern.svg">
  <defs
     id="defs2" />
  <sodipodi:namedview
     id="base"
     pagecolor="#ffffff"
     bordercolor="#666666"
     borderopacity="1.0"
     inkscape:pageopacity="0.0"
     inkscape:pageshadow="2"
     inkscape:zoom="2.8284271"
     inkscape:cx="68.320225"
     inkscape:cy="84.421068"
     inkscape:document-units="mm"
     inkscape:current-layer="layer1"
     showgrid="false"
     inkscape:window-width="1920"
     inkscape:window-height="1017"
     inkscape:window-x="-8"
     inkscape:window-y="-8"
     inkscape:window-maximized="1" />
  <metadata
     id="metadata5">
    <rdf:RDF>
      <cc:Work
         rdf:about="">
        <dc:format>image/svg+xml</dc:format>
        <dc:type
           rdf:resource="http://purl.org/dc/dcmitype/StillImage" />
        <dc:title></dc:title>
      </cc:Work>
    </rdf:RDF>
  </metadata>
  <g
     inkscape:label="Layer 1"
     inkscape:groupmode="layer"
     id="layer1"
     transform="translate(-73.71287,-90.200696)">
    <path
       style="fill:#ffffff;stroke-width:0.29124159"
       d="m 73.92889,90.200696 c -0.02529,0.103664 1.484679,2.179497 3.356759,4.615222 1.872917,2.436778 3.52148,4.507687 3.66357,4.601786 0.142106,0.094 1.701828,0.251541 3.465707,0.34985 2.970487,0.165481 3.242211,0.130113 3.687364,-0.476457 0.264335,-0.36018 1.154159,-1.205764 1.977363,-1.879472 0.823167,-0.673701 1.996011,-1.725489 2.606012,-2.336808 l 1.108901,-1.11156 -0.949234,-1.742013 c -0.381,-0.699529 -0.804367,-1.380947 -1.246653,-2.020548 z m 20.429206,0 c 0.09622,0.103232 0.203813,0.214521 0.296166,0.314193 2.545656,2.747409 3.410508,3.333961 4.765584,3.232361 0.560587,-0.042 1.973714,-0.06539 3.140734,-0.05219 2.33261,0.0264 1.82533,0.290421 5.19512,-2.70216 0.28765,-0.255447 0.62278,-0.530948 0.95299,-0.7922 z m 16.962874,0 c -0.0486,0.05227 -0.0929,0.105105 -0.13087,0.15813 -0.22166,0.310071 -1.08573,1.223883 -1.92038,2.030884 -1.72813,1.670859 -1.83608,1.962455 -1.12706,3.052526 0.28107,0.43212 1.3106,1.814611 2.2873,3.072681 l 1.77575,2.287713 1.68746,0.24133 c 2.37338,0.33933 2.59772,0.26826 4.6247,-1.45469 0.98552,-0.837721 2.39407,-1.901644 3.12947,-2.364713 2.67535,-1.68457 2.66574,-1.621651 0.56165,-3.785299 -1.46125,-1.502617 -2.5835,-2.534718 -3.57904,-3.238562 z m 9.45164,0 c 0.16226,0.208658 0.31821,0.409462 0.44645,0.590662 1.17784,1.36162 2.15996,4.106299 3.59093,5.15524 0.0349,0.01189 0.065,0.01893 0.0989,0.02997 -2.04954,1.231029 -3.65002,3.596502 -4.97471,5.167642 -1.77086,1.25948 0.18142,3.15399 1.0275,4.34961 1.17784,1.36162 2.16059,4.1063 3.59156,5.15524 0.25144,0.0857 0.47377,0.14423 0.68,0.18759 -2.12408,1.2021 -3.77085,3.64962 -5.12875,5.26014 -1.77086,1.25948 0.18142,3.15398 1.0275,4.3496 1.17785,1.36162 2.16059,4.10632 3.59156,5.15525 0.26645,0.0908 0.50114,0.15246 0.71694,0.19585 -2.09982,1.21206 -3.73214,3.63241 -5.07928,5.23017 -1.50232,1.06849 -0.32664,2.59031 0.58169,3.75843 h 5.24834 V 90.200696 Z m -20.78673,5.103048 c -3.803737,-0.06839 -6.274102,0.977062 -8.940087,3.716052 l -1.331808,1.367874 1.274203,1.26246 c 0.700474,0.6942 2.234613,2.29938 3.409355,3.56722 2.545664,2.74741 3.41052,3.33396 4.765584,3.23236 0.5606,-0.042 1.973713,-0.0654 3.140743,-0.0522 2.3326,0.0264 1.82532,0.29041 5.19511,-2.70216 0.69501,-0.61722 1.67129,-1.3731 2.17022,-1.67949 1.67817,-1.03051 1.57908,-1.71565 -0.63742,-4.404379 -2.68849,-3.26127 -4.23693,-4.062795 -8.26698,-4.279325 -0.26587,-0.01431 -0.52534,-0.02392 -0.77892,-0.02842 z m -19.259569,4.758366 c -0.910759,0.003 -1.276216,0.18128 -2.009296,0.63149 -1.185172,0.72784 -4.624841,3.58683 -5.004145,4.14134 v 0.15503 c 0.208214,0.39138 1.603337,2.30002 3.31606,4.52841 1.872914,2.43677 3.521467,4.50769 3.663569,4.60179 0.142093,0.094 1.701841,0.25154 3.465708,0.34985 2.9705,0.16548 3.242211,0.13011 3.687363,-0.47646 0.264336,-0.36018 1.154173,-1.20576 1.977364,-1.87947 0.82318,-0.67371 1.996023,-1.7255 2.606012,-2.33681 l 1.108901,-1.11156 -0.949234,-1.74201 c -1.490042,-2.73576 -3.622215,-5.21499 -5.039835,-5.85959 -0.66015,-0.30017 -2.639215,-0.67746 -4.397411,-0.8382 -1.135908,-0.10385 -1.878621,-0.16554 -2.425056,-0.16381 z m 33.925739,3.47731 c -1.30067,-0.0163 -3.14612,0.72105 -3.71867,1.52187 -0.22166,0.31006 -1.08574,1.22388 -1.92038,2.03088 -1.72815,1.67086 -1.83608,1.96246 -1.12706,3.05253 0.28107,0.43212 1.3106,1.81461 2.28731,3.07268 l 1.77574,2.28771 1.68746,0.24133 c 2.37338,0.33933 2.59773,0.26826 4.6247,-1.45469 0.98553,-0.83772 2.39407,-1.90165 3.12947,-2.36471 2.67536,-1.68458 2.66574,-1.62165 0.56165,-3.7853 -3.25085,-3.34286 -4.82985,-4.37081 -7.04788,-4.58887 -0.0813,-0.008 -0.16565,-0.0123 -0.25234,-0.0134 z m -14.49586,6.7169 c -3.803736,-0.0684 -6.274101,0.97706 -8.940086,3.71605 l -1.331808,1.36788 1.274203,1.26245 c 0.700475,0.6942 2.234617,2.29938 3.409355,3.56723 2.545668,2.7474 3.41052,3.33396 4.765584,3.23236 0.5606,-0.042 1.973712,-0.0654 3.140742,-0.0522 2.33261,0.0264 1.82532,0.29042 5.19511,-2.70216 0.69502,-0.61722 1.6713,-1.3731 2.17022,-1.67948 1.67817,-1.03052 1.57908,-1.71565 -0.63741,-4.40438 -2.6885,-3.26127 -4.23693,-4.0628 -8.26699,-4.27933 -0.26587,-0.0143 -0.52534,-0.0239 -0.77892,-0.0284 z m -19.259568,4.75836 c -0.910758,0.003 -1.276216,0.18128 -2.009296,0.63149 -1.239412,0.76115 -4.953606,3.86012 -5.044844,4.20905 -0.02666,0.10197 1.483855,2.17894 3.356759,4.61574 1.872913,2.43675 3.521467,4.50768 3.663569,4.60178 0.142093,0.094 1.701842,0.25154 3.465709,0.34985 2.9705,0.16548 3.24221,0.13011 3.687363,-0.47646 0.264335,-0.36017 1.154173,-1.20576 1.977363,-1.87947 0.823181,-0.67369 1.996023,-1.7255 2.606012,-2.3368 l 1.108901,-1.11157 -0.949234,-1.74201 c -1.490041,-2.73577 -3.622214,-5.215 -5.039835,-5.85959 -0.66015,-0.30017 -2.639214,-0.67745 -4.39741,-0.83819 -1.13591,-0.10385 -1.878622,-0.16554 -2.425057,-0.16382 z m 33.925748,3.47731 c -1.30068,-0.0163 -3.14613,0.72106 -3.71867,1.52187 -0.22166,0.31007 -1.08573,1.2239 -1.92039,2.03089 -1.72812,1.67087 -1.83608,1.96245 -1.12706,3.05252 0.28107,0.43211 1.3106,1.81461 2.28731,3.07268 l 1.77574,2.28772 1.68746,0.24133 c 2.37338,0.33933 2.59774,0.26825 4.6247,-1.45469 0.98553,-0.83772 2.39407,-1.90166 3.12947,-2.36472 2.67536,-1.68457 2.66574,-1.62165 0.56165,-3.78529 -3.25085,-3.34286 -4.82984,-4.37081 -7.04788,-4.58887 -0.0813,-0.008 -0.16565,-0.0123 -0.25233,-0.0134 z m -14.40946,6.6952 c -3.803737,-0.0684 -6.274098,0.97706 -8.940086,3.71605 l -1.331809,1.36788 1.274203,1.26245 c 0.645349,0.63957 1.985575,2.04266 3.113189,3.25252 h 14.351223 c 0.46745,-0.3698 0.9243,-0.70727 1.2166,-0.88677 1.67815,-1.03052 1.57908,-1.71564 -0.63742,-4.40438 -2.68849,-3.26127 -4.23693,-4.0628 -8.26698,-4.27933 -0.26587,-0.0143 -0.52534,-0.0239 -0.77892,-0.0284 z m -19.259569,4.75837 c -0.910758,0.003 -1.276216,0.18127 -2.009296,0.63148 -1.239411,0.76115 -4.953606,3.86011 -5.044844,4.20905 h 17.669163 c -1.287329,-1.86151 -2.737536,-3.35881 -3.792556,-3.83853 -0.66015,-0.30017 -2.639212,-0.67745 -4.39741,-0.83819 -1.135909,-0.10385 -1.878622,-0.16554 -2.425057,-0.16381 z m 33.925739,3.4773 c -1.21421,-0.0152 -2.90223,0.62634 -3.58717,1.36323 h 7.3071 c -1.21878,-0.86146 -2.24691,-1.22978 -3.46759,-1.34979 -0.0813,-0.008 -0.16563,-0.0123 -0.25234,-0.0134 z"
       id="path1081"
       inkscape:connector-curvature="0" />
  </g>
</svg>
