<?xml version="1.0" encoding="UTF-8" standalone="no"?>
<!-- Created with Inkscape (http://www.inkscape.org/) -->

<svg
   xmlns:dc="http://purl.org/dc/elements/1.1/"
   xmlns:cc="http://creativecommons.org/ns#"
   xmlns:rdf="http://www.w3.org/1999/02/22-rdf-syntax-ns#"
   xmlns:svg="http://www.w3.org/2000/svg"
   xmlns="http://www.w3.org/2000/svg"
   xmlns:sodipodi="http://sodipodi.sourceforge.net/DTD/sodipodi-0.dtd"
   xmlns:inkscape="http://www.inkscape.org/namespaces/inkscape"
   width="345.90829mm"
   height="151.42253mm"
   viewBox="0 0 345.90829 151.42253"
   version="1.1"
   id="svg4827"
   inkscape:version="0.92.3 (2405546, 2018-03-11)"
   sodipodi:docname="grow.svg">
  <defs
     id="defs4821" />
  <sodipodi:namedview
     id="base"
     pagecolor="#ffffff"
     bordercolor="#666666"
     borderopacity="1.0"
     inkscape:pageopacity="0.0"
     inkscape:pageshadow="2"
     inkscape:zoom="0.175"
     inkscape:cx="-154.91856"
     inkscape:cy="831.15908"
     inkscape:document-units="mm"
     inkscape:current-layer="layer1"
     showgrid="false"
     inkscape:window-width="1080"
     inkscape:window-height="1857"
     inkscape:window-x="1912"
     inkscape:window-y="-8"
     inkscape:window-maximized="1" />
  <metadata
     id="metadata4824">
    <rdf:RDF>
      <cc:Work
         rdf:about="">
        <dc:format>image/svg+xml</dc:format>
        <dc:type
           rdf:resource="http://purl.org/dc/dcmitype/StillImage" />
        <dc:title></dc:title>
      </cc:Work>
    </rdf:RDF>
  </metadata>
  <g
     inkscape:label="Layer 1"
     inkscape:groupmode="layer"
     id="layer1"
     transform="translate(-162.30586,-215.85871)">
    <path
       inkscape:connector-curvature="0"
       id="path2690"
       d="m 228.68369,216.66205 h 0.70999 v 31.90385 h -0.70999 z m 0,0"
       style="fill:#2e2b28;fill-opacity:1;fill-rule:nonzero;stroke:none;stroke-width:0.14391367" />
    <path
       inkscape:connector-curvature="0"
       id="path2692"
       d="m 214.72575,256.65319 h 33.71906 l 13.56727,-9.90925 h -60.85526 z m 0,0"
       style="fill:#8f8f8f;fill-opacity:1;fill-rule:nonzero;stroke:none;stroke-width:0.14391367" />
    <path
       inkscape:connector-curvature="0"
       id="path2694"
       d="m 228.23396,216.66205 c 0,0.44298 0.36089,0.80277 0.80275,0.80277 0.44637,0 0.80334,-0.35979 0.80334,-0.80277 0,-0.44748 -0.35697,-0.80334 -0.80334,-0.80334 -0.44186,0 -0.80275,0.35586 -0.80275,0.80334"
       style="fill:#2e2b28;fill-opacity:1;fill-rule:nonzero;stroke:none;stroke-width:0.14391367" />
    <path
       inkscape:connector-curvature="0"
       id="path2696"
       d="m 228.23396,220.37794 -15.82882,18.50359 h 15.82882 z m 0,0"
       style="fill:#f3f3f3;fill-opacity:1;fill-rule:nonzero;stroke:none;stroke-width:0.14391367" />
    <path
       inkscape:connector-curvature="0"
       id="path2698"
       d="m 229.57582,216.95437 25.44576,25.42043 h -25.44576 z m 0,0"
       style="fill:#d1d1d1;fill-opacity:1;fill-rule:nonzero;stroke:none;stroke-width:0.14391367" />
    <path
       inkscape:connector-curvature="0"
       id="path2872"
       d="m 207.49292,271.43257 -3.1931,6.74536 h 6.3693 z m 0.23442,-3.95651 8.68934,18.62837 h -2.01087 l -2.93109,-6.12984 h -8.02601 l -2.90244,6.12984 h -2.07663 l 8.80177,-18.62837 z m 0,0"
       style="fill:#bdbaba;fill-opacity:1;fill-rule:nonzero;stroke:none;stroke-width:0.14391367" />
    <path
       inkscape:connector-curvature="0"
       id="path2874"
       d="m 219.36749,267.47606 h 1.86186 v 11.24437 c 0,1.3329 0.024,2.16659 0.0759,2.49375 0.091,0.73868 0.30804,1.35199 0.64533,1.84669 0.33729,0.49135 0.85619,0.90622 1.55889,1.23903 0.70044,0.33503 1.40371,0.49978 2.11487,0.49978 0.61613,0 1.20583,-0.13102 1.77137,-0.39074 0.56554,-0.26197 1.03886,-0.62512 1.42,-1.09114 0.38061,-0.46323 0.65719,-1.02147 0.83538,-1.68423 0.1265,-0.47336 0.19,-1.44138 0.19,-2.91314 v -11.24437 h 1.86024 v 11.24437 c 0,1.66511 -0.16306,3.00927 -0.48684,4.03409 -0.32438,1.02821 -0.97479,1.91922 -1.94959,2.67815 -0.97479,0.76002 -2.15476,1.14117 -3.53995,1.14117 -1.50378,0 -2.7917,-0.3592 -3.86316,-1.07541 -1.07262,-0.719 -1.79162,-1.66624 -2.15311,-2.85186 -0.22878,-0.72461 -0.34121,-2.03109 -0.34121,-3.92614 z m 0,0"
       style="fill:#bdbaba;fill-opacity:1;fill-rule:nonzero;stroke:none;stroke-width:0.14391367" />
    <path
       inkscape:connector-curvature="0"
       id="path2876"
       d="m 254.26036,270.60337 -1.44364,1.36775 c -1.04112,-1.02485 -2.17724,-1.79782 -3.41627,-2.32456 -1.23451,-0.52789 -2.43921,-0.79265 -3.61301,-0.79265 -1.46162,0 -2.85072,0.35867 -4.1735,1.07766 -1.32277,0.71791 -2.34533,1.68932 -3.0705,2.921 -0.72916,1.2289 -1.09062,2.52522 -1.09062,3.89241 0,1.40092 0.37606,2.73382 1.12713,3.99588 0.74937,1.26485 1.79105,2.25595 3.11552,2.97551 1.32443,0.72351 2.7782,1.08331 4.35899,1.08331 1.91643,0 3.53434,-0.53746 4.86216,-1.62017 1.32387,-1.07993 2.11148,-2.48306 2.35712,-4.2061 h -5.94314 v -1.7967 h 8.03215 c -0.0183,2.87662 -0.87132,5.16686 -2.56572,6.85787 -1.69435,1.69096 -3.95816,2.53926 -6.79428,2.53926 -3.44605,0 -6.17422,-1.1732 -8.18173,-3.52136 -1.54595,-1.80626 -2.31948,-3.89862 -2.31948,-6.26869 0,-1.7641 0.44411,-3.40614 1.33121,-4.92792 0.88652,-1.51843 2.10304,-2.70513 3.64676,-3.56299 1.54651,-0.85732 3.29371,-1.28679 5.2444,-1.28679 1.57914,0 3.06493,0.28558 4.45742,0.85672 1.39358,0.57002 2.75459,1.48357 4.07903,2.74056"
       style="fill:#bdbaba;fill-opacity:1;fill-rule:nonzero;stroke:none;stroke-width:0.14391367" />
    <path
       inkscape:connector-curvature="0"
       id="path2878"
       d="m 258.64355,267.47606 h 1.85794 v 18.62837 h -1.85794 z m 0,0"
       style="fill:#bdbaba;fill-opacity:1;fill-rule:nonzero;stroke:none;stroke-width:0.14391367" />
    <path
       inkscape:connector-curvature="0"
       id="path2880"
       d="m 264.78517,286.10443 v -18.62837 h 0.40421 l 12.4013,14.28059 v -14.28059 h 1.83603 v 18.62837 h -0.41881 l -12.299,-14.10632 v 14.10632 z m 0,0"
       style="fill:#bdbaba;fill-opacity:1;fill-rule:nonzero;stroke:none;stroke-width:0.14391367" />
    <path
       inkscape:connector-curvature="0"
       id="path2882"
       d="m 291.33667,271.43257 -3.19306,6.74536 h 6.37099 z m 0.23555,-3.95651 8.68655,18.62837 h -2.00917 l -2.93279,-6.12984 h -8.02262 l -2.90245,6.12984 h -2.07775 l 8.80177,-18.62837 z m 0,0"
       style="fill:#bdbaba;fill-opacity:1;fill-rule:nonzero;stroke:none;stroke-width:0.14391367" />
    <path
       inkscape:connector-curvature="0"
       id="path2884"
       d="m 302.29829,286.10443 2.66971,-18.62837 h 0.29852 l 7.57513,15.28463 7.5015,-15.28463 h 0.29852 l 2.68094,18.62837 h -1.82478 l -1.83995,-13.32382 -6.58855,13.32382 h -0.47501 l -6.66669,-13.425 -1.83042,13.425 z m 0,0"
       style="fill:#bdbaba;fill-opacity:1;fill-rule:nonzero;stroke:none;stroke-width:0.14391367" />
    <path
       inkscape:connector-curvature="0"
       id="path2886"
       d="m 326.99524,267.47606 h 10.6783 v 1.82309 h -8.81588 v 5.83805 h 8.73883 v 1.82308 h -8.73883 v 7.31994 h 8.73883 v 1.82421 h -10.60125 z m 0,0"
       style="fill:#bdbaba;fill-opacity:1;fill-rule:nonzero;stroke:none;stroke-width:0.14391367" />
    <path
       inkscape:connector-curvature="0"
       id="path2888"
       d="m 301.53487,261.21299 1.30084,-9.08625 h 0.14788 l 3.69337,7.45599 3.65859,-7.45599 h 0.14559 l 1.30704,9.08625 h -0.88991 l -0.89835,-6.49803 -3.21218,6.49803 h -0.23217 l -3.25102,-6.54749 -0.89271,6.54749 z m 0,0"
       style="fill:#bdbaba;fill-opacity:1;fill-rule:nonzero;stroke:none;stroke-width:0.14391367" />
    <path
       inkscape:connector-curvature="0"
       id="path2890"
       d="m 313.57977,252.12674 h 5.20731 v 0.88935 h -4.29941 v 2.84794 h 4.26234 v 0.88932 h -4.26234 v 3.57032 h 4.26234 v 0.88932 h -5.17024 z m 0,0"
       style="fill:#bdbaba;fill-opacity:1;fill-rule:nonzero;stroke:none;stroke-width:0.14391367" />
    <path
       inkscape:connector-curvature="0"
       id="path2892"
       d="m 319.41729,259.52089 0.77184,-0.46323 c 0.54359,1.00121 1.17154,1.501 1.88436,1.501 0.30357,0 0.59027,-0.0703 0.85845,-0.21308 0.26702,-0.14224 0.47106,-0.33281 0.61161,-0.57115 0.13998,-0.23894 0.20969,-0.49248 0.20969,-0.76006 0,-0.30526 -0.10287,-0.60318 -0.30861,-0.89609 -0.28448,-0.40248 -0.80334,-0.88932 -1.55719,-1.45711 -0.75724,-0.57341 -1.22947,-0.98662 -1.41387,-1.24182 -0.32155,-0.42838 -0.48231,-0.89161 -0.48231,-1.38966 0,-0.39578 0.095,-0.75611 0.28388,-1.08105 0.18944,-0.32491 0.45702,-0.58127 0.79995,-0.76962 0.34463,-0.18606 0.71787,-0.2805 1.12152,-0.2805 0.42838,0 0.82864,0.1057 1.20135,0.31818 0.37327,0.21194 0.76736,0.60152 1.18336,1.17041 l -0.74151,0.56218 c -0.3418,-0.45311 -0.63355,-0.75163 -0.87418,-0.89552 -0.24116,-0.14394 -0.5037,-0.21587 -0.78757,-0.21587 -0.36598,0 -0.66559,0.11074 -0.89888,0.33278 -0.2322,0.22263 -0.34911,0.49642 -0.34911,0.8219 0,0.19844 0.0416,0.38957 0.12368,0.57453 0.0821,0.18493 0.23273,0.38675 0.45085,0.60488 0.11917,0.11525 0.511,0.41825 1.17376,0.9079 0.78592,0.58128 1.32617,1.09788 1.61848,1.55043 0.29234,0.4531 0.4385,0.90791 0.4385,1.36493 0,0.65941 -0.25015,1.23229 -0.75106,1.71686 -0.49975,0.48627 -1.10857,0.72969 -1.82478,0.72969 -0.55146,0 -1.05181,-0.14728 -1.50153,-0.44129 -0.44803,-0.29461 -0.86237,-0.78818 -1.24068,-1.47962"
       style="fill:#bdbaba;fill-opacity:1;fill-rule:nonzero;stroke:none;stroke-width:0.14391367" />
    <g
       id="g4782"
       transform="matrix(0.3527778,0,0,0.3527778,-667.74033,-563.5161)">
      <path
         style="fill:#d1d1d1;fill-opacity:1;fill-rule:nonzero;stroke:none"
         d="m 2377.4414,2518.9336 c -4.1523,0 -7.6953,1.4687 -10.6328,4.3984 -2.9336,2.9336 -4.4023,6.4883 -4.4023,10.668 0,4.1445 1.4687,7.6836 4.4062,10.6172 2.9336,2.9297 6.4805,4.3945 10.6328,4.3945 4.1524,0 7.6992,-1.4648 10.6328,-4.3945 2.9375,-2.9336 4.4063,-6.4727 4.4063,-10.6172 0,-4.1797 -1.4688,-7.7344 -4.4063,-10.668 -2.9375,-2.9297 -6.4804,-4.3984 -10.6367,-4.3984 m 7.8516,-38.0469 5.8789,3.8399 -19.3281,29.25 c 2.5937,-0.8711 5.0234,-1.3086 7.2929,-1.3086 5.6797,0 10.4961,2.0468 14.4571,6.1445 3.957,4.1016 5.9375,9.1445 5.9375,15.1406 0,4.1133 -0.9571,7.8282 -2.8711,11.1485 -1.9141,3.3203 -4.6289,5.9609 -8.1485,7.9218 -3.5195,1.9571 -7.3047,2.9375 -11.3594,2.9375 -3.9218,0 -7.5625,-0.9453 -10.9179,-2.8398 -3.3594,-1.8945 -5.9922,-4.5625 -7.9063,-7.9922 -1.914,-3.4336 -2.8711,-7.1133 -2.8711,-11.0312 0,-2.918 0.5938,-5.9883 1.7774,-9.211 1.1836,-3.2226 3.3008,-7.0976 6.3515,-11.6367 z m 0,0"
         id="path3002"
         inkscape:connector-curvature="0" />
      <path
         style="fill:#d1d1d1;fill-opacity:1;fill-rule:nonzero;stroke:none"
         d="m 2413.8164,2518.5703 c 0,8.0742 0.7188,14.1758 2.1641,18.3125 1.4375,4.1289 3.5703,7.2656 6.3867,9.4063 2.8203,2.1406 5.8008,3.2109 8.9414,3.2109 3.1758,0 6.1406,-1.0469 8.8906,-3.1367 2.7539,-2.0938 4.8438,-5.2266 6.2696,-9.4102 1.7812,-5.0898 2.6718,-11.2187 2.6718,-18.3828 0,-7.1953 -0.7929,-13.0898 -2.3789,-17.6758 -1.5898,-4.5859 -3.7812,-7.9414 -6.5859,-10.0664 -2.8008,-2.125 -5.7578,-3.1875 -8.8672,-3.1875 -3.1758,0 -6.1563,1.0625 -8.9414,3.1875 -2.7852,2.125 -4.9063,5.25 -6.3633,9.3867 -1.4609,4.1329 -2.1875,10.25 -2.1875,18.3555 m -6.7539,-0.1211 c 0,-9.4258 1.0117,-16.7148 3.0352,-21.8672 2.0273,-5.1484 4.8828,-9.0547 8.5781,-11.7109 3.6914,-2.6563 7.8242,-3.9844 12.3906,-3.9844 4.6328,0 8.8281,1.336 12.5859,4.0078 3.7579,2.6758 6.7266,6.6836 8.9141,12.0313 2.1875,5.3437 3.2813,12.5195 3.2813,21.5234 0,8.9766 -1.0782,16.1172 -3.2305,21.4297 -2.1563,5.3125 -5.125,9.3203 -8.918,12.0234 -3.789,2.7071 -8,4.0625 -12.6328,4.0625 -4.5664,0 -8.6836,-1.3164 -12.3437,-3.9375 -3.6602,-2.625 -6.5196,-6.5351 -8.5743,-11.7343 -2.0586,-5.1992 -3.0859,-12.4805 -3.0859,-21.8438"
         id="path3004"
         inkscape:connector-curvature="0" />
      <path
         style="fill:#d1d1d1;fill-opacity:1;fill-rule:nonzero;stroke:none"
         d="m 2468.9688,2518.5703 c 0,8.0742 0.7187,14.1758 2.1601,18.3125 1.4414,4.1289 3.5703,7.2656 6.3906,9.4063 2.8164,2.1406 5.7969,3.2109 8.9414,3.2109 3.1719,0 6.1368,-1.0469 8.8907,-3.1367 2.7539,-2.0938 4.8437,-5.2266 6.2695,-9.4102 1.7812,-5.0898 2.6719,-11.2187 2.6719,-18.3828 0,-7.1953 -0.793,-13.0898 -2.3828,-17.6758 -1.586,-4.5859 -3.7813,-7.9414 -6.5821,-10.0664 -2.8047,-2.125 -5.7578,-3.1875 -8.8672,-3.1875 -3.1757,0 -6.1562,1.0625 -8.9414,3.1875 -2.7851,2.125 -4.9062,5.25 -6.3672,9.3867 -1.457,4.1329 -2.1835,10.25 -2.1835,18.3555 m -6.754,-0.1211 c 0,-9.4258 1.0118,-16.7148 3.0352,-21.8672 2.0234,-5.1484 4.8828,-9.0547 8.5781,-11.7109 3.6914,-2.6563 7.8203,-3.9844 12.3907,-3.9844 4.6289,0 8.8242,1.336 12.582,4.0078 3.7578,2.6758 6.7305,6.6836 8.918,12.0313 2.1875,5.3437 3.2812,12.5195 3.2812,21.5234 0,8.9766 -1.0781,16.1172 -3.2344,21.4297 -2.1523,5.3125 -5.125,9.3203 -8.914,12.0234 -3.7891,2.7071 -8.0039,4.0625 -12.6328,4.0625 -4.5704,0 -8.6836,-1.3164 -12.3438,-3.9375 -3.6602,-2.625 -6.5195,-6.5351 -8.5742,-11.7343 -2.0586,-5.1992 -3.086,-12.4805 -3.086,-21.8438"
         id="path3006"
         inkscape:connector-curvature="0" />
      <path
         style="fill:#d1d1d1;fill-opacity:1;fill-rule:nonzero;stroke:none"
         d="m 2550.3594,2482.6836 h 7.1406 v 29.9844 h 36.3984 v -29.9844 h 7.1407 v 71.4805 h -7.1407 v -34.5 H 2557.5 v 34.5 h -7.1406 z m 0,0"
         id="path3008"
         inkscape:connector-curvature="0" />
      <path
         style="fill:#d1d1d1;fill-opacity:1;fill-rule:nonzero;stroke:none"
         d="m 2646.7383,2497.875 -12.25,25.8711 h 24.4375 z m 0.9023,-15.1875 33.3321,71.4766 h -7.7149 l -11.2422,-23.5196 h -30.7929 l -11.1368,23.5196 h -7.9687 l 33.7734,-71.4766 z m 0,0"
         id="path3010"
         inkscape:connector-curvature="0" />
      <path
         style="fill:#d1d1d1;fill-opacity:1;fill-rule:nonzero;stroke:none"
         d="m 2712.5078,2489.6836 v -7 h 39.1641 v 7 h -15.9375 v 64.4805 h -7.2891 v -64.4805 z m 0,0"
         id="path3012"
         inkscape:connector-curvature="0" />
      <path
         style="fill:#d1d1d1;fill-opacity:1;fill-rule:nonzero;stroke:none"
         d="m 2762.0234,2482.6836 h 40.961 v 7 h -33.8203 v 22.3984 h 33.5312 v 7 h -33.5312 v 28.086 h 33.5312 v 6.9961 h -40.6719 z m 0,0"
         id="path3014"
         inkscape:connector-curvature="0" />
      <path
         style="fill:#d1d1d1;fill-opacity:1;fill-rule:nonzero;stroke:none"
         d="m 2822.8594,2489.6836 v 24.2969 l 12.3125,0.098 c 4.7695,0 8.2969,-0.4531 10.5859,-1.3633 2.2891,-0.9062 4.0742,-2.3554 5.3555,-4.3476 1.2812,-1.9922 1.9219,-4.2188 1.9219,-6.6836 0,-2.3945 -0.6485,-4.5742 -1.9493,-6.5352 -1.2968,-1.9609 -3,-3.3593 -5.1093,-4.2031 -2.1094,-0.8398 -5.6133,-1.2617 -10.5118,-1.2617 z m -7.1446,-7 h 14.2383 c 7.9375,0 13.3125,0.3281 16.1328,0.9766 4.2422,0.9726 7.6914,3.0546 10.3477,6.2539 2.6562,3.1914 3.9844,7.125 3.9844,11.7968 0,3.8907 -0.9141,7.3125 -2.7422,10.2657 -1.832,2.9492 -4.4492,5.1797 -7.8477,6.6875 -3.4023,1.5117 -8.1015,2.2812 -14.0937,2.3125 l 25.707,33.1875 h -8.8359 l -25.7071,-33.1875 h -4.039 v 33.1875 h -7.1446 z m 0,0"
         id="path3016"
         inkscape:connector-curvature="0" />
      <path
         style="fill:#d1d1d1;fill-opacity:1;fill-rule:nonzero;stroke:none"
         d="m 2874.707,2482.6836 h 7.1407 v 71.4805 h -7.1407 z m 0,0"
         id="path3018"
         inkscape:connector-curvature="0" />
      <path
         style="fill:#d1d1d1;fill-opacity:1;fill-rule:nonzero;stroke:none"
         d="m 2891.1289,2489.6836 v -7 h 39.168 v 7 h -15.9414 v 64.4805 h -7.2891 v -64.4805 z m 0,0"
         id="path3020"
         inkscape:connector-curvature="0" />
      <path
         style="fill:#d1d1d1;fill-opacity:1;fill-rule:nonzero;stroke:none"
         d="m 2974.9492,2487.8359 c -5.289,0 -10.3008,1.3789 -15.039,4.1329 -4.7383,2.7578 -8.4375,6.4726 -11.0977,11.1406 -2.6602,4.664 -3.9883,9.8672 -3.9883,15.6094 0,8.4921 2.9453,15.664 8.8321,21.5156 5.8906,5.8515 12.9882,8.7773 21.2929,8.7773 5.5469,0 10.6836,-1.3437 15.4024,-4.0351 4.7226,-2.6914 8.4062,-6.3672 11.0507,-11.0352 2.6446,-4.6719 3.9649,-9.8594 3.9649,-15.5625 0,-5.6758 -1.3203,-10.8086 -3.9649,-15.3945 -2.6445,-4.586 -6.3671,-8.2578 -11.1718,-11.0156 -4.8008,-2.754 -9.8946,-4.1329 -15.2813,-4.1329 m -0.3164,-6.9492 c 10.8281,0 19.8867,3.6133 27.1797,10.836 7.293,7.2265 10.9414,16.1171 10.9414,26.6757 0,10.4649 -3.6406,19.3438 -10.918,26.6329 -7.2734,7.2851 -16.1484,10.9296 -26.6171,10.9296 -10.6016,0 -19.5469,-3.625 -26.8438,-10.8828 -7.293,-7.2578 -10.9375,-16.0351 -10.9375,-26.3359 0,-6.8672 1.6602,-13.2344 4.9844,-19.0938 3.3203,-5.8671 7.8515,-10.457 13.5898,-13.7812 5.7383,-3.3203 11.9453,-4.9805 18.6211,-4.9805"
         id="path3022"
         inkscape:connector-curvature="0" />
      <path
         style="fill:#d1d1d1;fill-opacity:1;fill-rule:nonzero;stroke:none"
         d="m 3034.6211,2489.6836 v 24.2969 l 12.3125,0.098 c 4.7695,0 8.3008,-0.4531 10.5859,-1.3633 2.2891,-0.9062 4.0743,-2.3554 5.3555,-4.3476 1.2813,-1.9922 1.9219,-4.2188 1.9219,-6.6836 0,-2.3945 -0.6485,-4.5742 -1.9453,-6.5352 -1.3008,-1.9609 -3.0039,-3.3593 -5.1133,-4.2031 -2.1094,-0.8398 -5.6133,-1.2617 -10.5117,-1.2617 z m -7.1445,-7 h 14.2382 c 7.9375,0 13.3165,0.3281 16.1329,0.9766 4.2461,0.9726 7.6953,3.0546 10.3515,6.2539 2.6524,3.1914 3.9844,7.125 3.9844,11.7968 0,3.8907 -0.918,7.3125 -2.7461,10.2657 -1.832,2.9492 -4.4453,5.1797 -7.8477,6.6875 -3.4023,1.5117 -8.0976,2.2812 -14.0937,2.3125 l 25.707,33.1875 h -8.8359 l -25.707,-33.1875 h -4.0391 v 33.1875 h -7.1445 z m 0,0"
         id="path3024"
         inkscape:connector-curvature="0" />
      <path
         style="fill:#d1d1d1;fill-opacity:1;fill-rule:nonzero;stroke:none"
         d="m 3086.4688,2482.6836 h 7.1406 v 71.4805 h -7.1406 z m 0,0"
         id="path3026"
         inkscape:connector-curvature="0" />
      <path
         style="fill:#d1d1d1;fill-opacity:1;fill-rule:nonzero;stroke:none"
         d="m 3133.4063,2482.6836 h 7.1445 v 48.2539 c 0,7.418 -0.5781,12.5781 -1.7266,15.4766 -1.1484,2.8984 -3.0703,5.2148 -5.7578,6.9492 -2.6875,1.7305 -5.9453,2.5976 -9.7656,2.5976 -2.8828,0 -5.7266,-0.5586 -8.5274,-1.6718 -2.8046,-1.1211 -5.9062,-3.086 -9.3046,-5.9063 l 3.789,-5.6836 c 3.7305,2.6211 6.832,4.4688 9.2969,5.5352 1.625,0.7148 3.2148,1.0703 4.7734,1.0703 2.0469,0 3.9024,-0.6133 5.5742,-1.8438 1.6719,-1.2304 2.8399,-2.8671 3.5079,-4.9101 0.664,-2.0391 0.9961,-5.9922 0.9961,-11.8555 z m 0,0"
         id="path3028"
         inkscape:connector-curvature="0" />
      <path
         style="fill:#d1d1d1;fill-opacity:1;fill-rule:nonzero;stroke:none"
         d="m 3192.3008,2487.8359 c -5.2891,0 -10.3047,1.3789 -15.0391,4.1329 -4.7383,2.7578 -8.4375,6.4726 -11.0976,11.1406 -2.6602,4.664 -3.9922,9.8672 -3.9922,15.6094 0,8.4921 2.9453,15.664 8.8359,21.5156 5.8867,5.8515 12.9844,8.7773 21.293,8.7773 5.5469,0 10.6836,-1.3437 15.4023,-4.0351 4.7188,-2.6914 8.4024,-6.3672 11.0469,-11.0352 2.6445,-4.6719 3.9688,-9.8594 3.9688,-15.5625 0,-5.6758 -1.3243,-10.8086 -3.9688,-15.3945 -2.6445,-4.586 -6.3672,-8.2578 -11.168,-11.0156 -4.8047,-2.754 -9.8945,-4.1329 -15.2812,-4.1329 m -0.3164,-6.9492 c 10.8242,0 19.8867,3.6133 27.1797,10.836 7.2929,7.2265 10.9414,16.1171 10.9414,26.6757 0,10.4649 -3.6407,19.3438 -10.918,26.6329 -7.2773,7.2851 -16.1523,10.9296 -26.6211,10.9296 -10.5976,0 -19.5469,-3.625 -26.8398,-10.8828 -7.293,-7.2578 -10.9375,-16.0351 -10.9375,-26.3359 0,-6.8672 1.6601,-13.2344 4.9804,-19.0938 3.3243,-5.8671 7.8516,-10.457 13.5899,-13.7812 5.7383,-3.3203 11.9453,-4.9805 18.625,-4.9805"
         id="path3030"
         inkscape:connector-curvature="0" />
      <path
         style="fill:#d1d1d1;fill-opacity:1;fill-rule:nonzero;stroke:none"
         d="m 3267.8594,2482.6836 h 7.1445 v 48.2539 c 0,7.418 -0.5781,12.5781 -1.7266,15.4766 -1.1484,2.8984 -3.0703,5.2148 -5.7578,6.9492 -2.6914,1.7305 -5.9453,2.5976 -9.7695,2.5976 -2.8828,0 -5.7227,-0.5586 -8.5273,-1.6718 -2.8008,-1.1211 -5.9024,-3.086 -9.3047,-5.9063 l 3.7929,-5.6836 c 3.7305,2.6211 6.8321,4.4688 9.2969,5.5352 1.625,0.7148 3.2149,1.0703 4.7735,1.0703 2.0429,0 3.9023,-0.6133 5.5742,-1.8438 1.6718,-1.2304 2.8398,-2.8671 3.5039,-4.9101 0.6679,-2.0391 1,-5.9922 1,-11.8555 z m 0,0"
         id="path3032"
         inkscape:connector-curvature="0" />
      <path
         style="fill:#d1d1d1;fill-opacity:1;fill-rule:nonzero;stroke:none"
         d="m 3292.4453,2482.6836 h 40.9688 v 7 h -33.8243 v 22.3984 h 33.5313 v 7 h -33.5313 v 28.086 h 33.5313 v 6.9961 h -40.6758 z m 0,0"
         id="path3034"
         inkscape:connector-curvature="0" />
      <path
         style="fill:#d1d1d1;fill-opacity:1;fill-rule:nonzero;stroke:none"
         d="m 2352.8867,2593.375 h 4.7852 l 14.582,33.9883 14.8203,-33.9883 h 4.7852 l -19.1406,43.9961 h -0.9571 z m 0,0"
         id="path3036"
         inkscape:connector-curvature="0" />
      <path
         style="fill:#d1d1d1;fill-opacity:1;fill-rule:nonzero;stroke:none"
         d="m 2399.2773,2593.375 h 25.211 v 4.3047 h -20.8164 v 13.7891 h 20.6367 v 4.3085 h -20.6367 v 17.2891 h 20.6367 v 4.3047 h -25.0313 z m 0,0"
         id="path3038"
         inkscape:connector-curvature="0" />
      <path
         style="fill:#d1d1d1;fill-opacity:1;fill-rule:nonzero;stroke:none"
         d="m 2431.457,2593.3789 h 4.3985 v 43.9922 h -4.3985 z m 0,0"
         id="path3040"
         inkscape:connector-curvature="0" />
      <path
         style="fill:#d1d1d1;fill-opacity:1;fill-rule:nonzero;stroke:none"
         d="m 2441.3867,2629.1758 3.7422,-2.2422 c 2.6289,4.8477 5.6719,7.2656 9.1211,7.2656 1.4727,0 2.8594,-0.3437 4.1563,-1.0312 1.2968,-0.6875 2.2812,-1.6094 2.9609,-2.7657 0.6758,-1.1562 1.0156,-2.3828 1.0156,-3.6796 0,-1.4766 -0.4961,-2.9219 -1.4922,-4.336 -1.3789,-1.9531 -3.8906,-4.3086 -7.539,-7.0586 -3.668,-2.7695 -5.9532,-4.7773 -6.8477,-6.0117 -1.5547,-2.0742 -2.3359,-4.3164 -2.3359,-6.7305 0,-1.914 0.4609,-3.6562 1.3789,-5.2343 0.914,-1.5703 2.207,-2.8164 3.8711,-3.7227 1.664,-0.9062 3.4765,-1.3633 5.4297,-1.3633 2.0742,0 4.0117,0.5157 5.8164,1.543 1.8047,1.0273 3.7148,2.918 5.7265,5.668 l -3.5859,2.7226 c -1.6563,-2.1953 -3.0664,-3.6406 -4.2344,-4.3359 -1.168,-0.6992 -2.4375,-1.0508 -3.8125,-1.0508 -1.7773,0 -3.2265,0.5391 -4.3515,1.6172 -1.129,1.0742 -1.6915,2.4023 -1.6915,3.9766 0,0.9609 0.1993,1.8867 0.5977,2.7812 0.3984,0.8984 1.1289,1.875 2.1836,2.9336 0.5781,0.5547 2.4727,2.0234 5.6836,4.3945 3.8086,2.8125 6.4219,5.3164 7.8359,7.5078 1.4141,2.1914 2.125,4.3946 2.125,6.6094 0,3.1914 -1.2109,5.9649 -3.6367,8.3164 -2.4219,2.3516 -5.3672,3.5274 -8.8359,3.5274 -2.6719,0 -5.0938,-0.711 -7.2696,-2.1368 -2.1718,-1.4257 -4.1757,-3.8125 -6.0117,-7.164"
         id="path3042"
         inkscape:connector-curvature="0" />
      <path
         style="fill:#d1d1d1;fill-opacity:1;fill-rule:nonzero;stroke:none"
         d="m 2475.8125,2593.3789 h 4.3984 v 43.9922 h -4.3984 z m 0,0"
         id="path3044"
         inkscape:connector-curvature="0" />
      <path
         style="fill:#d1d1d1;fill-opacity:1;fill-rule:nonzero;stroke:none"
         d="m 2507.7109,2602.7227 -7.539,15.9257 h 15.039 z m 0.5547,-9.3477 20.5157,43.9961 h -4.75 l -6.918,-14.4766 h -18.9531 l -6.8555,14.4766 h -4.9024 l 20.7852,-43.9961 z m 0,0"
         id="path3046"
         inkscape:connector-curvature="0" />
      <path
         style="fill:#d1d1d1;fill-opacity:1;fill-rule:nonzero;stroke:none"
         d="m 2533.5977,2637.3711 6.2968,-43.9961 h 0.7149 l 17.8867,36.1016 17.7109,-36.1016 h 0.7071 l 6.332,43.9961 h -4.3125 l -4.3477,-31.4648 -15.5546,31.4648 h -1.125 l -15.7422,-31.7031 -4.3203,31.7031 z m 0,0"
         id="path3048"
         inkscape:connector-curvature="0" />
      <path
         style="fill:#d1d1d1;fill-opacity:1;fill-rule:nonzero;stroke:none"
         d="m 2613.0352,2596.543 c -3.2579,0 -6.3438,0.8515 -9.2579,2.5468 -2.9179,1.6954 -5.1953,3.9805 -6.832,6.8555 -1.6367,2.8711 -2.457,6.0781 -2.457,9.6055 0,5.2305 1.8125,9.6445 5.4375,13.2461 3.625,3.6015 7.9961,5.4023 13.1094,5.4023 3.414,0 6.5742,-0.8281 9.4804,-2.4844 2.9063,-1.6562 5.1719,-3.9218 6.8008,-6.7929 1.625,-2.875 2.4414,-6.0664 2.4414,-9.5781 0,-3.4922 -0.8164,-6.6524 -2.4414,-9.4766 -1.6289,-2.8242 -3.9219,-5.082 -6.875,-6.7774 -2.957,-1.6953 -6.0937,-2.5468 -9.4062,-2.5468 m -0.1954,-4.2774 c 6.6641,0 12.2383,2.2266 16.7305,6.6719 4.4883,4.4453 6.7305,9.9219 6.7305,16.4219 0,6.4375 -2.2383,11.9023 -6.7188,16.3867 -4.4765,4.4883 -9.9414,6.7305 -16.3828,6.7305 -6.5234,0 -12.0312,-2.2305 -16.5234,-6.6993 -4.4883,-4.4648 -6.7305,-9.871 -6.7305,-16.2109 0,-4.2266 1.0195,-8.1445 3.0664,-11.75 2.0469,-3.6133 4.8321,-6.4375 8.3633,-8.4844 3.5313,-2.0429 7.3555,-3.0664 11.4648,-3.0664"
         id="path3050"
         inkscape:connector-curvature="0" />
      <path
         style="fill:#d1d1d1;fill-opacity:1;fill-rule:nonzero;stroke:none"
         d="m 2640.582,2629.1758 3.7383,-2.2422 c 2.6289,4.8477 5.6719,7.2656 9.1211,7.2656 1.4727,0 2.8594,-0.3437 4.1563,-1.0312 1.2968,-0.6875 2.2812,-1.6094 2.9609,-2.7657 0.6758,-1.1562 1.0156,-2.3828 1.0156,-3.6796 0,-1.4766 -0.4961,-2.9219 -1.4922,-4.336 -1.3789,-1.9531 -3.8906,-4.3086 -7.539,-7.0586 -3.668,-2.7695 -5.9532,-4.7773 -6.8477,-6.0117 -1.5547,-2.0742 -2.3359,-4.3164 -2.3359,-6.7305 0,-1.914 0.4609,-3.6562 1.3789,-5.2343 0.914,-1.5703 2.207,-2.8164 3.8711,-3.7227 1.664,-0.9062 3.4765,-1.3633 5.4297,-1.3633 2.0742,0 4.0117,0.5157 5.8164,1.543 1.8047,1.0273 3.7148,2.918 5.7265,5.668 l -3.5859,2.7226 c -1.6563,-2.1953 -3.0664,-3.6406 -4.2344,-4.3359 -1.164,-0.6992 -2.4375,-1.0508 -3.8125,-1.0508 -1.7734,0 -3.2265,0.5391 -4.3515,1.6172 -1.125,1.0742 -1.6914,2.4023 -1.6914,3.9766 0,0.9609 0.1992,1.8867 0.5976,2.7812 0.4024,0.8984 1.1289,1.875 2.1836,2.9336 0.5781,0.5547 2.4727,2.0234 5.6836,4.3945 3.8086,2.8125 6.4219,5.3164 7.8359,7.5078 1.418,2.1914 2.125,4.3946 2.125,6.6094 0,3.1914 -1.2109,5.9649 -3.6328,8.3164 -2.4258,2.3516 -5.3711,3.5274 -8.8398,3.5274 -2.6719,0 -5.0938,-0.711 -7.2696,-2.1368 -2.1718,-1.4257 -4.1757,-3.8125 -6.0078,-7.164"
         id="path3052"
         inkscape:connector-curvature="0" />
      <path
         style="fill:#d1d1d1;fill-opacity:1;fill-rule:nonzero;stroke:none"
         d="m 2691.9609,2593.3789 h 4.3946 v 43.9922 h -4.3946 z m 0,0"
         id="path3054"
         inkscape:connector-curvature="0" />
      <path
         style="fill:#d1d1d1;fill-opacity:1;fill-rule:nonzero;stroke:none"
         d="m 2711.0742,2597.6797 v 14.957 l 7.5781,0.062 c 2.9375,0 5.1094,-0.2812 6.5157,-0.8398 1.4101,-0.5586 2.5078,-1.4492 3.2968,-2.6797 0.7891,-1.2266 1.1836,-2.5938 1.1836,-4.1094 0,-1.4765 -0.4023,-2.8164 -1.1992,-4.0234 -0.8008,-1.2071 -1.8476,-2.0703 -3.1445,-2.586 -1.3008,-0.5195 -3.457,-0.7812 -6.4727,-0.7812 z m -4.3984,-4.3047 h 8.7656 c 4.8828,0 8.1953,0.2031 9.9297,0.6016 2.6133,0.5976 4.7344,1.8789 6.3711,3.8476 1.6328,1.9649 2.4492,4.3867 2.4492,7.2578 0,2.3985 -0.5625,4.5039 -1.6875,6.3203 -1.125,1.8165 -2.7383,3.1915 -4.832,4.1172 -2.0938,0.9297 -4.9844,1.4024 -8.6719,1.4258 l 15.8203,20.4258 h -5.4375 l -15.8242,-20.4258 h -2.4844 v 20.4258 h -4.3984 z m 0,0"
         id="path3056"
         inkscape:connector-curvature="0" />
      <path
         style="fill:#d1d1d1;fill-opacity:1;fill-rule:nonzero;stroke:none"
         d="m 2777.9922,2602.7227 -7.5391,15.9257 h 15.043 z m 0.5547,-9.3477 20.5195,43.9961 h -4.75 l -6.918,-14.4766 h -18.9531 l -6.8555,14.4766 h -4.9062 l 20.7891,-43.9961 z m 0,0"
         id="path3058"
         inkscape:connector-curvature="0" />
      <path
         style="fill:#d1d1d1;fill-opacity:1;fill-rule:nonzero;stroke:none"
         d="m 2806.0352,2593.375 h 4.3945 v 26.5586 c 0,3.1484 0.062,5.1133 0.1797,5.8906 0.2187,1.7383 0.7265,3.1875 1.5273,4.3516 0.7969,1.168 2.0235,2.1445 3.6758,2.9336 1.6563,0.789 3.3203,1.1797 4.9961,1.1797 1.457,0 2.8516,-0.3086 4.1875,-0.9258 1.3359,-0.6172 2.4531,-1.4766 3.3516,-2.5742 0.8945,-1.0938 1.5546,-2.4219 1.9726,-3.9727 0.3008,-1.1211 0.4492,-3.4141 0.4492,-6.8828 v -26.5586 h 4.3946 v 26.5586 c 0,3.9297 -0.3828,7.1016 -1.1485,9.5273 -0.7695,2.4219 -2.3047,4.5313 -4.6093,6.3243 -2.3008,1.7929 -5.086,2.6953 -8.3594,2.6953 -3.5469,0 -6.5899,-0.8516 -9.1211,-2.543 -2.5313,-1.6953 -4.2266,-3.9414 -5.082,-6.7344 -0.5391,-1.7109 -0.8086,-4.8047 -0.8086,-9.2695 z m 0,0"
         id="path3060"
         inkscape:connector-curvature="0" />
      <path
         style="fill:#d1d1d1;fill-opacity:1;fill-rule:nonzero;stroke:none"
         d="m 2888.4336,2600.7617 -3.4102,3.2305 c -2.4531,-2.4141 -5.1406,-4.2422 -8.0625,-5.4883 -2.9179,-1.2461 -5.7656,-1.8711 -8.539,-1.8711 -3.4492,0 -6.7344,0.8477 -9.8516,2.543 -3.1211,1.6953 -5.539,3.9922 -7.2539,6.8984 -1.7148,2.8985 -2.5742,5.9649 -2.5742,9.1914 0,3.3125 0.8906,6.4571 2.6641,9.4375 1.7734,2.9805 4.2265,5.3282 7.3554,7.0274 3.1328,1.707 6.5625,2.5586 10.2891,2.5586 4.5273,0 8.3555,-1.2774 11.4844,-3.8282 3.1328,-2.5507 4.9843,-5.8632 5.5664,-9.9296 h -14.0274 v -4.2461 h 18.961 c -0.043,6.7968 -2.0586,12.1953 -6.0586,16.1953 -3.9961,3.9961 -9.3438,5.9961 -16.043,5.9961 -8.1367,0 -14.5781,-2.7696 -19.3242,-8.3125 -3.6485,-4.2657 -5.4727,-9.2032 -5.4727,-14.8047 0,-4.168 1.0469,-8.0469 3.1406,-11.6367 2.0938,-3.5899 4.9649,-6.3946 8.6133,-8.418 3.6485,-2.0234 7.7774,-3.0391 12.3828,-3.0391 3.7305,0 7.2383,0.6758 10.5274,2.0196 3.293,1.3476 6.5,3.5078 9.6328,6.4765"
         id="path3062"
         inkscape:connector-curvature="0" />
      <path
         style="fill:#d1d1d1;fill-opacity:1;fill-rule:nonzero;stroke:none"
         d="m 2898.7813,2593.3789 h 4.3945 v 43.9922 h -4.3945 z m 0,0"
         id="path3064"
         inkscape:connector-curvature="0" />
      <path
         style="fill:#d1d1d1;fill-opacity:1;fill-rule:nonzero;stroke:none"
         d="m 2913.2852,2637.3711 v -43.9961 h 0.957 l 29.2812,33.7266 v -33.7266 h 4.336 v 43.9961 h -0.9844 l -29.043,-33.3125 v 33.3125 z m 0,0"
         id="path3066"
         inkscape:connector-curvature="0" />
      <path
         style="fill:#d1d1d1;fill-opacity:1;fill-rule:nonzero;stroke:none"
         d="m 2975.9883,2602.7227 -7.5391,15.9257 h 15.0391 z m 0.5547,-9.3477 20.5156,43.9961 h -4.7461 l -6.9219,-14.4766 h -18.9531 l -6.8516,14.4766 h -4.9062 l 20.7851,-43.9961 z m 0,0"
         id="path3068"
         inkscape:connector-curvature="0" />
      <path
         style="fill:#d1d1d1;fill-opacity:1;fill-rule:nonzero;stroke:none"
         d="m 3001.875,2637.3711 6.3008,-43.9961 h 0.7148 l 17.8828,36.1016 17.7149,-36.1016 h 0.7031 l 6.332,43.9961 h -4.3125 l -4.3437,-31.4648 -15.5586,31.4648 h -1.1211 l -15.7422,-31.7031 -4.3242,31.7031 z m 0,0"
         id="path3070"
         inkscape:connector-curvature="0" />
      <path
         style="fill:#d1d1d1;fill-opacity:1;fill-rule:nonzero;stroke:none"
         d="m 3081.3125,2596.543 c -3.2539,0 -6.3398,0.8515 -9.2539,2.5468 -2.918,1.6954 -5.1953,3.9805 -6.832,6.8555 -1.6368,2.8711 -2.4571,6.0781 -2.4571,9.6055 0,5.2305 1.8125,9.6445 5.4375,13.2461 3.625,3.6015 7.9922,5.4023 13.1055,5.4023 3.4141,0 6.5742,-0.8281 9.4805,-2.4844 2.9062,-1.6562 5.1718,-3.9218 6.8008,-6.7929 1.6289,-2.875 2.4414,-6.0664 2.4414,-9.5781 0,-3.4922 -0.8125,-6.6524 -2.4414,-9.4766 -1.629,-2.8242 -3.918,-5.082 -6.875,-6.7774 -2.9571,-1.6953 -6.0899,-2.5468 -9.4063,-2.5468 m -0.1914,-4.2774 c 6.6602,0 12.2383,2.2266 16.7266,6.6719 4.4882,4.4453 6.7343,9.9219 6.7343,16.4219 0,6.4375 -2.2382,11.9023 -6.7187,16.3867 -4.4805,4.4883 -9.9414,6.7305 -16.3867,6.7305 -6.5235,0 -12.0313,-2.2305 -16.5196,-6.6993 -4.4882,-4.4648 -6.7343,-9.871 -6.7343,-16.2109 0,-4.2266 1.0234,-8.1445 3.0703,-11.75 2.0429,-3.6133 4.832,-6.4375 8.3633,-8.4844 3.5312,-2.0429 7.3515,-3.0664 11.4648,-3.0664"
         id="path3072"
         inkscape:connector-curvature="0" />
      <path
         style="fill:#d1d1d1;fill-opacity:1;fill-rule:nonzero;stroke:none"
         d="m 3108.8594,2629.1758 3.7383,-2.2422 c 2.6328,4.8477 5.6718,7.2656 9.1211,7.2656 1.4765,0 2.8632,-0.3437 4.1601,-1.0312 1.293,-0.6875 2.2813,-1.6094 2.957,-2.7657 0.6797,-1.1562 1.0196,-2.3828 1.0196,-3.6796 0,-1.4766 -0.5,-2.9219 -1.4961,-4.336 -1.375,-1.9531 -3.8867,-4.3086 -7.5352,-7.0586 -3.6719,-2.7695 -5.9531,-4.7773 -6.8515,-6.0117 -1.5547,-2.0742 -2.3321,-4.3164 -2.3321,-6.7305 0,-1.914 0.4571,-3.6562 1.375,-5.2343 0.918,-1.5703 2.211,-2.8164 3.875,-3.7227 1.6641,-0.9062 3.4727,-1.3633 5.4258,-1.3633 2.0742,0 4.0156,0.5157 5.8203,1.543 1.8047,1.0273 3.711,2.918 5.7266,5.668 l -3.5899,2.7226 c -1.6562,-2.1953 -3.0664,-3.6406 -4.2304,-4.3359 -1.168,-0.6992 -2.4375,-1.0508 -3.8164,-1.0508 -1.7735,0 -3.2227,0.5391 -4.3516,1.6172 -1.125,1.0742 -1.6875,2.4023 -1.6875,3.9766 0,0.9609 0.1992,1.8867 0.5977,2.7812 0.3984,0.8984 1.125,1.875 2.1836,2.9336 0.5781,0.5547 2.4726,2.0234 5.6835,4.3945 3.8047,2.8125 6.418,5.3164 7.836,7.5078 1.414,2.1914 2.1211,4.3946 2.1211,6.6094 0,3.1914 -1.211,5.9649 -3.6328,8.3164 -2.4219,2.3516 -5.3672,3.5274 -8.8399,3.5274 -2.6719,0 -5.0937,-0.711 -7.2656,-2.1368 -2.1758,-1.4257 -4.1797,-3.8125 -6.0117,-7.164"
         id="path3074"
         inkscape:connector-curvature="0" />
      <path
         style="fill:#d1d1d1;fill-opacity:1;fill-rule:nonzero;stroke:none"
         d="m 3172.207,2590.0273 h -4.1601 l -8.6719,-7.6875 h 5.4141 l 5.2617,4.543 5.4844,-4.543 h 5.5546 z m -13.0429,7.5938 v -4.2422 h 23.2109 l -18.3789,39.6836 h 17.4531 v 4.3086 h -24.2578 l 18.5391,-39.75 z m 0,0"
         id="path3076"
         inkscape:connector-curvature="0" />
      <path
         style="fill:#d1d1d1;fill-opacity:1;fill-rule:nonzero;stroke:none"
         d="m 3190.418,2593.375 h 4.3984 v 26.5586 c 0,3.1484 0.059,5.1133 0.1797,5.8906 0.2187,1.7383 0.7266,3.1875 1.5234,4.3516 0.7969,1.168 2.0274,2.1445 3.6797,2.9336 1.6563,0.789 3.3203,1.1797 4.9961,1.1797 1.4531,0 2.8516,-0.3086 4.1875,-0.9258 1.336,-0.6172 2.4531,-1.4766 3.3477,-2.5742 0.8984,-1.0938 1.5586,-2.4219 1.9765,-3.9727 0.2969,-1.1211 0.4453,-3.4141 0.4453,-6.8828 v -26.5586 h 4.3985 v 26.5586 c 0,3.9297 -0.3828,7.1016 -1.1524,9.5273 -0.7656,2.4219 -2.3007,4.5313 -4.6054,6.3243 -2.3047,1.7929 -5.0899,2.6953 -8.3594,2.6953 -3.5469,0 -6.5898,-0.8516 -9.1211,-2.543 -2.5312,-1.6953 -4.2266,-3.9414 -5.0859,-6.7344 -0.5391,-1.7109 -0.8086,-4.8047 -0.8086,-9.2695 z m 0,0"
         id="path3078"
         inkscape:connector-curvature="0" />
      <path
         style="fill:#d1d1d1;fill-opacity:1;fill-rule:nonzero;stroke:none"
         d="m 3227.0273,2593.375 h 4.7852 l 14.582,33.9883 14.8203,-33.9883 H 3266 l -19.1406,43.9961 h -0.9571 z m 0,0"
         id="path3080"
         inkscape:connector-curvature="0" />
      <path
         style="fill:#d1d1d1;fill-opacity:1;fill-rule:nonzero;stroke:none"
         d="m 3269.918,2593.375 h 5.0586 l 11.2578,18.1445 11.0781,-18.1445 h 5.0859 l -13.9375,22.9688 v 21.0273 h -4.3359 v -21.0273 z m 0,0"
         id="path3082"
         inkscape:connector-curvature="0" />
      <path
         style="fill:#d1d1d1;fill-opacity:1;fill-rule:nonzero;stroke:none"
         d="m 3305.0898,2629.1758 3.7383,-2.2422 c 2.6328,4.8477 5.6719,7.2656 9.1211,7.2656 1.4766,0 2.8633,-0.3437 4.1602,-1.0312 1.2969,-0.6875 2.2812,-1.6094 2.9609,-2.7657 0.6797,-1.1562 1.0195,-2.3828 1.0195,-3.6796 0,-1.4766 -0.5,-2.9219 -1.496,-4.336 -1.379,-1.9531 -3.8907,-4.3086 -7.5391,-7.0586 -3.6719,-2.7695 -5.9531,-4.7773 -6.8516,-6.0117 -1.5547,-2.0742 -2.332,-4.3164 -2.332,-6.7305 0,-1.914 0.457,-3.6562 1.375,-5.2343 0.918,-1.5703 2.2109,-2.8164 3.875,-3.7227 1.6641,-0.9062 3.4727,-1.3633 5.4297,-1.3633 2.0703,0 4.0117,0.5157 5.8164,1.543 1.8047,1.0273 3.7148,2.918 5.7266,5.668 l -3.586,2.7226 c -1.6562,-2.1953 -3.0664,-3.6406 -4.2344,-4.3359 -1.1679,-0.6992 -2.4375,-1.0508 -3.8125,-1.0508 -1.7773,0 -3.2265,0.5391 -4.3554,1.6172 -1.125,1.0742 -1.6875,2.4023 -1.6875,3.9766 0,0.9609 0.1992,1.8867 0.5976,2.7812 0.3985,0.8984 1.125,1.875 2.1836,2.9336 0.5781,0.5547 2.4727,2.0234 5.6836,4.3945 3.8086,2.8125 6.4219,5.3164 7.836,7.5078 1.4179,2.1914 2.125,4.3946 2.125,6.6094 0,3.1914 -1.211,5.9649 -3.6329,8.3164 -2.4257,2.3516 -5.3711,3.5274 -8.8437,3.5274 -2.6719,0 -5.0938,-0.711 -7.2656,-2.1368 -2.1758,-1.4257 -4.1797,-3.8125 -6.0118,-7.164"
         id="path3084"
         inkscape:connector-curvature="0" />
    </g>
    <path
       inkscape:connector-curvature="0"
       id="path3470"
       d="m 167.47988,283.09506 c 0,-0.26307 0.21699,-0.47784 0.48122,-0.47784 0.26423,0 0.47953,0.21477 0.47953,0.47784 0,0.2631 -0.2153,0.47727 -0.47953,0.47727 -0.26423,0 -0.48122,-0.21417 -0.48122,-0.47727 m -0.54699,0 c 0,0.46827 0.32156,0.86014 0.75389,0.98044 v 5.20675 c 0,1.42452 1.16759,2.58311 2.59888,2.58311 1.43461,0 2.60001,-1.15859 2.60001,-2.58311 v -1.90348 c 0,-0.12312 -0.0827,-0.23051 -0.20183,-0.26198 -0.11977,-0.0324 -0.24567,0.019 -0.30751,0.12535 l -0.63917,1.08722 c -0.0759,0.12986 -0.0314,0.29627 0.0995,0.37218 0.1293,0.0753 0.2974,0.0321 0.37384,-0.0984 l 0.12817,-0.21812 v 0.89722 c 0,1.1243 -0.92082,2.03895 -2.05299,2.03895 -1.12995,0 -2.05134,-0.91465 -2.05134,-2.03895 v -5.20675 c 0.43343,-0.1203 0.75442,-0.51217 0.75442,-0.98044 0,-0.56272 -0.46098,-1.02088 -1.02764,-1.02088 -0.56723,0 -1.02821,0.45816 -1.02821,1.02088"
       style="fill:#d1d1d1;fill-opacity:1;fill-rule:nonzero;stroke:none;stroke-width:0.14391367" />
    <path
       inkscape:connector-curvature="0"
       id="path3472"
       d="m 167.97966,282.70548 h -0.28784 v -54.39936 h 0.28784 z m 0,0"
       style="fill:#d1d1d1;fill-opacity:1;fill-rule:nonzero;stroke:#d1d1d1;stroke-width:0.14391367;stroke-linecap:butt;stroke-linejoin:miter;stroke-miterlimit:10;stroke-opacity:1" />
    <path
       inkscape:connector-curvature="0"
       id="path3474"
       d="m 168.31864,228.13186 c 0.53799,-0.23049 1.9625,-0.77466 4.15103,-1.14514 -0.0332,0.0152 -0.0652,0.0304 -0.0995,0.0433 -0.0506,0.0197 -0.10287,0.0382 -0.15741,0.0534 -0.0134,0.004 -0.0286,0.006 -0.0427,0.009 0.0123,0.0911 0.0208,0.1827 0.0208,0.27659 0,1.10409 -0.90286,2.00129 -2.01369,2.00129 -0.8382,0 -1.55607,-0.51269 -1.8585,-1.23843 m 4.51922,-1.20528 c 2.32565,-0.35698 5.44174,-0.50202 9.22563,0.0888 0.66563,0.10343 1.36271,0.23329 2.09014,0.39181 -1.30704,1.28962 -3.25885,2.11149 -5.43891,2.11149 -2.43978,0 -4.59345,-1.02933 -5.87686,-2.59213 m 13.16641,0.93262 c 2.70288,0.728 5.76668,1.8574 9.13571,3.56918 -0.90957,0.48121 -1.95633,0.75892 -3.0728,0.75892 -2.88385,0 -5.31915,-1.8349 -6.06291,-4.3281 m 9.46065,5.62501 c 0,-0.59364 0.14785,-1.15806 0.41374,-1.67356 2.55616,1.34469 5.28094,3.02387 8.15192,5.11455 -0.89719,0.56049 -2.01874,0.89554 -3.23579,0.89554 -2.93899,0 -5.32987,-1.94564 -5.32987,-4.33653 m -27.65898,-5.46535 c 0.28783,1.03382 1.24125,1.79612 2.3712,1.79612 1.35311,0 2.45554,-1.09116 2.46172,-2.43474 1.37897,1.56563 3.58828,2.5837 6.07585,2.5837 2.41166,0 4.56082,-0.95792 5.9477,-2.44203 0.27601,0.0641 0.55654,0.13268 0.84155,0.20575 0.70439,2.80801 3.37859,4.90431 6.56322,4.90431 1.20643,0 2.34033,-0.30189 3.32186,-0.8275 -0.23894,0.52225 -0.37218,1.08834 -0.37218,1.67974 0,2.63598 2.59214,4.78063 5.77793,4.78063 1.34469,0 2.58202,-0.38227 3.56465,-1.02144 -0.0883,0.28051 9.7929,8.30201 10.72159,9.23183 0.0826,-0.0596 0.16753,-0.11581 0.25745,-0.16471 -5.73743,-5.75708 -11.51925,-10.33478 -17.23421,-13.63748 -5.42992,-3.13856 -10.81095,-5.14099 -15.99353,-5.9505 -8.84058,-1.38067 -14.11927,1.22945 -14.17155,1.25643 l 0.0106,0.0191 c -0.0478,0.008 -0.0956,0.0169 -0.14389,0.0208"
       style="fill:#d1d1d1;fill-opacity:1;fill-rule:nonzero;stroke:none;stroke-width:0.14391367" />
    <path
       inkscape:connector-curvature="0"
       id="path3476"
       d="m 168.31864,228.13186 c 0.53799,-0.23049 1.9625,-0.77466 4.15103,-1.14514 -0.0332,0.0152 -0.0652,0.0304 -0.0995,0.0433 -0.0506,0.0197 -0.10287,0.0382 -0.15741,0.0534 -0.0134,0.004 -0.0286,0.006 -0.0427,0.009 0.0123,0.0911 0.0208,0.1827 0.0208,0.27659 0,1.10409 -0.90286,2.00129 -2.01369,2.00129 -0.8382,0 -1.55607,-0.51269 -1.8585,-1.23843 z m 4.51923,-1.20528 c 2.32565,-0.35698 5.44173,-0.50202 9.22563,0.0888 0.66562,0.10343 1.36271,0.2333 2.09014,0.39182 -1.30705,1.28961 -3.25886,2.11149 -5.43892,2.11149 -2.43978,0 -4.59345,-1.02933 -5.87685,-2.59213 z m 13.1664,0.93262 c 2.70288,0.728 5.76669,1.85739 9.13571,3.56917 -0.90956,0.48122 -1.95632,0.75893 -3.0728,0.75893 -2.88385,0 -5.31915,-1.8349 -6.06291,-4.3281 z m 9.46066,5.62501 c 0,-0.59365 0.14785,-1.15806 0.41373,-1.67356 2.55616,1.34468 5.28095,3.02387 8.15192,5.11455 -0.89718,0.56049 -2.01873,0.89553 -3.23578,0.89553 -2.93899,0 -5.32987,-1.94564 -5.32987,-4.33652 z m -27.65898,-5.46536 c 0.28783,1.03382 1.24125,1.79612 2.37119,1.79612 1.35312,0 2.45555,-1.09115 2.46172,-2.43473 1.37898,1.56562 3.58828,2.58369 6.07586,2.58369 2.41166,0 4.56082,-0.95791 5.94769,-2.44202 0.27602,0.0641 0.55654,0.13267 0.84155,0.20575 0.7044,2.808 3.37859,4.9043 6.56322,4.9043 1.20643,0 2.34033,-0.30188 3.32186,-0.8275 -0.23893,0.52225 -0.37218,1.08835 -0.37218,1.67975 0,2.63598 2.59214,4.78062 5.77794,4.78062 1.34468,0 2.58202,-0.38226 3.56464,-1.02144 -0.0883,0.28052 9.7929,8.30202 10.72159,9.23183 0.0826,-0.0596 0.16753,-0.1158 0.25746,-0.16471 -5.73744,-5.7571 -11.51926,-10.3348 -17.23422,-13.6375 -5.42992,-3.13856 -10.81095,-5.14099 -15.99353,-5.9505 -8.84058,-1.38066 -14.11927,1.22945 -14.17155,1.25644 l 0.0106,0.0191 c -0.0478,0.008 -0.0956,0.0169 -0.14389,0.0208 z m 0,0"
       style="fill:none;stroke:#d1d1d1;stroke-width:0.2039257;stroke-linecap:butt;stroke-linejoin:miter;stroke-miterlimit:10;stroke-opacity:1" />
  </g>
</svg>
