<?xml version="1.0" encoding="UTF-8" standalone="no"?>
<!-- Created with Inkscape (http://www.inkscape.org/) -->

<svg
   xmlns:dc="http://purl.org/dc/elements/1.1/"
   xmlns:cc="http://creativecommons.org/ns#"
   xmlns:rdf="http://www.w3.org/1999/02/22-rdf-syntax-ns#"
   xmlns:svg="http://www.w3.org/2000/svg"
   xmlns="http://www.w3.org/2000/svg"
   xmlns:sodipodi="http://sodipodi.sourceforge.net/DTD/sodipodi-0.dtd"
   xmlns:inkscape="http://www.inkscape.org/namespaces/inkscape"
   width="378.74188mm"
   height="116.13995mm"
   viewBox="0 0 378.74188 116.13995"
   version="1.1"
   id="svg4827"
   inkscape:version="0.92.3 (2405546, 2018-03-11)"
   sodipodi:docname="heading.svg">
  <defs
     id="defs4821" />
  <sodipodi:namedview
     id="base"
     pagecolor="#ffffff"
     bordercolor="#666666"
     borderopacity="1.0"
     inkscape:pageopacity="0.0"
     inkscape:pageshadow="2"
     inkscape:zoom="0.175"
     inkscape:cx="694.25361"
     inkscape:cy="7.863392"
     inkscape:document-units="mm"
     inkscape:current-layer="layer1"
     showgrid="false"
     inkscape:window-width="1080"
     inkscape:window-height="1857"
     inkscape:window-x="1912"
     inkscape:window-y="-8"
     inkscape:window-maximized="1" />
  <metadata
     id="metadata4824">
    <rdf:RDF>
      <cc:Work
         rdf:about="">
        <dc:format>image/svg+xml</dc:format>
        <dc:type
           rdf:resource="http://purl.org/dc/dcmitype/StillImage" />
        <dc:title></dc:title>
      </cc:Work>
    </rdf:RDF>
  </metadata>
  <g
     inkscape:label="Layer 1"
     inkscape:groupmode="layer"
     id="layer1"
     transform="translate(62.370941,-33.310974)">
    <g
       id="g4738"
       transform="matrix(0.27314245,0,0,0.27314245,-332.13752,-46.437018)">
      <path
         style="fill:#bdbaba;fill-opacity:1;fill-rule:nonzero;stroke:none"
         d="m 1019.875,471.48437 h 8.1992 v 55.62891 c 0,8.56641 -0.6406,14.47656 -1.9726,17.83594 -1.3243,3.3125 -3.5391,6.0664 -6.6211,7.99609 -3.1289,2.01172 -6.875,3.01953 -11.2813,3.01953 -3.3437,0 -6.5898,-0.64453 -9.83201,-1.92578 -3.22657,-1.27734 -6.79297,-3.57031 -10.72657,-6.79687 L 992,540.65234 c 4.31641,3.04688 7.89062,5.16797 10.7187,6.41797 1.879,0.8125 3.7266,1.1875 5.5274,1.1875 2.3359,0 4.5,-0.67187 6.4141,-2.10937 1.9296,-1.375 3.2734,-3.28516 4.0429,-5.6211 0.7774,-2.34765 1.1719,-6.93359 1.1719,-13.65625 z m 0,0"
         id="path2894"
         inkscape:connector-curvature="0" />
      <path
         style="fill:#bdbaba;fill-opacity:1;fill-rule:nonzero;stroke:none"
         d="m 1048.4102,471.48437 h 8.2421 v 49.73829 c 0,5.92578 0.1055,9.60156 0.3477,11.05468 0.4102,3.23047 1.3555,5.97266 2.8438,8.14453 1.5039,2.17579 3.7929,3.97657 6.8828,5.46485 3.1172,1.48047 6.2265,2.25 9.3789,2.25 2.6992,0 5.3125,-0.60547 7.832,-1.76953 2.4961,-1.13282 4.582,-2.75391 6.25,-4.80469 1.7109,-2.03125 2.9258,-4.51563 3.7109,-7.43359 0.5547,-2.07422 0.8516,-6.35938 0.8516,-12.90625 v -49.73829 h 8.2148 v 49.73829 c 0,7.39453 -0.7031,13.30859 -2.1406,17.85937 -1.4258,4.51563 -4.3086,8.48828 -8.6289,11.85156 -4.3086,3.36328 -9.5234,5.03125 -15.6719,5.03125 -6.625,0 -12.3164,-1.61328 -17.0625,-4.76953 -4.7421,-3.14062 -7.9257,-7.33594 -9.5273,-12.58203 -0.9961,-3.22266 -1.5234,-8.99219 -1.5234,-17.39062 z m 0,0"
         id="path2896"
         inkscape:connector-curvature="0" />
      <path
         style="fill:#bdbaba;fill-opacity:1;fill-rule:nonzero;stroke:none"
         d="m 1119.5039,553.86328 11.7891,-82.37891 h 1.3359 l 33.4961,67.625 33.1914,-67.625 h 1.3125 l 11.8516,82.37891 h -8.0742 l -8.129,-58.90625 -29.1328,58.90625 h -2.1093 l -29.4727,-59.35156 -8.1172,59.35156 z m 0,0"
         id="path2898"
         inkscape:connector-curvature="0" />
      <path
         style="fill:#bdbaba;fill-opacity:1;fill-rule:nonzero;stroke:none"
         d="m 1220.1602,538.53906 7,-4.17969 c 4.9336,9.0625 10.6289,13.60547 17.0664,13.60547 2.7968,0 5.3867,-0.67578 7.8086,-1.92578 2.4336,-1.28515 4.2734,-3.05078 5.5507,-5.20703 1.2696,-2.12891 1.8789,-4.44531 1.8789,-6.875 0,-2.77344 -0.9414,-5.47656 -2.7812,-8.10156 -2.5703,-3.69922 -7.2773,-8.06641 -14.1289,-13.22656 -6.8828,-5.17969 -11.125,-8.98047 -12.8164,-11.27344 -2.9024,-3.85938 -4.3555,-8.08985 -4.3555,-12.59766 0,-3.60937 0.836,-6.87109 2.5625,-9.79297 1.7149,-2.9414 4.1367,-5.27734 7.2578,-6.98437 3.1172,-1.70313 6.5117,-2.53516 10.1797,-2.53516 3.8672,0 7.5195,0.95703 10.8945,2.90625 3.3399,1.92578 6.9415,5.41797 10.7071,10.57422 L 1260.2617,488 c -3.0898,-4.08984 -5.7148,-6.79688 -7.914,-8.08203 -2.1836,-1.34375 -4.5743,-1.96875 -7.1485,-1.96875 -3.3125,0 -6.0469,1.01562 -8.1484,3.0039 -2.1133,2.03907 -3.1641,4.52344 -3.1641,7.46094 0,1.78516 0.3555,3.51953 1.1055,5.23047 0.7617,1.65234 2.1367,3.48438 4.0976,5.46094 1.0821,1.05859 4.6329,3.80078 10.6563,8.26562 7.1211,5.25782 12.0039,9.94532 14.6602,14.04688 2.6445,4.08594 4,8.23437 4,12.35547 0,5.98047 -2.2774,11.17578 -6.8477,15.58203 -4.5117,4.40625 -10.0234,6.60547 -16.5352,6.60547 -4.9921,0 -9.5468,-1.33985 -13.5937,-3.97266 -4.0781,-2.71094 -7.8125,-7.125 -11.2695,-13.44922"
         id="path2900"
         inkscape:connector-curvature="0" />
      <path
         style="fill:#bdbaba;fill-opacity:1;fill-rule:nonzero;stroke:none"
         d="m 1316.4102,471.48437 h 8.2109 v 82.37891 h -8.2109 z m 0,0"
         id="path2902"
         inkscape:connector-curvature="0" />
      <path
         style="fill:#bdbaba;fill-opacity:1;fill-rule:nonzero;stroke:none"
         d="m 1365.7617,465.24219 h -7.8125 l -16.2383,-14.40235 h 10.1329 l 9.8671,8.50391 10.2774,-8.50391 h 10.3945 z m -30.7773,73.29687 7.0117,-4.17969 c 4.918,9.0625 10.6328,13.60938 17.0742,13.60938 2.7617,0 5.336,-0.67969 7.7891,-1.92969 2.4258,-1.28515 4.2617,-3.05078 5.5469,-5.20703 1.246,-2.12891 1.9023,-4.44531 1.9023,-6.875 0,-2.77344 -0.9336,-5.47656 -2.8008,-8.10156 -2.5859,-3.69922 -7.3008,-8.06641 -14.1094,-13.22656 -6.8711,-5.17969 -11.164,-8.98047 -12.832,-11.27344 -2.918,-3.85938 -4.3789,-8.08985 -4.3789,-12.59375 0,-3.61328 0.8945,-6.875 2.6133,-9.79688 1.6797,-2.9414 4.1133,-5.27734 7.2305,-6.98437 3.1289,-1.70313 6.4882,-2.53516 10.1523,-2.53516 3.8906,0 7.5234,0.95703 10.8984,2.90625 3.3828,1.92578 6.9727,5.41797 10.7461,10.57422 L 1375.0703,488 c -3.082,-4.08984 -5.7109,-6.79688 -7.8945,-8.08203 -2.1992,-1.34375 -4.586,-1.96875 -7.1445,-1.96875 -3.336,0 -6.0469,1.01562 -8.1446,3.0039 -2.125,2.03907 -3.1797,4.52344 -3.1797,7.46094 0,1.78516 0.3789,3.51953 1.1289,5.22656 0.7422,1.65625 2.1211,3.48829 4.0977,5.46485 1.0781,1.05859 4.6133,3.80078 10.625,8.26562 7.1445,5.25782 12.0234,9.94532 14.707,14.04688 2.6328,4.08594 3.9532,8.23437 3.9532,12.35547 0,5.98047 -2.2696,11.17578 -6.8086,15.57812 -4.5469,4.41016 -10.0352,6.60938 -16.5508,6.60938 -5,0 -9.543,-1.33985 -13.625,-3.97266 -4.0586,-2.71094 -7.8203,-7.125 -11.25,-13.44922"
         id="path2904"
         inkscape:connector-curvature="0" />
      <path
         style="fill:#bdbaba;fill-opacity:1;fill-rule:nonzero;stroke:none"
         d="m 1432.4492,553.86328 v -82.37891 h 1.8086 l 54.8242,63.19141 v -63.19141 h 8.1328 v 82.37891 h -1.8398 l -54.4062,-62.37109 v 62.37109 z m 0,0"
         id="path2906"
         inkscape:connector-curvature="0" />
      <path
         style="fill:#bdbaba;fill-opacity:1;fill-rule:nonzero;stroke:none"
         d="m 1517.3086,471.48437 h 47.2305 v 8.06641 h -38.9844 v 25.85156 h 38.6367 v 8.04297 h -38.6367 v 32.375 h 38.6367 v 8.04297 h -46.8828 z m 0,0"
         id="path2908"
         inkscape:connector-curvature="0" />
      <path
         style="fill:#bdbaba;fill-opacity:1;fill-rule:nonzero;stroke:none"
         d="m 1575,553.86328 11.8008,-82.37891 h 1.3359 l 33.5117,67.625 33.1758,-67.625 h 1.3203 l 11.8399,82.37891 h -8.0313 l -8.1718,-58.90625 -29.1524,58.90625 h -2.082 l -29.4961,-59.35156 -8.0781,59.35156 z m 0,0"
         id="path2910"
         inkscape:connector-curvature="0" />
      <path
         style="fill:#bdbaba;fill-opacity:1;fill-rule:nonzero;stroke:none"
         d="m 1684.4492,471.48437 h 8.2422 v 49.73829 c 0,5.92578 0.1172,9.60156 0.3086,11.05468 0.4414,3.23047 1.3711,5.97266 2.875,8.14453 1.5156,2.17579 3.8164,3.97657 6.918,5.46485 3.0859,1.48047 6.2187,2.25 9.3554,2.25 2.6875,0 5.336,-0.60547 7.8164,-1.76953 2.5235,-1.13282 4.5938,-2.75391 6.2774,-4.80469 1.6992,-2.03125 2.9258,-4.51563 3.7266,-7.43359 0.5429,-2.07422 0.8281,-6.35938 0.8281,-12.90625 v -49.73829 h 8.2265 v 49.73829 c 0,7.39453 -0.707,13.30859 -2.1601,17.85937 -1.457,4.51563 -4.3164,8.48828 -8.6406,11.85156 -4.3047,3.36328 -9.5235,5.03125 -15.6485,5.03125 -6.6484,0 -12.332,-1.61328 -17.0976,-4.76953 -4.7305,-3.14062 -7.8985,-7.33594 -9.4883,-12.58203 -1.043,-3.22266 -1.5391,-8.99219 -1.5391,-17.39062 z m 0,0"
         id="path2912"
         inkscape:connector-curvature="0" />
      <path
         style="fill:#bdbaba;fill-opacity:1;fill-rule:nonzero;stroke:none"
         d="m 1759.3438,553.86328 v -82.37891 h 1.789 l 54.8438,63.19141 v -63.19141 h 8.1211 v 82.37891 h -1.8516 l -54.3906,-62.37109 v 62.37109 z m 0,0"
         id="path2914"
         inkscape:connector-curvature="0" />
      <path
         style="fill:#bdbaba;fill-opacity:1;fill-rule:nonzero;stroke:none"
         d="m 1883.75,477.44531 c -6.0859,0 -11.8672,1.5625 -17.3359,4.75391 -5.4493,3.1875 -9.7266,7.45703 -12.7852,12.83594 -3.0781,5.39062 -4.5976,11.39453 -4.5976,18.01562 0,9.78125 3.4062,18.05469 10.1875,24.76563 6.7968,6.77734 14.9648,10.14843 24.5312,10.14843 6.4023,0 12.3203,-1.55468 17.7383,-4.66797 5.4648,-3.10937 9.6992,-7.33593 12.7695,-12.67968 3.0586,-5.4336 4.5625,-11.39063 4.5625,-17.96485 0,-6.5664 -1.5039,-12.45703 -4.5625,-17.76172 -3.0703,-5.28125 -7.332,-9.5039 -12.875,-12.6914 -5.5469,-3.19141 -11.414,-4.75391 -17.6328,-4.75391 m -0.3516,-8 c 12.4883,0 22.9297,4.14453 31.3164,12.45313 8.4219,8.35156 12.6094,18.58203 12.6094,30.76172 0,12.09375 -4.1875,22.28906 -12.5742,30.73437 -8.375,8.37891 -18.6055,12.57031 -30.6719,12.57031 -12.2343,0 -22.5429,-4.17578 -30.9492,-12.54297 -8.4023,-8.37109 -12.582,-18.46875 -12.582,-30.35546 0,-7.9336 1.8984,-15.25391 5.7148,-22.01954 3.8242,-6.76562 9.0547,-12.03906 15.668,-15.84765 6.6016,-3.85156 13.7461,-5.75391 21.4687,-5.75391"
         id="path2916"
         inkscape:connector-curvature="0" />
      <path
         style="fill:#bdbaba;fill-opacity:1;fill-rule:nonzero;stroke:none"
         d="m 1983.5078,546.125 h 9.543 c 11.3789,0 19.2734,-0.74609 23.6719,-2.16797 6.2226,-1.98047 11.0859,-5.61719 14.6328,-10.87109 3.539,-5.25782 5.3281,-11.63282 5.3281,-19.21485 0,-7.93359 -1.9258,-14.71875 -5.7891,-20.37109 -3.8359,-5.61719 -9.2031,-9.5 -16.082,-11.60156 -5.1445,-1.53516 -13.6133,-2.34766 -25.457,-2.34766 h -5.8477 z m -7.875,7.73828 v -82.37891 h 17.082 c 12.293,0 21.2618,1.01172 26.8399,2.98829 7.9805,2.78125 14.2266,7.64843 18.7344,14.53906 4.4609,6.94922 6.7578,15.15234 6.7578,24.73437 0,8.26953 -1.8203,15.46875 -5.3867,21.76172 -3.5586,6.28125 -8.1719,10.91406 -13.875,13.91406 -5.6758,2.98438 -13.6602,4.44141 -23.9454,4.44141 z m 0,0"
         id="path2918"
         inkscape:connector-curvature="0" />
      <path
         style="fill:#bdbaba;fill-opacity:1;fill-rule:nonzero;stroke:none"
         d="m 2061.043,471.48437 h 47.2304 v 8.06641 h -39 v 25.85156 h 38.6563 v 8.04297 h -38.6563 v 32.375 h 38.6563 v 8.04297 h -46.8867 z m 0,0"
         id="path2920"
         inkscape:connector-curvature="0" />
      <path
         style="fill:#bdbaba;fill-opacity:1;fill-rule:nonzero;stroke:none"
         d="m 2122.5039,471.48437 h 8.2031 v 74.44532 h 31.7305 v 7.93359 h -39.9336 z m 0,0"
         id="path2922"
         inkscape:connector-curvature="0" />
      <path
         style="fill:#bdbaba;fill-opacity:1;fill-rule:nonzero;stroke:none"
         d="m 2167.2969,479.55078 v -8.06641 h 45.1601 v 8.06641 h -18.3906 v 74.31641 h -8.3789 v -74.31641 z m 0,0"
         id="path2924"
         inkscape:connector-curvature="0" />
      <path
         style="fill:#bdbaba;fill-opacity:1;fill-rule:nonzero;stroke:none"
         d="m 2263.9453,477.44531 c -6.1367,0 -11.9023,1.5625 -17.3515,4.75391 -5.461,3.1875 -9.7188,7.45703 -12.8047,12.83594 -3.0586,5.39062 -4.5782,11.39453 -4.5782,18.01562 0,9.78125 3.3789,18.05469 10.1758,24.76563 6.7852,6.77734 14.961,10.14843 24.5586,10.14843 6.3555,0 12.3203,-1.55468 17.7305,-4.66797 5.4492,-3.10937 9.7031,-7.33593 12.7539,-12.67968 3.0312,-5.4336 4.5547,-11.39063 4.5547,-17.96485 0,-6.5664 -1.5235,-12.45703 -4.5547,-17.76172 -3.0508,-5.28125 -7.3633,-9.5039 -12.8867,-12.6914 -5.5313,-3.19141 -11.4258,-4.75391 -17.5977,-4.75391 m -0.3633,-8 c 12.4649,0 22.8985,4.14453 31.3203,12.45313 8.4024,8.35156 12.6094,18.58203 12.6094,30.76172 0,12.09375 -4.207,22.28906 -12.6015,30.73437 -8.3711,8.37891 -18.6055,12.57031 -30.668,12.57031 -12.2109,0 -22.5391,-4.17578 -30.957,-12.54297 -8.3907,-8.37109 -12.6016,-18.46875 -12.6016,-30.35546 0,-7.9336 1.9023,-15.25391 5.7461,-22.01954 3.8203,-6.76562 9.0351,-12.03906 15.6797,-15.84765 6.6015,-3.85156 13.7578,-5.75391 21.4726,-5.75391"
         id="path2926"
         inkscape:connector-curvature="0" />
      <path
         style="fill:#bdbaba;fill-opacity:1;fill-rule:nonzero;stroke:none"
         d="m 2315.5234,538.53906 6.9961,-4.17969 c 4.9336,9.0625 10.6289,13.60547 17.0938,13.60547 2.7617,0 5.3555,-0.67578 7.7851,-1.92578 2.4024,-1.28515 4.2774,-3.05078 5.5508,-5.20703 1.2617,-2.12891 1.8906,-4.44531 1.8906,-6.875 0,-2.77344 -0.9257,-5.47656 -2.7968,-8.10156 -2.5742,-3.69922 -7.2891,-8.06641 -14.1172,-13.22656 -6.8711,-5.17969 -11.1328,-8.98047 -12.8399,-11.27344 -2.9101,-3.85938 -4.3593,-8.08985 -4.3593,-12.59766 0,-3.60937 0.8515,-6.87109 2.5664,-9.79297 1.7422,-2.9414 4.1484,-5.27734 7.25,-6.98437 3.1211,-1.70313 6.5273,-2.53516 10.1875,-2.53516 3.8672,0 7.5078,0.95703 10.8906,2.90625 3.3789,1.92578 6.9531,5.41797 10.7148,10.57422 L 2355.6172,488 c -3.0977,-4.08984 -5.7383,-6.79688 -7.9219,-8.08203 -2.1992,-1.34375 -4.5508,-1.96875 -7.1367,-1.96875 -3.3359,0 -6.0352,1.01562 -8.1563,3.0039 -2.0976,2.03907 -3.1718,4.52344 -3.1718,7.46094 0,1.78516 0.3906,3.51953 1.1328,5.23047 0.7617,1.65234 2.0976,3.48438 4.0976,5.46094 1.0664,1.05859 4.6329,3.80078 10.6368,8.26562 7.1328,5.25782 12.0195,9.94532 14.6679,14.04688 2.6485,4.08594 3.9766,8.23437 3.9766,12.35547 0,5.98047 -2.2734,11.17578 -6.7852,15.58203 -4.5468,4.40625 -10.082,6.60547 -16.5547,6.60547 -5.0117,0 -9.5546,-1.33985 -13.6093,-3.97266 -4.0977,-2.71094 -7.8399,-7.125 -11.2696,-13.44922"
         id="path2928"
         inkscape:connector-curvature="0" />
      <path
         style="fill:#bdbaba;fill-opacity:1;fill-rule:nonzero;stroke:none"
         d="m 997.83984,622.71094 v 34.62109 l 17.53126,0.12891 c 6.8086,0 11.8359,-0.63282 15.0859,-1.92969 3.2813,-1.29688 5.8047,-3.35156 7.6289,-6.20703 1.8438,-2.83985 2.7227,-6.00781 2.7227,-9.4961 0,-3.46875 -0.918,-6.53515 -2.7461,-9.35156 -1.8633,-2.76172 -4.2773,-4.77734 -7.3008,-6.00781 -2.9844,-1.14844 -7.9922,-1.75781 -14.9805,-1.75781 z m -10.19922,-9.95703 h 20.31248 c 11.293,0 18.9492,0.46875 22.9727,1.39062 6.0508,1.32813 10.9687,4.33984 14.7539,8.86719 3.7734,4.5625 5.6758,10.1875 5.6758,16.83594 0,5.50781 -1.3086,10.4375 -3.8985,14.64453 -2.6132,4.22656 -6.3554,7.35937 -11.1953,9.52343 -4.8359,2.13672 -11.5508,3.26172 -20.0976,3.28516 l 36.6406,47.25391 h -12.5938 l -36.6406,-47.25391 h -5.73046 v 47.25391 h -10.19922 z m 0,0"
         id="path2930"
         inkscape:connector-curvature="0" />
      <path
         style="fill:#bdbaba;fill-opacity:1;fill-rule:nonzero;stroke:none"
         d="m 1073.2422,612.75391 h 58.375 v 9.95703 h -48.1875 v 31.90625 h 47.7578 v 9.97656 h -47.7578 v 40.00391 h 47.7578 v 9.95703 h -57.9453 z m 0,0"
         id="path2932"
         inkscape:connector-curvature="0" />
      <path
         style="fill:#bdbaba;fill-opacity:1;fill-rule:nonzero;stroke:none"
         d="m 1247.4844,629.83594 -7.8946,7.43359 c -5.6875,-5.51562 -11.9023,-9.75391 -18.6914,-12.65625 -6.7343,-2.85937 -13.3281,-4.36328 -19.7539,-4.36328 -7.9843,0 -15.5859,1.98437 -22.8164,5.91016 -7.2343,3.91015 -12.8281,9.22265 -16.7812,15.98046 -3.9922,6.69532 -5.961,13.80469 -5.961,21.29688 0,7.66406 2.0274,14.9375 6.168,21.84375 4.0938,6.875 9.7734,12.33203 17.0156,16.26562 7.2578,3.92579 15.211,5.89454 23.8438,5.89454 10.4726,0 19.3359,-2.94141 26.5625,-8.82813 7.293,-5.94141 11.5469,-13.60547 12.9062,-23.03516 h -32.4922 v -9.84765 h 43.918 c -0.094,15.78906 -4.8008,28.26953 -14.0273,37.5664 -9.2657,9.23047 -21.6367,13.86719 -37.1485,13.86719 -18.8515,0 -33.75,-6.4414 -44.7656,-19.26562 -8.4258,-9.90625 -12.6523,-21.3125 -12.6523,-34.28516 0,-9.60937 2.4297,-18.58594 7.2578,-26.93359 4.8554,-8.28516 11.5117,-14.8086 19.9492,-19.5 8.4453,-4.69532 18.0195,-7.04297 28.6875,-7.04297 8.6211,0 16.7344,1.55469 24.3945,4.69922 7.5938,3.13672 15.0391,8.11718 22.2813,15"
         id="path2934"
         inkscape:connector-curvature="0" />
      <path
         style="fill:#bdbaba;fill-opacity:1;fill-rule:nonzero;stroke:none"
         d="m 1271.4453,612.75391 h 10.1875 v 101.80078 h -10.1875 z m 0,0"
         id="path2936"
         inkscape:connector-curvature="0" />
      <path
         style="fill:#bdbaba;fill-opacity:1;fill-rule:nonzero;stroke:none"
         d="m 1353.9258,620.0625 c -7.5274,0 -14.6719,1.96094 -21.4453,5.89453 -6.7539,3.95313 -12.0313,9.21094 -15.8047,15.87891 -3.793,6.64062 -5.6875,14.07422 -5.6875,22.22656 0,12.09375 4.207,22.33594 12.5742,30.71094 8.4102,8.28906 18.5273,12.48047 30.3633,12.48047 7.9062,0 15.2305,-1.91016 21.9258,-5.75 6.7461,-3.82422 11.9961,-9.06641 15.7812,-15.71485 3.7578,-6.66015 5.6328,-14.05859 5.6328,-22.18359 0,-8.08985 -1.875,-15.42969 -5.6328,-21.92969 -3.7851,-6.54297 -9.0937,-11.76562 -15.9414,-15.71875 -6.8203,-3.93359 -14.0898,-5.89453 -21.7656,-5.89453 m -0.4492,-9.92578 c 15.4336,0 28.3359,5.16797 38.7304,15.47656 10.3868,10.26953 15.5977,22.95313 15.5977,38 0,14.91406 -5.1992,27.57813 -15.5742,37.96875 -10.3594,10.39453 -23.0196,15.58203 -37.9297,15.58203 -15.1172,0 -27.8516,-5.16406 -38.2539,-15.53125 -10.3828,-10.34765 -15.6016,-22.84375 -15.6016,-37.53515 0,-9.80079 2.3828,-18.84766 7.1016,-27.17969 4.7383,-8.37891 11.1875,-14.92969 19.4023,-19.66406 8.1563,-4.7461 16.9961,-7.11719 26.5274,-7.11719"
         id="path2938"
         inkscape:connector-curvature="0" />
      <path
         style="fill:#bdbaba;fill-opacity:1;fill-rule:nonzero;stroke:none"
         d="M 1428.2773,714.55469 V 612.75391 h 2.25 l 67.793,78.03515 v -78.03515 h 10.0195 v 101.80078 h -2.2695 l -67.2461,-77.09375 v 77.09375 z m 0,0"
         id="path2940"
         inkscape:connector-curvature="0" />
      <path
         style="fill:#bdbaba;fill-opacity:1;fill-rule:nonzero;stroke:none"
         d="m 1531.6797,612.75391 h 10.1719 v 101.80078 h -10.1719 z m 0,0"
         id="path2942"
         inkscape:connector-curvature="0" />
      <path
         style="fill:#bdbaba;fill-opacity:1;fill-rule:nonzero;stroke:none"
         d="M 1565.2617,714.55469 V 612.75391 h 2.2305 l 67.8008,78.03515 v -78.03515 h 10.0234 v 101.80078 h -2.2812 l -67.2071,-77.09375 v 77.09375 z m 0,0"
         id="path2944"
         inkscape:connector-curvature="0" />
      <path
         style="fill:#bdbaba;fill-opacity:1;fill-rule:nonzero;stroke:none"
         d="m 1668.6563,612.75391 h 10.1914 v 101.80078 h -10.1914 z m 0,0"
         id="path2946"
         inkscape:connector-curvature="0" />
      <path
         style="fill:#bdbaba;fill-opacity:1;fill-rule:nonzero;stroke:none"
         d="m 1751.1484,620.0625 c -7.5546,0 -14.6757,1.96094 -21.4336,5.89453 -6.7734,3.95313 -12.0429,9.21094 -15.8125,15.87891 -3.8085,6.64062 -5.6875,14.07422 -5.6875,22.22656 0,12.09375 4.2227,22.33594 12.5821,30.71094 8.414,8.28906 18.5156,12.48047 30.3515,12.48047 7.9219,0 15.2422,-1.91016 21.9493,-5.75 6.7265,-3.82422 11.9609,-9.06641 15.75,-15.71485 3.7578,-6.66015 5.6523,-14.05859 5.6523,-22.18359 0,-8.08985 -1.8945,-15.42969 -5.6523,-21.92969 -3.7891,-6.54297 -9.0664,-11.76562 -15.918,-15.71875 -6.8555,-3.93359 -14.1133,-5.89453 -21.7813,-5.89453 m -0.4453,-9.92578 c 15.4258,0 28.3438,5.16797 38.7383,15.47656 10.3906,10.26953 15.5977,22.95313 15.5977,38 0,14.91406 -5.1993,27.57813 -15.5664,37.96875 -10.3829,10.39453 -23.0196,15.58203 -37.9454,15.58203 -15.1171,0 -27.8789,-5.16406 -38.246,-15.53125 -10.379,-10.34765 -15.5977,-22.84375 -15.5977,-37.53515 0,-9.80079 2.3789,-18.84766 7.1289,-27.17969 4.6914,-8.37891 11.1836,-14.92969 19.332,-19.66406 8.1953,-4.7461 17.0391,-7.11719 26.5586,-7.11719"
         id="path2948"
         inkscape:connector-curvature="0" />
      <path
         style="fill:#bdbaba;fill-opacity:1;fill-rule:nonzero;stroke:none"
         d="m 1874.8203,622.71094 v 34.5039 l 17.2461,0.2461 c 6.9688,0 12.1016,-0.63282 15.3164,-1.89844 3.2266,-1.28906 5.7813,-3.32422 7.6133,-6.16016 1.8555,-2.82812 2.7734,-6 2.7734,-9.48437 0,-3.41406 -0.9179,-6.55469 -2.7734,-9.3711 -1.832,-2.83203 -4.2969,-4.84765 -7.293,-6.07812 -3.0195,-1.16016 -8.0078,-1.75781 -14.8789,-1.75781 z m -10.1836,-9.95703 h 20.3047 c 11.6445,0 19.5117,0.48828 23.5508,1.48828 5.8047,1.46093 10.5898,4.38672 14.2539,8.80468 3.6914,4.48438 5.5625,10.08985 5.5625,16.83985 0,6.7539 -1.8203,12.375 -5.4023,16.7539 -3.6094,4.44532 -8.5665,7.41797 -14.9063,8.92969 -4.6133,1.07813 -13.2695,1.6836 -25.8828,1.6836 h -7.2969 v 47.30078 h -10.1836 z m 0,0"
         id="path2950"
         inkscape:connector-curvature="0" />
      <path
         style="fill:#bdbaba;fill-opacity:1;fill-rule:nonzero;stroke:none"
         d="m 1988.9883,634.34766 -17.461,36.89062 h 34.8438 z m 1.2812,-21.59375 47.5,101.80078 h -11 l -16.0078,-33.46875 h -43.8867 l -15.8789,33.46875 h -11.3516 l 48.1485,-101.80078 z m 0,0"
         id="path2952"
         inkscape:connector-curvature="0" />
      <path
         style="fill:#bdbaba;fill-opacity:1;fill-rule:nonzero;stroke:none"
         d="m 2064.3164,622.71094 v 34.62109 l 17.543,0.12891 c 6.8008,0 11.8281,-0.63282 15.0898,-1.92969 3.2774,-1.29688 5.8047,-3.35156 7.6133,-6.20703 1.8164,-2.83985 2.7305,-6.00781 2.7305,-9.4961 0,-3.46875 -0.9141,-6.53515 -2.7696,-9.35156 -1.8281,-2.76172 -4.2734,-4.77734 -7.2617,-6.00781 -3.0117,-1.14844 -8.0039,-1.75781 -15,-1.75781 z m -10.2031,-9.95703 h 20.3125 c 11.3164,0 18.9531,0.46875 22.9805,1.39062 6.0468,1.32813 10.9765,4.33984 14.75,8.86719 3.7695,4.5625 5.6835,10.1875 5.6835,16.83594 0,5.50781 -1.289,10.4375 -3.9257,14.64453 -2.5977,4.22656 -6.336,7.35937 -11.1758,9.52343 -4.8281,2.13672 -11.5274,3.26172 -20.0469,3.28516 l 36.5977,47.25391 h -12.6094 l -36.6055,-47.25391 h -5.7578 v 47.25391 h -10.2031 z m 0,0"
         id="path2954"
         inkscape:connector-curvature="0" />
      <path
         style="fill:#bdbaba;fill-opacity:1;fill-rule:nonzero;stroke:none"
         d="m 2139.6602,612.75391 h 10.3945 v 38.19531 l 40.7109,-38.19531 h 13.6758 l -48.9453,45.6914 52.7461,56.10938 h -13.543 l -44.6445,-47.44532 v 47.44532 h -10.3945 z m 0,0"
         id="path2956"
         inkscape:connector-curvature="0" />
      <path
         style="fill:#bdbaba;fill-opacity:1;fill-rule:nonzero;stroke:none"
         d="m 2272.3945,620.0625 c -7.5195,0 -14.6718,1.96094 -21.4101,5.89453 -6.7656,3.95313 -12.0391,9.21094 -15.8321,15.87891 -3.7929,6.64062 -5.6835,14.07422 -5.6835,22.22656 0,12.09375 4.2031,22.33594 12.5976,30.71094 8.4024,8.28906 18.4922,12.48047 30.3281,12.48047 7.9141,0 15.2227,-1.91016 21.9688,-5.75 6.7305,-3.82422 11.9648,-9.06641 15.7383,-15.71485 3.789,-6.66015 5.6523,-14.05859 5.6523,-22.18359 0,-8.08985 -1.8633,-15.42969 -5.6523,-21.92969 -3.7735,-6.54297 -9.0664,-11.76562 -15.918,-15.71875 -6.8594,-3.93359 -14.1055,-5.89453 -21.7891,-5.89453 m -0.4414,-9.92578 c 15.4297,0 28.3438,5.16797 38.7305,15.47656 10.4023,10.26953 15.6172,22.95313 15.6172,38 0,14.91406 -5.1992,27.57813 -15.5742,37.96875 -10.3868,10.39453 -23,15.58203 -37.9493,15.58203 -15.0976,0 -27.8671,-5.16406 -38.246,-15.53125 -10.3946,-10.34765 -15.5782,-22.84375 -15.5782,-37.53515 0,-9.80079 2.3477,-18.84766 7.0899,-27.17969 4.7461,-8.37891 11.2031,-14.92969 19.3672,-19.66406 8.1953,-4.7461 17.0234,-7.11719 26.5429,-7.11719"
         id="path2958"
         inkscape:connector-curvature="0" />
      <path
         style="fill:#bdbaba;fill-opacity:1;fill-rule:nonzero;stroke:none"
         d="m 2360.1563,689.10937 h -10.0508 v -78.97265 h 10.0508 z m -4.9375,10.23047 c 2.375,0 4.3867,0.84375 6.0468,2.52735 1.6485,1.65234 2.4883,3.66015 2.4883,6.04687 0,2.38281 -0.8398,4.42188 -2.4883,6.06641 -1.6601,1.71484 -3.6718,2.55859 -6.0468,2.55859 -2.3282,0 -4.3594,-0.84375 -6.0118,-2.55859 -1.664,-1.64453 -2.5,-3.6836 -2.5,-6.06641 0,-2.38672 0.836,-4.39453 2.5,-6.04687 1.6524,-1.6836 3.6836,-2.52735 6.0118,-2.52735"
         id="path2960"
         inkscape:connector-curvature="0" />
      <path
         style="fill:#bdbaba;fill-opacity:1;fill-rule:nonzero;stroke:none"
         d="m 1031.1758,307.43359 h -8.3633 l -17.457,-15.46875 h 10.8906 l 10.5977,9.15235 11.0273,-9.15235 h 11.1797 z m -33.03908,78.77735 7.51948,-4.51172 c 5.3008,9.74609 11.4141,14.625 18.3594,14.625 2.9649,0 5.7539,-0.69531 8.3594,-2.07813 2.6133,-1.38672 4.5977,-3.24218 5.9609,-5.57031 1.3633,-2.32031 2.0469,-4.78906 2.0469,-7.39844 0,-2.96875 -1.0039,-5.8789 -3.0078,-8.72656 -2.7695,-3.93359 -7.8242,-8.66406 -15.168,-14.20312 -7.3789,-5.57813 -11.9726,-9.60938 -13.7812,-12.09766 -3.1289,-4.16797 -4.6953,-8.68359 -4.6953,-13.53906 0,-3.85157 0.9257,-7.36328 2.7734,-10.53125 1.8438,-3.17188 4.4414,-5.66797 7.7891,-7.49219 3.3515,-1.82813 6.9922,-2.73828 10.9258,-2.73828 4.1679,0 8.0742,1.03515 11.7031,3.09765 3.6328,2.06641 7.4726,5.86719 11.5273,11.40625 l -7.2226,5.47266 c -3.3321,-4.41016 -6.168,-7.32031 -8.5157,-8.72266 -2.3476,-1.40625 -4.9062,-2.10937 -7.6718,-2.10937 -3.5743,0 -6.4922,1.08594 -8.7579,3.25 -2.2695,2.16797 -3.4023,4.83594 -3.4023,8.00391 0,1.92578 0.4023,3.79296 1.2031,5.59765 0.8047,1.80469 2.2696,3.77344 4.3946,5.89844 1.164,1.125 4.9726,4.07422 11.4336,8.84766 7.664,5.65625 12.9218,10.6914 15.7695,15.10156 2.8516,4.41406 4.2695,8.85156 4.2695,13.30469 0,6.41796 -2.4336,11.99609 -7.3086,16.73046 -4.8711,4.73438 -10.8008,7.09766 -17.7851,7.09766 -5.375,0 -10.25,-1.42969 -14.6211,-4.30078 -4.375,-2.86719 -8.4102,-7.67188 -12.09768,-14.41406"
         id="path2962"
         inkscape:connector-curvature="0" />
      <path
         style="fill:#bdbaba;fill-opacity:1;fill-rule:nonzero;stroke:none"
         d="m 1061.9297,314.17578 h 9.625 l 29.3437,68.39453 29.8164,-68.39453 h 9.625 l -38.5117,88.52734 h -1.9258 z m 0,0"
         id="path2964"
         inkscape:connector-curvature="0" />
      <path
         style="fill:#bdbaba;fill-opacity:1;fill-rule:nonzero;stroke:none"
         d="m 1153.9453,314.17578 h 8.8516 v 88.52734 h -8.8516 z m 0,0"
         id="path2966"
         inkscape:connector-curvature="0" />
      <path
         style="fill:#bdbaba;fill-opacity:1;fill-rule:nonzero;stroke:none"
         d="m 1183.1328,314.17578 h 50.7344 v 8.66406 h -41.8867 v 27.74219 h 41.5273 V 359.25 h -41.5273 v 34.78516 h 41.5273 v 8.66796 h -50.375 z m 0,0"
         id="path2968"
         inkscape:connector-curvature="0" />
      <path
         style="fill:#bdbaba;fill-opacity:1;fill-rule:nonzero;stroke:none"
         d="m 1271.9609,307.43359 h -8.3632 l -17.4532,-15.46875 h 10.8907 l 10.5937,9.15235 11.0313,-9.15235 h 11.1757 z m -26.2382,15.28907 v -8.54688 h 46.7031 l -36.9844,79.85938 h 35.1172 v 8.66796 H 1241.75 l 37.3086,-79.98046 z m 0,0"
         id="path2970"
         inkscape:connector-curvature="0" />
      <path
         style="fill:#bdbaba;fill-opacity:1;fill-rule:nonzero;stroke:none"
         d="m 1307.0508,314.17578 h 8.8437 v 88.52734 h -8.8437 z m 0,0"
         id="path2972"
         inkscape:connector-curvature="0" />
      <path
         style="fill:#bdbaba;fill-opacity:1;fill-rule:nonzero;stroke:none"
         d="m 1371.2266,332.98437 -15.168,32.04297 h 30.2656 z m 1.1172,-18.80859 41.2851,88.52734 h -9.5547 l -13.9258,-29.1289 h -38.1328 l -13.7929,29.1289 h -9.8711 l 41.8281,-88.52734 z m 0,0"
         id="path2974"
         inkscape:connector-curvature="0" />
      <path
         style="fill:#bdbaba;fill-opacity:1;fill-rule:nonzero;stroke:none"
         d="m 1460.2109,314.17578 h 8.8477 v 88.52734 h -8.8477 z m 0,0"
         id="path2976"
         inkscape:connector-curvature="0" />
      <path
         style="fill:#bdbaba;fill-opacity:1;fill-rule:nonzero;stroke:none"
         d="m 1498.6641,322.83984 v 30.08985 l 15.2539,0.12109 c 5.9062,0 10.2734,-0.55859 13.1093,-1.68359 2.836,-1.1211 5.043,-2.91797 6.6329,-5.38672 1.5859,-2.46485 2.3789,-5.22266 2.3789,-8.27344 0,-2.96875 -0.8047,-5.66797 -2.4102,-8.09375 -1.6094,-2.42969 -3.7187,-4.16406 -6.3281,-5.20312 -2.6133,-1.04688 -6.9531,-1.57032 -13.0235,-1.57032 z m -8.8477,-8.66406 h 17.6367 c 9.8282,0 16.4922,0.40234 19.9805,1.20313 5.2539,1.20703 9.5312,3.78515 12.8203,7.74218 3.2852,3.96094 4.9336,8.83203 4.9336,14.61719 0,4.81641 -1.1328,9.05469 -3.4023,12.71094 -2.2657,3.65625 -5.5039,6.41797 -9.7188,8.28515 -4.2148,1.8711 -10.0312,2.82422 -17.4531,2.86329 l 31.8359,41.10546 h -10.9375 l -31.8437,-41.10546 h -5.0039 v 41.10546 h -8.8477 z m 0,0"
         id="path2978"
         inkscape:connector-curvature="0" />
      <path
         style="fill:#bdbaba;fill-opacity:1;fill-rule:nonzero;stroke:none"
         d="m 1607.5938,322.83984 v 30.08985 l 15.25,0.12109 c 5.9101,0 10.2812,-0.55859 13.1093,-1.68359 2.8399,-1.1211 5.0469,-2.91797 6.6367,-5.38672 1.586,-2.46485 2.375,-5.22266 2.375,-8.27344 0,-2.96875 -0.8007,-5.66797 -2.4101,-8.09375 -1.6055,-2.42969 -3.7149,-4.16406 -6.3281,-5.20312 -2.6133,-1.04688 -6.9493,-1.57032 -13.0235,-1.57032 z m -8.8477,-8.66406 h 17.6367 c 9.8281,0 16.4844,0.40234 19.9805,1.20313 5.2539,1.20703 9.5273,3.78515 12.8203,7.74218 3.2891,3.96094 4.9297,8.83203 4.9297,14.61719 0,4.81641 -1.1289,9.05469 -3.3985,12.71094 -2.2617,3.65625 -5.5078,6.41797 -9.7187,8.28515 -4.2109,1.8711 -10.0352,2.82422 -17.4492,2.86329 l 31.832,41.10546 h -10.9453 l -31.8398,-41.10546 h -5 v 41.10546 h -8.8477 z m 0,0"
         id="path2980"
         inkscape:connector-curvature="0" />
      <path
         style="fill:#bdbaba;fill-opacity:1;fill-rule:nonzero;stroke:none"
         d="m 1681.9219,295.75781 h 41.5273 v 7.16406 h -41.5273 z m -8.5508,18.41797 h 8.8477 v 53.44141 c 0,6.33593 0.125,10.28906 0.3671,11.85547 0.4414,3.48828 1.4649,6.40625 3.0664,8.7539 1.6055,2.34766 4.0704,4.31641 7.4024,5.90235 3.3242,1.58203 6.6797,2.375 10.0508,2.375 2.9258,0 5.7343,-0.6211 8.4179,-1.86329 2.6954,-1.24609 4.9414,-2.97265 6.7422,-5.17968 1.8125,-2.20313 3.1367,-4.875 3.9727,-8 0.6055,-2.25 0.9062,-6.86328 0.9062,-13.84375 v -53.44141 h 8.8477 v 53.44141 c 0,7.90234 -0.7695,14.29297 -2.3164,19.16406 -1.543,4.875 -4.6367,9.12109 -9.2735,12.73047 -4.6367,3.60937 -10.2382,5.41406 -16.8164,5.41406 -7.1445,0 -13.2617,-1.69922 -18.3554,-5.11328 -5.0977,-3.40625 -8.5039,-7.92578 -10.2344,-13.54297 -1.082,-3.44922 -1.625,-9.66797 -1.625,-18.65234 z m 0,0"
         id="path2982"
         inkscape:connector-curvature="0" />
      <path
         style="fill:#bdbaba;fill-opacity:1;fill-rule:nonzero;stroke:none"
         d="m 1753.7813,314.17578 h 9.0195 v 33.21875 l 35.3867,-33.21875 h 11.8906 l -42.5195,39.71875 45.832,48.80859 h -11.7851 l -38.8047,-41.23437 v 41.23437 h -9.0195 z m 0,0"
         id="path2984"
         inkscape:connector-curvature="0" />
      <path
         style="fill:#bdbaba;fill-opacity:1;fill-rule:nonzero;stroke:none"
         d="m 1819.6133,314.17578 h 10.1836 l 22.6484,36.50781 22.2969,-36.50781 h 10.2305 l -28.043,46.21875 v 42.30859 h -8.7305 v -42.30859 z m 0,0"
         id="path2986"
         inkscape:connector-curvature="0" />
      <path
         style="fill:#bdbaba;fill-opacity:1;fill-rule:nonzero;stroke:none"
         d="m 1890.75,322.83984 v -8.66406 h 48.5078 v 8.66406 h -19.7383 v 79.86328 h -9.0273 v -79.86328 z m 0,0"
         id="path2988"
         inkscape:connector-curvature="0" />
      <path
         style="fill:#bdbaba;fill-opacity:1;fill-rule:nonzero;stroke:none"
         d="m 1987.0664,332.98437 -15.168,32.04297 h 30.2657 z m 1.1172,-18.80859 41.2852,88.52734 h -9.5547 l -13.9258,-29.1289 h -38.1367 l -13.793,29.1289 h -9.8672 l 41.8242,-88.52734 z m 0,0"
         id="path2990"
         inkscape:connector-curvature="0" />
      <path
         style="fill:#bdbaba;fill-opacity:1;fill-rule:nonzero;stroke:none"
         d="m 2100.1211,307.43359 h -8.3633 l -17.4531,-15.46875 h 10.8906 l 10.5938,9.15235 11.0312,-9.15235 H 2118 Z m -26.2383,15.28907 v -8.54688 h 46.7031 l -36.9843,79.85938 h 35.1172 v 8.66796 h -48.8086 l 37.3046,-79.98046 z m 0,0"
         id="path2992"
         inkscape:connector-curvature="0" />
      <path
         style="fill:#bdbaba;fill-opacity:1;fill-rule:nonzero;stroke:none"
         d="m 2136.7695,314.17578 h 8.8516 v 53.44141 c 0,6.33593 0.1172,10.28906 0.3594,11.85547 0.4414,3.48828 1.4648,6.40625 3.0703,8.7539 1.6015,2.34766 4.0703,4.31641 7.3984,5.89844 3.3321,1.58203 6.6797,2.37891 10.0508,2.37891 2.9297,0 5.7383,-0.6211 8.4258,-1.86329 2.6875,-1.24609 4.9375,-2.97265 6.7422,-5.17968 1.8047,-2.20313 3.1289,-4.875 3.9726,-8 0.6016,-2.25 0.9024,-6.86328 0.9024,-13.84375 v -53.44141 h 8.8476 v 53.44141 c 0,7.90234 -0.7734,14.29297 -2.3203,19.16406 -1.543,4.875 -4.6328,9.125 -9.2656,12.73047 -4.6367,3.60937 -10.2383,5.41406 -16.8203,5.41406 -7.1446,0 -13.2617,-1.69922 -18.3594,-5.11328 -5.0898,-3.40625 -8.5039,-7.92578 -10.2266,-13.54297 -1.082,-3.44922 -1.6289,-9.66797 -1.6289,-18.65234 z m 0,0"
         id="path2994"
         inkscape:connector-curvature="0" />
      <path
         style="fill:#bdbaba;fill-opacity:1;fill-rule:nonzero;stroke:none"
         d="m 2210.4336,314.17578 h 9.6328 l 29.3359,68.39453 29.8204,-68.39453 h 9.6328 l -38.5196,88.52734 h -1.9257 z m 0,0"
         id="path2996"
         inkscape:connector-curvature="0" />
      <path
         style="fill:#bdbaba;fill-opacity:1;fill-rule:nonzero;stroke:none"
         d="m 2302.4531,314.17578 h 8.8477 v 88.52734 h -8.8477 z m 0,0"
         id="path2998"
         inkscape:connector-curvature="0" />
      <path
         style="fill:#bdbaba;fill-opacity:1;fill-rule:nonzero;stroke:none"
         d="m 2322.4336,386.21094 7.5195,-4.51172 c 5.2969,9.74609 11.4141,14.625 18.3594,14.625 2.9688,0 5.7539,-0.69531 8.3633,-2.08203 2.6094,-1.38282 4.5937,-3.23828 5.957,-5.56641 1.3672,-2.32031 2.0469,-4.78906 2.0469,-7.39844 0,-2.96875 -1.0039,-5.8789 -3.0078,-8.72656 -2.7696,-3.93359 -7.8281,-8.66406 -15.168,-14.20312 -7.3828,-5.57422 -11.9766,-9.60938 -13.7773,-12.09766 -3.1328,-4.17188 -4.6953,-8.68359 -4.6953,-13.53906 0,-3.85157 0.9179,-7.36328 2.7656,-10.53125 1.8476,-3.17188 4.4414,-5.66797 7.7929,-7.49219 3.3516,-1.82813 6.9922,-2.73828 10.9258,-2.73828 4.1719,0 8.0742,1.03515 11.7032,3.09765 3.6328,2.06641 7.4726,5.86719 11.5234,11.40625 l -7.2188,5.47266 c -3.332,-4.41016 -6.1679,-7.32031 -8.5156,-8.72266 -2.3476,-1.40625 -4.9062,-2.10937 -7.6719,-2.10937 -3.5703,0 -6.4921,1.08594 -8.7578,3.25 -2.2695,2.16797 -3.3984,4.83594 -3.3984,8.00391 0,1.92578 0.3945,3.79296 1.2031,5.59765 0.8008,1.80469 2.2656,3.77344 4.3906,5.89844 1.1641,1.125 4.9766,4.07422 11.4375,8.84766 7.6641,5.65625 12.918,10.6914 15.7657,15.10156 2.8476,4.41406 4.2734,8.85156 4.2734,13.30469 0,6.41796 -2.4375,11.99609 -7.3125,16.72656 -4.875,4.74219 -10.8047,7.10156 -17.7852,7.10156 -5.375,0 -10.25,-1.43359 -14.625,-4.30078 -4.371,-2.86719 -8.4023,-7.67188 -12.0937,-14.41406"
         id="path3000"
         inkscape:connector-curvature="0" />
    </g>
  </g>
</svg>
