<?xml version="1.0" encoding="UTF-8" standalone="no"?>
<!-- Created with Inkscape (http://www.inkscape.org/) -->

<svg
   xmlns:dc="http://purl.org/dc/elements/1.1/"
   xmlns:cc="http://creativecommons.org/ns#"
   xmlns:rdf="http://www.w3.org/1999/02/22-rdf-syntax-ns#"
   xmlns:svg="http://www.w3.org/2000/svg"
   xmlns="http://www.w3.org/2000/svg"
   xmlns:sodipodi="http://sodipodi.sourceforge.net/DTD/sodipodi-0.dtd"
   xmlns:inkscape="http://www.inkscape.org/namespaces/inkscape"
   width="345.00015mm"
   height="216.71211mm"
   viewBox="0 0 345.00015 216.71211"
   version="1.1"
   id="svg4827"
   inkscape:version="0.92.3 (2405546, 2018-03-11)"
   sodipodi:docname="produce.svg">
  <defs
     id="defs4821">
    <clipPath
       id="clip20">
      <rect
         x="0"
         y="0"
         width="30"
         height="217"
         id="rect198" />
    </clipPath>
    <clipPath
       id="clip21">
      <path
         inkscape:connector-curvature="0"
         d="M 0.71875,0.480469 H 29.410156 V 216.10156 H 0.71875 Z m 0,0"
         id="path195" />
    </clipPath>
    <mask
       id="mask9">
      <g
         style="filter:url(#alpha)"
         id="g192"
         transform="matrix(0.26458333,0,0,0.26458333,162.30586,215.85871)">
        <rect
           x="0"
           y="0"
           width="8520.9404"
           height="2851.6499"
           style="fill:#000000;fill-opacity:0.60000598;stroke:none"
           id="rect190" />
      </g>
    </mask>
    <filter
       id="alpha"
       filterUnits="objectBoundingBox"
       x="0"
       y="0"
       width="1"
       height="1">
      <feColorMatrix
         type="matrix"
         in="SourceGraphic"
         values="0 0 0 0 1 0 0 0 0 1 0 0 0 0 1 0 0 0 1 0"
         id="feColorMatrix43" />
    </filter>
    <clipPath
       id="clipPath5769">
      <rect
         x="0"
         y="0"
         width="30"
         height="217"
         id="rect5767" />
    </clipPath>
    <clipPath
       id="clipPath5773">
      <path
         inkscape:connector-curvature="0"
         d="M 0.71875,0.480469 H 29.410156 V 216.10156 H 0.71875 Z m 0,0"
         id="path5771" />
    </clipPath>
    <clipPath
       id="clip18">
      <rect
         x="0"
         y="0"
         width="48"
         height="56"
         id="rect182" />
    </clipPath>
    <clipPath
       id="clip19">
      <path
         inkscape:connector-curvature="0"
         d="M 0.480469,0.621094 H 47.101563 V 55.28125 H 0.480469 Z m 0,0"
         id="path179" />
    </clipPath>
    <mask
       id="mask8">
      <g
         style="filter:url(#alpha)"
         id="g176"
         transform="matrix(0.26458333,0,0,0.26458333,162.30586,215.85871)">
        <rect
           x="0"
           y="0"
           width="8520.9404"
           height="2851.6499"
           style="fill:#000000;fill-opacity:0.69999701;stroke:none"
           id="rect174" />
      </g>
    </mask>
    <filter
       id="filter5784"
       filterUnits="objectBoundingBox"
       x="0"
       y="0"
       width="1"
       height="1">
      <feColorMatrix
         type="matrix"
         in="SourceGraphic"
         values="0 0 0 0 1 0 0 0 0 1 0 0 0 0 1 0 0 0 1 0"
         id="feColorMatrix5782" />
    </filter>
    <clipPath
       id="clipPath5788">
      <rect
         x="0"
         y="0"
         width="48"
         height="56"
         id="rect5786" />
    </clipPath>
    <clipPath
       id="clipPath5792">
      <path
         inkscape:connector-curvature="0"
         d="M 0.480469,0.621094 H 47.101563 V 55.28125 H 0.480469 Z m 0,0"
         id="path5790" />
    </clipPath>
    <clipPath
       id="clip16">
      <rect
         x="0"
         y="0"
         width="36"
         height="42"
         id="rect166" />
    </clipPath>
    <clipPath
       id="clip17">
      <path
         inkscape:connector-curvature="0"
         d="M 0.511719,0.488281 H 35.660156 V 41.691406 H 0.511719 Z m 0,0"
         id="path163" />
    </clipPath>
    <mask
       id="mask7">
      <g
         style="filter:url(#alpha)"
         id="g160"
         transform="matrix(0.26458333,0,0,0.26458333,162.30586,215.85871)">
        <rect
           x="0"
           y="0"
           width="8520.9404"
           height="2851.6499"
           style="fill:#000000;fill-opacity:0.69999701;stroke:none"
           id="rect158" />
      </g>
    </mask>
    <filter
       id="filter5803"
       filterUnits="objectBoundingBox"
       x="0"
       y="0"
       width="1"
       height="1">
      <feColorMatrix
         type="matrix"
         in="SourceGraphic"
         values="0 0 0 0 1 0 0 0 0 1 0 0 0 0 1 0 0 0 1 0"
         id="feColorMatrix5801" />
    </filter>
    <clipPath
       id="clipPath5807">
      <rect
         x="0"
         y="0"
         width="36"
         height="42"
         id="rect5805" />
    </clipPath>
    <clipPath
       id="clipPath5811">
      <path
         inkscape:connector-curvature="0"
         d="M 0.511719,0.488281 H 35.660156 V 41.691406 H 0.511719 Z m 0,0"
         id="path5809" />
    </clipPath>
  </defs>
  <sodipodi:namedview
     id="base"
     pagecolor="#ffffff"
     bordercolor="#666666"
     borderopacity="1.0"
     inkscape:pageopacity="0.0"
     inkscape:pageshadow="2"
     inkscape:zoom="0.175"
     inkscape:cx="45.621634"
     inkscape:cy="-519.30621"
     inkscape:document-units="mm"
     inkscape:current-layer="layer1"
     showgrid="false"
     inkscape:window-width="1080"
     inkscape:window-height="1857"
     inkscape:window-x="1912"
     inkscape:window-y="-8"
     inkscape:window-maximized="1" />
  <metadata
     id="metadata4824">
    <rdf:RDF>
      <cc:Work
         rdf:about="">
        <dc:format>image/svg+xml</dc:format>
        <dc:type
           rdf:resource="http://purl.org/dc/dcmitype/StillImage" />
        <dc:title></dc:title>
      </cc:Work>
    </rdf:RDF>
  </metadata>
  <g
     inkscape:label="Layer 1"
     inkscape:groupmode="layer"
     id="layer1"
     transform="translate(-109.24627,206.74148)">
    <path
       inkscape:connector-curvature="0"
       id="path3160"
       d="m 111.08442,-117.60251 v 5.12523 l 2.55732,0.0303 c 1.03547,0 1.79158,-0.0939 2.27111,-0.28166 0.47953,-0.18775 0.8545,-0.49188 1.12939,-0.91292 0.27379,-0.41881 0.41095,-0.88935 0.41095,-1.40935 0,-0.50538 -0.13716,-0.96805 -0.41095,-1.38909 -0.27489,-0.41995 -0.63469,-0.71903 -1.08271,-0.89556 -0.44976,-0.17876 -1.18223,-0.26702 -2.20257,-0.26702 z m -1.50827,-1.47962 h 3.00983 c 1.72526,0 2.88894,0.0764 3.49102,0.22599 0.86293,0.21195 1.56789,0.64989 2.11656,1.31099 0.54811,0.65998 0.82243,1.49028 0.82243,2.4898 0,1.00683 -0.26814,1.83547 -0.80221,2.4915 -0.53347,0.65324 -1.2688,1.09343 -2.20931,1.31829 -0.68471,0.16581 -1.96529,0.24677 -3.839,0.24677 h -1.08105 v 7.02593 h -1.50827 z m 0,0"
       style="fill:#bdbaba;fill-opacity:1;fill-rule:nonzero;stroke:none;stroke-width:0.14391367" />
    <path
       inkscape:connector-curvature="0"
       id="path3162"
       d="m 122.04438,-119.08213 h 8.65953 v 1.47962 h -7.14957 v 4.73566 h 7.0872 v 1.47849 h -7.0872 v 5.93587 h 7.0872 v 1.47963 h -8.59716 z m 0,0"
       style="fill:#bdbaba;fill-opacity:1;fill-rule:nonzero;stroke:none;stroke-width:0.14391367" />
    <path
       inkscape:connector-curvature="0"
       id="path3164"
       d="m 134.90384,-117.60251 v 5.13479 l 2.60283,0.0219 c 1.00965,0 1.75281,-0.0967 2.23738,-0.28896 0.48401,-0.1917 0.8618,-0.49809 1.13221,-0.918 0.27153,-0.42164 0.407,-0.89274 0.407,-1.41386 0,-0.50592 -0.13716,-0.96689 -0.41205,-1.38123 -0.27435,-0.41431 -0.63415,-0.70944 -1.08049,-0.88766 -0.44524,-0.17875 -1.18671,-0.26702 -2.22221,-0.26702 z m -1.50996,-1.47962 h 3.00926 c 1.67806,0 2.81474,0.0703 3.40949,0.20578 0.89779,0.20574 1.62747,0.64703 2.18909,1.32221 0.56159,0.67458 0.84099,1.50657 0.84099,2.49432 0,0.82243 -0.19283,1.54537 -0.57792,2.1688 -0.38901,0.62456 -0.9416,1.09622 -1.66063,1.41439 -0.71843,0.31877 -1.71065,0.48179 -2.9772,0.48853 l 5.43331,7.01524 h -1.86694 l -5.435,-7.01524 h -0.85449 v 7.01524 h -1.50996 z m 0,0"
       style="fill:#bdbaba;fill-opacity:1;fill-rule:nonzero;stroke:none;stroke-width:0.14391367" />
    <path
       inkscape:connector-curvature="0"
       id="path3166"
       d="m 147.52891,-105.40133 h 1.74663 c 2.08563,0 3.53487,-0.12986 4.34383,-0.38958 1.13612,-0.36988 2.02886,-1.03437 2.67927,-1.9951 0.65042,-0.96184 0.97702,-2.13734 0.97702,-3.527 0,-1.45658 -0.35246,-2.70178 -1.05798,-3.7339 -0.70778,-1.03325 -1.68818,-1.74269 -2.94855,-2.12553 -0.94499,-0.2867 -2.50275,-0.43007 -4.67155,-0.43007 h -1.06867 z m -1.44929,1.42847 v -15.10927 h 3.13295 c 2.25933,0 3.89862,0.18048 4.92005,0.54363 1.46442,0.51552 2.60954,1.40371 3.43592,2.67081 0.82472,1.26714 1.2362,2.77767 1.2362,4.52992 0,1.51447 -0.32604,2.84568 -0.97984,3.99475 -0.65437,1.15242 -1.50322,2.00071 -2.54772,2.54938 -1.04451,0.54646 -2.50667,0.82078 -4.39106,0.82078 z m 0,0"
       style="fill:#bdbaba;fill-opacity:1;fill-rule:nonzero;stroke:none;stroke-width:0.14391367" />
    <path
       inkscape:connector-curvature="0"
       id="path3168"
       d="m 161.51718,-119.08156 h 1.50996 v 15.1087 h -1.50996 z m 0,0"
       style="fill:#bdbaba;fill-opacity:1;fill-rule:nonzero;stroke:none;stroke-width:0.14391367" />
    <path
       inkscape:connector-curvature="0"
       id="path3170"
       d="m 168.08043,-117.60251 v 5.13479 l 2.60283,0.0219 c 1.0074,0 1.75451,-0.0967 2.23852,-0.28896 0.48458,-0.1917 0.86011,-0.49809 1.12995,-0.918 0.2721,-0.42164 0.40756,-0.89274 0.40756,-1.41386 0,-0.50592 -0.13659,-0.96689 -0.41151,-1.38123 -0.27432,-0.41431 -0.63465,-0.70944 -1.07989,-0.88766 -0.44637,-0.17875 -1.18674,-0.26702 -2.22113,-0.26702 z m -1.50882,-1.47962 h 3.00982 c 1.67637,0 2.81305,0.0703 3.4095,0.20578 0.89496,0.20574 1.62464,0.64703 2.18683,1.32221 0.56215,0.67458 0.84381,1.50657 0.84381,2.49432 0,0.82243 -0.1934,1.54537 -0.58131,2.1688 -0.38618,0.62456 -0.93825,1.09622 -1.6595,1.41439 -0.71787,0.31877 -1.71235,0.48179 -2.97776,0.48853 l 5.43331,7.01524 h -1.86807 l -5.43274,-7.01524 h -0.85507 v 7.01524 h -1.50882 z m 0,0"
       style="fill:#bdbaba;fill-opacity:1;fill-rule:nonzero;stroke:none;stroke-width:0.14391367" />
    <path
       inkscape:connector-curvature="0"
       id="path3172"
       d="m 180.77631,-111.24556 v 5.79307 h 1.87088 c 1.10635,0 1.91587,-0.10735 2.42969,-0.32381 0.51495,-0.21586 0.92756,-0.55203 1.23956,-1.01074 0.31312,-0.45816 0.46884,-0.95512 0.46884,-1.48919 0,-0.67179 -0.22091,-1.25585 -0.65829,-1.75789 -0.43906,-0.49805 -1.04281,-0.84099 -1.8096,-1.02591 -0.51552,-0.12259 -1.41048,-0.18553 -2.68658,-0.18553 z m 0,-6.35695 v 4.83743 h 0.86406 c 1.05011,0 1.82086,-0.0967 2.31669,-0.29347 0.49413,-0.19505 0.88484,-0.50314 1.17263,-0.92361 0.28783,-0.42107 0.43289,-0.88766 0.43289,-1.40148 0,-0.69257 -0.24115,-1.23451 -0.72576,-1.62747 -0.48402,-0.39575 -1.25473,-0.5914 -2.31105,-0.5914 z m -1.47846,-1.47962 h 2.97833 c 1.19852,0 2.11822,0.14224 2.76302,0.42725 0.64199,0.28392 1.1502,0.72069 1.52404,1.30874 0.37384,0.5897 0.56046,1.24294 0.56046,1.9625 0,0.6701 -0.16471,1.28231 -0.48906,1.83208 -0.32889,0.55206 -0.80895,0.9984 -1.44254,1.34133 0.78648,0.26815 1.38913,0.58015 1.81299,0.93825 0.4233,0.36202 0.7516,0.79657 0.98715,1.30535 0.23498,0.511 0.35418,1.06472 0.35418,1.6595 0,1.212 -0.44411,2.23739 -1.33007,3.07615 -0.88766,0.83873 -2.07776,1.25812 -3.56976,1.25812 h -4.14874 z m 0,0"
       style="fill:#bdbaba;fill-opacity:1;fill-rule:nonzero;stroke:none;stroke-width:0.14391367" />
    <path
       inkscape:connector-curvature="0"
       id="path3174"
       d="m 197.31739,-115.87217 -2.58875,5.46873 h 5.16572 z m 0.19004,-3.20996 7.0467,15.10983 h -1.63195 l -2.37571,-4.9729 h -6.50815 l -2.35381,4.9729 h -1.68366 l 7.13722,-15.10983 z m 0,0"
       style="fill:#bdbaba;fill-opacity:1;fill-rule:nonzero;stroke:none;stroke-width:0.14391367" />
    <path
       inkscape:connector-curvature="0"
       id="path3176"
       d="m 206.20859,-103.97286 2.16316,-15.10927 h 0.24402 l 6.14387,12.39739 6.08203,-12.39739 h 0.24398 l 2.17276,15.10927 h -1.48075 l -1.49197,-10.80591 -5.34335,10.80591 h -0.38452 l -5.40519,-10.88796 -1.4858,10.88796 z m 0,0"
       style="fill:#bdbaba;fill-opacity:1;fill-rule:nonzero;stroke:none;stroke-width:0.14391367" />
    <path
       inkscape:connector-curvature="0"
       id="path3178"
       d="m 226.23617,-119.08213 h 8.66013 v 1.47962 h -7.14904 v 4.73566 h 7.08607 v 1.47849 h -7.08607 v 5.93587 h 7.08607 v 1.47963 h -8.59716 z m 0,0"
       style="fill:#bdbaba;fill-opacity:1;fill-rule:nonzero;stroke:none;stroke-width:0.14391367" />
    <path
       inkscape:connector-curvature="0"
       id="path3180"
       d="m 203.85143,-89.367341 v -7.6049 h 0.16528 l 5.06169,5.82962 v -5.82962 h 0.74881 v 7.6049 h -0.17033 l -5.01956,-5.75878 v 5.75878 z m 0,0"
       style="fill:#bdbaba;fill-opacity:1;fill-rule:nonzero;stroke:none;stroke-width:0.14391367" />
    <path
       inkscape:connector-curvature="0"
       id="path3182"
       d="m 211.70427,-96.972241 h 0.75949 v 4.59059 c 0,0.54533 0.0113,0.88431 0.0314,1.01922 0.0382,0.29964 0.12594,0.55036 0.26423,0.75219 0.13716,0.20126 0.34967,0.37045 0.63525,0.50592 0.28613,0.13606 0.57453,0.20464 0.86346,0.20464 0.25184,0 0.49304,-0.0534 0.72407,-0.16023 0.23104,-0.10678 0.4233,-0.2552 0.57905,-0.44464 0.15459,-0.18948 0.26871,-0.41882 0.34064,-0.68753 0.0523,-0.19283 0.0776,-0.58974 0.0776,-1.18957 v -4.59059 h 0.76062 v 4.59059 c 0,0.67967 -0.0669,1.22834 -0.19956,1.64716 -0.13268,0.41825 -0.39804,0.78309 -0.79605,1.0934 -0.398,0.30974 -0.87979,0.46492 -1.44476,0.46492 -0.61387,0 -1.13891,-0.14619 -1.57685,-0.43906 -0.4385,-0.29288 -0.73138,-0.68079 -0.87866,-1.16311 -0.0933,-0.29626 -0.13998,-0.83086 -0.13998,-1.60331 z m 0,0"
       style="fill:#bdbaba;fill-opacity:1;fill-rule:nonzero;stroke:none;stroke-width:0.14391367" />
    <path
       inkscape:connector-curvature="0"
       id="path3184"
       d="m 222.26619,-96.424131 c -0.56215,0 -1.09622,0.14672 -1.59992,0.4396 -0.5037,0.29344 -0.89779,0.68809 -1.18054,1.18502 -0.28275,0.49643 -0.42442,1.05071 -0.42442,1.66066 0,0.90396 0.31312,1.66737 0.93994,2.28967 0.62569,0.6229 1.38179,0.93433 2.26494,0.93433 0.59083,0 1.13668,-0.14337 1.63925,-0.43007 0.50204,-0.28614 0.89387,-0.6774 1.17493,-1.17436 0.28222,-0.49696 0.4222,-1.04842 0.4222,-1.65555 0,-0.60378 -0.13998,-1.14963 -0.4222,-1.6376 -0.28106,-0.48796 -0.67741,-0.87866 -1.18841,-1.1721 -0.51043,-0.29288 -1.05237,-0.4396 -1.62577,-0.4396 m -0.0332,-0.73981 c 1.15185,0 2.11543,0.3845 2.89119,1.15355 0.77635,0.76846 1.16423,1.71457 1.16423,2.83778 0,1.11365 -0.38731,2.05811 -1.16198,2.8333 -0.77353,0.77523 -1.71795,1.16314 -2.8316,1.16314 -1.12826,0 -2.07945,-0.38565 -2.85581,-1.15806 -0.77576,-0.77184 -1.16367,-1.70617 -1.16367,-2.80183 0,-0.73082 0.17653,-1.40766 0.53012,-2.03165 0.35362,-0.62399 0.83594,-1.11252 1.44589,-1.46611 0.61052,-0.35306 1.27103,-0.53012 1.98163,-0.53012"
       style="fill:#bdbaba;fill-opacity:1;fill-rule:nonzero;stroke:none;stroke-width:0.14391367" />
    <path
       inkscape:connector-curvature="0"
       id="path3186"
       d="m 204.75087,-84.379801 h -0.72068 c 0.0201,-0.7415 0.26871,-1.35033 0.74372,-1.82647 0.47618,-0.47615 1.06253,-0.71452 1.76128,-0.71452 0.69144,0 1.25194,0.22374 1.67919,0.67011 0.42777,0.44693 0.64198,0.97366 0.64198,1.58079 0,0.42612 -0.1023,0.82582 -0.30639,1.19909 -0.20348,0.37328 -0.59982,0.87867 -1.18783,1.51674 l -1.87258,2.017 h 3.46854 v 0.72577 h -5.10667 l 2.87264,-3.10483 c 0.58296,-0.62456 0.96185,-1.08722 1.13725,-1.3891 0.17596,-0.30243 0.26366,-0.62004 0.26366,-0.95398 0,-0.4233 -0.15741,-0.78761 -0.47279,-1.09283 -0.31482,-0.30526 -0.70157,-0.45763 -1.15803,-0.45763 -0.48066,0 -0.87979,0.16023 -1.19856,0.4801 -0.31873,0.32043 -0.49975,0.77015 -0.54473,1.34976"
       style="fill:#bdbaba;fill-opacity:1;fill-rule:nonzero;stroke:none;stroke-width:0.14391367" />
    <path
       inkscape:connector-curvature="0"
       id="path3188"
       d="m 210.38488,-82.955851 c 0,0.84942 0.0754,1.49141 0.22712,1.92596 0.15176,0.43511 0.37609,0.7651 0.67179,0.98996 0.29679,0.22543 0.61048,0.33786 0.94103,0.33786 0.33451,0 0.64594,-0.11017 0.93547,-0.32995 0.29005,-0.21982 0.50987,-0.54981 0.65941,-0.99001 0.18775,-0.53572 0.28162,-1.17997 0.28162,-1.93382 0,-0.75723 -0.0838,-1.37731 -0.25072,-1.85963 -0.16693,-0.48288 -0.398,-0.83594 -0.69257,-1.05911 -0.29514,-0.22373 -0.606,-0.33507 -0.93321,-0.33507 -0.3339,0 -0.64759,0.11134 -0.94103,0.33507 -0.29235,0.22317 -0.51608,0.55203 -0.66897,0.98714 -0.15406,0.43512 -0.22994,1.0788 -0.22994,1.9316 m -0.71057,-0.013 c 0,-0.99166 0.10626,-1.75846 0.3193,-2.30036 0.21304,-0.54194 0.51326,-0.95289 0.90227,-1.23225 0.38791,-0.2794 0.82303,-0.41938 1.30365,-0.41938 0.4874,0 0.92812,0.14054 1.32447,0.4216 0.39462,0.28166 0.70722,0.70383 0.93768,1.26545 0.22994,0.56272 0.34516,1.31713 0.34516,2.26494 0,0.94386 -0.11356,1.69548 -0.34011,2.25428 -0.22652,0.55933 -0.53912,0.98097 -0.93768,1.26542 -0.3997,0.28444 -0.84212,0.42725 -1.32952,0.42725 -0.48062,0 -0.91352,-0.13829 -1.29857,-0.41434 -0.3851,-0.27601 -0.68587,-0.68749 -0.9023,-1.23448 -0.21643,-0.54701 -0.32435,-1.31321 -0.32435,-2.29813"
       style="fill:#bdbaba;fill-opacity:1;fill-rule:nonzero;stroke:none;stroke-width:0.14391367" />
    <path
       inkscape:connector-curvature="0"
       id="path3190"
       d="m 217.08138,-86.731341 h 1.47792 v 7.52005 h -0.74711 v -6.78416 h -1.18057 z m 0,0"
       style="fill:#bdbaba;fill-opacity:1;fill-rule:nonzero;stroke:none;stroke-width:0.14391367" />
    <path
       inkscape:connector-curvature="0"
       id="path3192"
       d="m 226.09397,-86.731341 v 0.7162 h -2.67198 l -0.37609,2.05021 c 0.32663,-0.0956 0.6212,-0.1439 0.88374,-0.1439 0.68414,0 1.24799,0.22934 1.69266,0.68749 0.44411,0.45875 0.66615,1.04564 0.66615,1.76128 0,0.49414 -0.11465,0.94781 -0.34233,1.35985 -0.22881,0.41265 -0.53802,0.72856 -0.9276,0.94838 -0.3907,0.21981 -0.84155,0.32999 -1.35255,0.32999 -0.61051,0 -1.12486,-0.18719 -1.54368,-0.5599 -0.41938,-0.37331 -0.6701,-0.85619 -0.75163,-1.44981 h 0.77184 c 0.0585,0.29005 0.15628,0.52504 0.29401,0.70548 0.13772,0.18102 0.32212,0.32664 0.55206,0.43738 0.22938,0.11074 0.4711,0.1664 0.72351,0.1664 0.49414,0 0.918,-0.18778 1.27272,-0.56162 0.35475,-0.3744 0.53238,-0.84268 0.53238,-1.40426 0,-0.50709 -0.16133,-0.91857 -0.48123,-1.23508 -0.32043,-0.31648 -0.74768,-0.47501 -1.2834,-0.47501 -0.44299,0 -0.97928,0.1349 -1.61005,0.40417 l 0.6954,-3.73725 z m 0,0"
       style="fill:#bdbaba;fill-opacity:1;fill-rule:nonzero;stroke:none;stroke-width:0.14391367" />
    <path
       inkscape:connector-curvature="0"
       id="path3194"
       d="m 203.85143,-123.20275 1.25811,-8.78664 h 0.14281 l 3.57198,7.20976 3.53822,-7.20976 h 0.14055 l 1.26488,8.78664 h -0.86123 l -0.86798,-6.28389 -3.10709,6.28389 h -0.22486 l -3.1436,-6.33165 -0.8635,6.33165 z m 0,0"
       style="fill:#bdbaba;fill-opacity:1;fill-rule:nonzero;stroke:none;stroke-width:0.14391367" />
    <path
       inkscape:connector-curvature="0"
       id="path3196"
       d="m 215.50054,-131.98939 h 5.03531 v 0.86011 h -4.15777 v 2.7535 h 4.12178 v 0.86064 h -4.12178 v 3.45225 h 4.12178 v 0.86067 h -4.99932 z m 0,0"
       style="fill:#bdbaba;fill-opacity:1;fill-rule:nonzero;stroke:none;stroke-width:0.14391367" />
    <path
       inkscape:connector-curvature="0"
       id="path3198"
       d="m 221.14524,-124.83921 0.74654,-0.44807 c 0.52564,0.9675 1.13277,1.45151 1.82196,1.45151 0.2946,0 0.57175,-0.0686 0.83033,-0.20574 0.25915,-0.13773 0.45646,-0.32156 0.5914,-0.55259 0.13547,-0.23107 0.20295,-0.47618 0.20295,-0.73477 0,-0.29457 -0.099,-0.58353 -0.29852,-0.86628 -0.27488,-0.39014 -0.77636,-0.86011 -1.50548,-1.40991 -0.73247,-0.55316 -1.1884,-0.95342 -1.36775,-1.20079 -0.31031,-0.41374 -0.46602,-0.8618 -0.46602,-1.34412 0,-0.38227 0.0916,-0.73025 0.27492,-1.04506 0.18323,-0.31482 0.44072,-0.56272 0.77354,-0.74377 0.33221,-0.18101 0.6937,-0.27206 1.0844,-0.27206 0.41374,0 0.80105,0.10287 1.16198,0.30805 0.36036,0.20521 0.7415,0.5824 1.14346,1.13164 l -0.71678,0.54419 c -0.33055,-0.4385 -0.61221,-0.7269 -0.84494,-0.86631 -0.23329,-0.13942 -0.48683,-0.20913 -0.76171,-0.20913 -0.35472,0 -0.64425,0.10739 -0.86911,0.32268 -0.22486,0.21478 -0.33785,0.47954 -0.33785,0.79436 0,0.19113 0.0399,0.37606 0.11973,0.55541 0.0798,0.17931 0.22486,0.3744 0.43568,0.58519 0.11582,0.1119 0.49414,0.40477 1.13556,0.87813 0.76006,0.56159 1.28231,1.06137 1.5645,1.49927 0.28335,0.43847 0.42442,0.87866 0.42442,1.32052 0,0.63694 -0.24172,1.19066 -0.72573,1.66063 -0.48401,0.46997 -1.07206,0.70495 -1.7652,0.70495 -0.5335,0 -1.01751,-0.1428 -1.4515,-0.42724 -0.43455,-0.28445 -0.83481,-0.76172 -1.20078,-1.43069"
       style="fill:#bdbaba;fill-opacity:1;fill-rule:nonzero;stroke:none;stroke-width:0.14391367" />
    <path
       inkscape:connector-curvature="0"
       id="path3200"
       d="m 148.84829,-193.61367 c 0.0433,0 0.0781,0 0.11243,0.005 0.29458,-0.35525 0.68697,-0.5363 0.95007,-0.63299 0.22765,-1.06698 1.17433,-1.86807 2.31105,-1.86807 0.97871,0 1.81522,0.59309 2.1778,1.43803 0.13942,0.0596 0.26141,0.13212 0.37666,0.21417 0.3356,-0.18944 0.7263,-0.30243 1.13951,-0.30243 1.2615,0 2.2891,1.02764 2.2891,2.29305 0,1.26489 -1.00118,2.29083 -2.2891,2.29083 -1.28679,0 -6.13883,-0.005 -7.14343,-0.005 -1.00232,0 -1.63756,-0.79096 -1.63756,-1.71517 0,-0.94834 0.77353,-1.71739 1.71347,-1.71739"
       style="fill:#a6a3a6;fill-opacity:1;fill-rule:nonzero;stroke:none;stroke-width:0.14391367" />
    <g
       transform="matrix(0.03807716,0,0,0.03807716,170.41925,-165.11268)"
       clip-path="url(#clip16)"
       id="use3202">
      <g
         style="clip-rule:nonzero"
         id="g6161"
         clip-path="url(#clip17)">
        <path
           inkscape:connector-curvature="0"
           id="path6159"
           d="m 35.660156,0.484375 c -7.769531,0.089844 -14.277343,5.605469 -15.859375,12.964844 -1.828125,0.671875 -4.554687,1.933594 -6.601562,4.398437 -0.238281,-0.01953 -0.480469,-0.03125 -0.78125,-0.03125 -6.53125,0 -11.90625,5.34375 -11.90625,11.933594 0,6.417969 4.414062,11.917969 11.378906,11.917969 3.457031,0 13.480469,0 23.769531,0.01563 z m 0,0"
           style="fill:#a6a3a6;fill-opacity:1;fill-rule:nonzero;stroke:none" />
      </g>
    </g>
    <path
       inkscape:connector-curvature="0"
       id="path3204"
       d="m 155.88431,-203.42904 c 0.0467,0 0.0961,0.004 0.14562,0.006 0.38958,-0.47223 0.91461,-0.71169 1.25868,-0.83986 0.30187,-1.41555 1.55998,-2.47858 3.06659,-2.47858 1.29801,0 2.41223,0.78701 2.88893,1.90966 0.17992,0.0793 0.35306,0.1737 0.50317,0.28218 0.44746,-0.2535 0.96241,-0.39913 1.50657,-0.39913 1.67637,0 3.03964,1.36045 3.03964,3.03851 0,1.68028 -1.32616,3.04017 -3.03964,3.04017 -1.70896,0 -8.14627,-0.005 -9.47469,-0.005 -1.32669,0 -2.17272,-1.05124 -2.17272,-2.27506 0,-1.25868 1.02256,-2.27954 2.27785,-2.27954"
       style="fill:#bdbaba;fill-opacity:1;fill-rule:nonzero;stroke:none;stroke-width:0.14391367" />
    <g
       transform="matrix(0.03807716,0,0,0.03807716,176.89535,-175.76232)"
       clip-path="url(#clip18)"
       id="use3206">
      <g
         style="clip-rule:nonzero"
         id="g6155"
         clip-path="url(#clip19)">
        <path
           inkscape:connector-curvature="0"
           id="path6153"
           d="M 47.097656,0.617188 C 36.75,0.753906 28.164063,8.058594 26.066406,17.820313 23.675781,18.710938 20.027344,20.375 17.320313,23.65625 c -0.34375,-0.01563 -0.6875,-0.04297 -1.011719,-0.04297 -8.722656,0 -15.828125,7.09375 -15.828125,15.839844 0,8.503906 5.878906,15.808594 15.097656,15.808594 4.558594,0 17.84375,0.01563 31.519531,0.01563 z m 0,0"
           style="fill:#bdbaba;fill-opacity:1;fill-rule:nonzero;stroke:none" />
      </g>
    </g>
    <path
       inkscape:connector-curvature="0"
       id="path3208"
       d="m 154.28778,-151.98215 h -10.72099 l 2.14408,-31.03079 h 6.43226 z m 0,0"
       style="fill:#a6a3a6;fill-opacity:1;fill-rule:nonzero;stroke:none;stroke-width:0.14391367" />
    <g
       transform="matrix(0.03807716,0,0,0.03807716,166.82139,-152.01655)"
       clip-path="url(#clip20)"
       id="use3210">
      <g
         style="clip-rule:nonzero"
         id="g6167"
         clip-path="url(#clip21)">
        <path
           inkscape:connector-curvature="0"
           id="path6165"
           d="M 29.414063,0.476563 H 15.617188 L 0.71875,216.09766 h 28.695313 z m 0,0"
           style="fill:#8f8f8f;fill-opacity:1;fill-rule:nonzero;stroke:none" />
      </g>
    </g>
    <path
       inkscape:connector-curvature="0"
       id="path3212"
       d="m 158.88175,-123.19488 h -49.3056 v -31.84652 h 49.3056 z m 0,0"
       style="fill:#7a7878;fill-opacity:1;fill-rule:nonzero;stroke:none;stroke-width:0.14391367" />
    <path
       inkscape:connector-curvature="0"
       id="path3214"
       d="m 118.91482,-154.62262 h -8.42063 v -8.41837 z m 0,0"
       style="fill:#a6a3a6;fill-opacity:1;fill-rule:nonzero;stroke:none;stroke-width:0.14391367" />
    <path
       inkscape:connector-curvature="0"
       id="path3216"
       d="m 129.59308,-154.62262 h -8.4195 v -8.41837 z m 0,0"
       style="fill:#a6a3a6;fill-opacity:1;fill-rule:nonzero;stroke:none;stroke-width:0.14391367" />
    <path
       inkscape:connector-curvature="0"
       id="path3218"
       d="m 140.27082,-154.62262 h -8.41671 v -8.41837 z m 0,0"
       style="fill:#a6a3a6;fill-opacity:1;fill-rule:nonzero;stroke:none;stroke-width:0.14391367" />
    <path
       inkscape:connector-curvature="0"
       id="path3220"
       d="m 139.20607,-139.27276 h 15.8485 v 16.07844 h -15.8485 z m 0,0"
       style="fill:#8f8f8f;fill-opacity:1;fill-rule:nonzero;stroke:none;stroke-width:0.14391367" />
    <path
       inkscape:connector-curvature="0"
       id="path3222"
       d="m 113.12623,-147.25376 h 3.64278 v 3.69058 h -3.64278 z m 0,0"
       style="fill:#a6a3a6;fill-opacity:1;fill-rule:nonzero;stroke:none;stroke-width:0.14391367" />
    <path
       inkscape:connector-curvature="0"
       id="path3224"
       d="m 118.79113,-147.25376 h 3.63834 v 3.69058 h -3.63834 z m 0,0"
       style="fill:#a6a3a6;fill-opacity:1;fill-rule:nonzero;stroke:none;stroke-width:0.14391367" />
    <path
       inkscape:connector-curvature="0"
       id="path3226"
       d="m 124.45886,-147.25376 h 3.63382 v 3.69058 h -3.63382 z m 0,0"
       style="fill:#a6a3a6;fill-opacity:1;fill-rule:nonzero;stroke:none;stroke-width:0.14391367" />
    <path
       inkscape:connector-curvature="0"
       id="path3228"
       d="m 130.12151,-147.25376 h 3.63664 v 3.69058 h -3.63664 z m 0,0"
       style="fill:#a6a3a6;fill-opacity:1;fill-rule:nonzero;stroke:none;stroke-width:0.14391367" />
    <path
       inkscape:connector-curvature="0"
       id="path3230"
       d="m 113.12623,-141.84296 h 3.64278 v 3.69005 h -3.64278 z m 0,0"
       style="fill:#a6a3a6;fill-opacity:1;fill-rule:nonzero;stroke:none;stroke-width:0.14391367" />
    <path
       inkscape:connector-curvature="0"
       id="path3232"
       d="m 118.79113,-141.84296 h 3.63834 v 3.69005 h -3.63834 z m 0,0"
       style="fill:#a6a3a6;fill-opacity:1;fill-rule:nonzero;stroke:none;stroke-width:0.14391367" />
    <path
       inkscape:connector-curvature="0"
       id="path3234"
       d="m 124.45886,-141.84296 h 3.63382 v 3.69005 h -3.63382 z m 0,0"
       style="fill:#a6a3a6;fill-opacity:1;fill-rule:nonzero;stroke:none;stroke-width:0.14391367" />
    <path
       inkscape:connector-curvature="0"
       id="path3236"
       d="m 130.12151,-141.84296 h 3.63664 v 3.69005 h -3.63664 z m 0,0"
       style="fill:#a6a3a6;fill-opacity:1;fill-rule:nonzero;stroke:none;stroke-width:0.14391367" />
    <path
       inkscape:connector-curvature="0"
       id="path3238"
       d="m 113.12623,-136.43326 h 3.64278 v 3.69172 h -3.64278 z m 0,0"
       style="fill:#a6a3a6;fill-opacity:1;fill-rule:nonzero;stroke:none;stroke-width:0.14391367" />
    <path
       inkscape:connector-curvature="0"
       id="path3240"
       d="m 118.79113,-136.43326 h 3.63834 v 3.69172 h -3.63834 z m 0,0"
       style="fill:#a6a3a6;fill-opacity:1;fill-rule:nonzero;stroke:none;stroke-width:0.14391367" />
    <path
       inkscape:connector-curvature="0"
       id="path3242"
       d="m 124.45886,-136.43326 h 3.63382 v 3.69172 h -3.63382 z m 0,0"
       style="fill:#a6a3a6;fill-opacity:1;fill-rule:nonzero;stroke:none;stroke-width:0.14391367" />
    <path
       inkscape:connector-curvature="0"
       id="path3244"
       d="m 130.12151,-136.43326 h 3.63664 v 3.69172 h -3.63664 z m 0,0"
       style="fill:#a6a3a6;fill-opacity:1;fill-rule:nonzero;stroke:none;stroke-width:0.14391367" />
    <path
       inkscape:connector-curvature="0"
       id="path3246"
       d="m 113.12623,-131.02189 h 3.64278 v 3.69115 h -3.64278 z m 0,0"
       style="fill:#a6a3a6;fill-opacity:1;fill-rule:nonzero;stroke:none;stroke-width:0.14391367" />
    <path
       inkscape:connector-curvature="0"
       id="path3248"
       d="m 118.79113,-131.02189 h 3.63834 v 3.69115 h -3.63834 z m 0,0"
       style="fill:#a6a3a6;fill-opacity:1;fill-rule:nonzero;stroke:none;stroke-width:0.14391367" />
    <path
       inkscape:connector-curvature="0"
       id="path3250"
       d="m 124.45886,-131.02189 h 3.63382 v 3.69115 h -3.63382 z m 0,0"
       style="fill:#a6a3a6;fill-opacity:1;fill-rule:nonzero;stroke:none;stroke-width:0.14391367" />
    <path
       inkscape:connector-curvature="0"
       id="path3252"
       d="m 130.12151,-131.02189 h 3.63664 v 3.69115 h -3.63664 z m 0,0"
       style="fill:#a6a3a6;fill-opacity:1;fill-rule:nonzero;stroke:none;stroke-width:0.14391367" />
    <g
       id="g4819"
       transform="matrix(0.3527778,0,0,0.3527778,-961.25384,-808.62958)">
      <path
         style="fill:#d1d1d1;fill-opacity:1;fill-rule:nonzero;stroke:none"
         d="m 3040.3477,2139.0625 v 19.8984 l 9.9296,0.1211 c 4.0118,0 6.9493,-0.3672 8.8086,-1.0976 1.8633,-0.7305 3.3243,-1.9102 4.3868,-3.543 1.0625,-1.6289 1.5937,-3.4531 1.5937,-5.4687 0,-1.9649 -0.5312,-3.7618 -1.5937,-5.3907 -1.0625,-1.6328 -2.4649,-2.7929 -4.2071,-3.4843 -1.7383,-0.6875 -4.5898,-1.0352 -8.5508,-1.0352 z m -5.8594,-5.7383 h 11.6797 c 6.6992,0 11.2187,0.293 13.5586,0.875 3.3476,0.8242 6.0859,2.5196 8.2109,5.086 2.1289,2.5625 3.1914,5.7851 3.1914,9.6679 0,3.9063 -1.0391,7.1289 -3.1094,9.668 -2.0742,2.5391 -4.9336,4.2461 -8.5742,5.1211 -2.6562,0.6406 -7.6289,0.957 -14.9101,0.957 h -4.1875 v 27.2696 h -5.8594 z m 0,0"
         id="path3358"
         inkscape:connector-curvature="0" />
      <path
         style="fill:#d1d1d1;fill-opacity:1;fill-rule:nonzero;stroke:none"
         d="M 3082.8906,2133.3242 H 3116.5 v 5.7383 h -27.75 v 18.3828 h 27.5117 v 5.7383 H 3088.75 v 23.0469 h 27.5117 v 5.7383 h -33.3711 z m 0,0"
         id="path3360"
         inkscape:connector-curvature="0" />
      <path
         style="fill:#d1d1d1;fill-opacity:1;fill-rule:nonzero;stroke:none"
         d="M 3132.8047,2139.0625 V 2159 l 10.1055,0.082 c 3.9101,0 6.8086,-0.375 8.6836,-1.1211 1.8789,-0.7421 3.3437,-1.9296 4.3945,-3.5664 1.0508,-1.6367 1.5742,-3.4609 1.5742,-5.4843 0,-1.9649 -0.5312,-3.7539 -1.5977,-5.3594 -1.0625,-1.6094 -2.4609,-2.7578 -4.1914,-3.4492 -1.7304,-0.6914 -4.6054,-1.0391 -8.625,-1.0391 z m -5.8594,-5.7383 h 11.6797 c 6.5117,0 10.9258,0.2656 13.2383,0.8008 3.4805,0.7969 6.3125,2.5039 8.4922,5.125 2.1797,2.625 3.2695,5.8516 3.2695,9.6797 0,3.1992 -0.75,6.0039 -2.2539,8.4258 -1.5,2.4218 -3.6484,4.25 -6.4375,5.4883 -2.793,1.2382 -6.6445,1.871 -11.5625,1.8945 l 21.0898,27.2305 h -7.25 l -21.0937,-27.2305 h -3.3125 v 27.2305 h -5.8594 z m 0,0"
         id="path3362"
         inkscape:connector-curvature="0" />
      <path
         style="fill:#d1d1d1;fill-opacity:1;fill-rule:nonzero;stroke:none"
         d="m 3196.1172,2191.9688 8.3984,-58.6446 h 0.9532 l 23.8398,48.125 23.6133,-48.125 h 0.9414 l 8.4375,58.6446 h -5.7461 l -5.7969,-41.9375 -20.7344,41.9375 h -1.5 l -20.9843,-42.2579 -5.7578,42.2579 z m 0,0"
         id="path3364"
         inkscape:connector-curvature="0" />
      <path
         style="fill:#d1d1d1;fill-opacity:1;fill-rule:nonzero;stroke:none"
         d="m 3273.8633,2133.3242 h 33.6094 v 5.7383 h -27.75 v 18.3828 h 27.5117 v 5.7383 h -27.5117 v 23.0469 h 27.5117 v 5.7383 h -33.3711 z m 0,0"
         id="path3366"
         inkscape:connector-curvature="0" />
      <path
         style="fill:#d1d1d1;fill-opacity:1;fill-rule:nonzero;stroke:none"
         d="m 3311.7773,2139.0625 v -5.7383 h 32.1368 v 5.7383 h -13.0743 v 52.9063 h -5.9804 v -52.9063 z m 0,0"
         id="path3368"
         inkscape:connector-curvature="0" />
      <path
         style="fill:#d1d1d1;fill-opacity:1;fill-rule:nonzero;stroke:none"
         d="m 3352.5664,2133.3242 h 5.8633 v 35.4024 c 0,4.2031 0.078,6.8164 0.2383,7.8554 0.2929,2.3125 0.9687,4.2461 2.0312,5.8008 1.0625,1.5547 2.6992,2.8555 4.9063,3.9063 2.2031,1.0507 4.4258,1.5742 6.6562,1.5742 1.9414,0 3.8008,-0.4102 5.5821,-1.2344 1.7812,-0.8242 3.2695,-1.9687 4.4648,-3.4297 1.1953,-1.4609 2.0742,-3.2304 2.6328,-5.3008 0.3984,-1.4882 0.5977,-4.5468 0.5977,-9.1718 v -35.4024 h 5.8593 v 35.4024 c 0,5.2382 -0.5117,9.4687 -1.5351,12.6992 -1.0235,3.2265 -3.0703,6.043 -6.1406,8.4297 -3.0664,2.3945 -6.7813,3.5898 -11.1407,3.5898 -4.7304,0 -8.7851,-1.1289 -12.1601,-3.3867 -3.375,-2.2617 -5.6367,-5.25 -6.7774,-8.9727 -0.7187,-2.2851 -1.0781,-6.4062 -1.0781,-12.3593 z m 0,0"
         id="path3370"
         inkscape:connector-curvature="0" />
      <path
         style="fill:#d1d1d1;fill-opacity:1;fill-rule:nonzero;stroke:none"
         d="m 3399.7734,2181.0469 4.9844,-2.9922 c 3.5078,6.4609 7.5586,9.6914 12.1563,9.6914 1.9687,0 3.8164,-0.4609 5.5429,-1.375 1.7266,-0.918 3.043,-2.1484 3.9493,-3.6914 0.9023,-1.5391 1.3554,-3.1758 1.3554,-4.9024 0,-1.9687 -0.6679,-3.8945 -1.9961,-5.7812 -1.832,-2.6055 -5.1836,-5.7422 -10.0468,-9.4102 -4.8907,-3.6914 -7.9336,-6.3632 -9.129,-8.0117 -2.0742,-2.7656 -3.1093,-5.7539 -3.1093,-8.9726 0,-2.5508 0.6093,-4.875 1.832,-6.9766 1.2227,-2.0977 2.9453,-3.7539 5.1641,-4.9648 2.2187,-1.2071 4.6328,-1.8125 7.2382,-1.8125 2.7618,0 5.3477,0.6836 7.754,2.0546 2.4023,1.3711 4.9492,3.8868 7.6328,7.5547 l -4.7852,3.6289 c -2.2031,-2.9257 -4.0859,-4.8515 -5.6406,-5.7812 -1.5547,-0.9297 -3.25,-1.3984 -5.082,-1.3984 -2.3672,0 -4.3008,0.7187 -5.8008,2.1523 -1.5039,1.4375 -2.2539,3.207 -2.2539,5.3047 0,1.2773 0.2656,2.5117 0.7968,3.707 0.5313,1.1992 1.5039,2.5 2.9102,3.9063 0.7734,0.7461 3.2969,2.6992 7.5781,5.8632 5.0742,3.7461 8.5586,7.0821 10.4453,10.0079 1.8868,2.9257 2.8282,5.8593 2.8282,8.8086 0,4.2539 -1.6133,7.9492 -4.8438,11.0859 -3.2266,3.1367 -7.1562,4.7031 -11.7812,4.7031 -3.5625,0 -6.7891,-0.9492 -9.6875,-2.8515 -2.8985,-1.8985 -5.5704,-5.0821 -8.0118,-9.5469"
         id="path3372"
         inkscape:connector-curvature="0" />
      <path
         style="fill:#d1d1d1;fill-opacity:1;fill-rule:nonzero;stroke:none"
         d="m 3469.3008,2133.3242 h 5.8633 v 35.4024 c 0,4.2031 0.078,6.8164 0.2382,7.8554 0.293,2.3125 0.9688,4.2461 2.0352,5.8008 1.0625,1.5547 2.6953,2.8555 4.9023,3.9063 2.2071,1.0507 4.4258,1.5742 6.6563,1.5742 1.9414,0 3.8008,-0.4102 5.582,-1.2344 1.7813,-0.8242 3.2696,-1.9687 4.4649,-3.4297 1.1992,-1.4609 2.0742,-3.2304 2.6328,-5.3008 0.3984,-1.4882 0.5976,-4.5468 0.5976,-9.1718 v -35.4024 h 5.8633 v 35.4024 c 0,5.2382 -0.5117,9.4687 -1.5351,12.6992 -1.0235,3.2265 -3.0703,6.043 -6.1407,8.4297 -3.0703,2.3945 -6.7851,3.5898 -11.1445,3.5898 -4.7305,0 -8.7851,-1.1289 -12.1601,-3.3867 -3.375,-2.2617 -5.6368,-5.25 -6.7774,-8.9727 -0.7187,-2.2851 -1.0781,-6.4062 -1.0781,-12.3593 z m 0,0"
         id="path3374"
         inkscape:connector-curvature="0" />
      <path
         style="fill:#d1d1d1;fill-opacity:1;fill-rule:nonzero;stroke:none"
         d="m 3537.6758,2128.8594 h -5.5391 l -11.5625,-10.25 h 7.2149 l 7.0195,6.0625 7.3047,-6.0625 h 7.4062 z m -17.3828,10.125 v -5.6602 h 30.9414 l -24.5039,52.9063 h 23.2656 v 5.7383 h -32.332 l 24.7148,-52.9844 z m 0,0"
         id="path3376"
         inkscape:connector-curvature="0" />
      <path
         style="fill:#d1d1d1;fill-opacity:1;fill-rule:nonzero;stroke:none"
         d="m 3584.9805,2145.7813 -10.0508,21.2304 h 20.0508 z m 0.7422,-12.4571 27.3476,58.6485 h -6.3281 l -9.2266,-19.3008 H 3572.25 l -9.1367,19.3008 h -6.5352 l 27.7071,-58.6485 z m 0,0"
         id="path3378"
         inkscape:connector-curvature="0" />
      <path
         style="fill:#d1d1d1;fill-opacity:1;fill-rule:nonzero;stroke:none"
         d="m 3622.3594,2133.3242 h 5.8633 v 35.4024 c 0,4.2031 0.078,6.8164 0.2382,7.8554 0.293,2.3125 0.9688,4.2461 2.0313,5.8008 1.0625,1.5547 2.6992,2.8555 4.9062,3.9063 2.2032,1.0507 4.4258,1.5742 6.6563,1.5742 1.9414,0 3.8008,-0.4102 5.582,-1.2344 1.7813,-0.8242 3.2696,-1.9687 4.4649,-3.4297 1.1953,-1.4609 2.0742,-3.2304 2.6328,-5.3008 0.3984,-1.4882 0.5976,-4.5468 0.5976,-9.1718 v -35.4024 h 5.8633 v 35.4024 c 0,5.2382 -0.5156,9.4687 -1.539,12.6992 -1.0235,3.2265 -3.0665,6.043 -6.1368,8.4297 -3.0703,2.3945 -6.7851,3.5898 -11.1445,3.5898 -4.7305,0 -8.7852,-1.1289 -12.1602,-3.3867 -3.375,-2.2617 -5.6367,-5.25 -6.7773,-8.9727 -0.7187,-2.2851 -1.0781,-6.4062 -1.0781,-12.3593 z m 0,0"
         id="path3380"
         inkscape:connector-curvature="0" />
      <path
         style="fill:#d1d1d1;fill-opacity:1;fill-rule:nonzero;stroke:none"
         d="m 3732.1992,2143.1719 -4.5429,4.3047 c -3.2696,-3.2149 -6.8516,-5.6563 -10.7461,-7.3164 -3.8946,-1.6602 -7.6875,-2.4922 -11.3829,-2.4922 -4.5976,0 -8.9765,1.1289 -13.1367,3.3906 -4.1601,2.2578 -7.3828,5.3203 -9.6679,9.1875 -2.2852,3.8672 -3.4297,7.957 -3.4297,12.2617 0,4.4102 1.1836,8.6055 3.5508,12.5781 2.3632,3.9727 5.6328,7.0977 9.8046,9.3672 4.1758,2.2735 8.7461,3.4102 13.7149,3.4102 6.0351,0 11.1367,-1.6992 15.3125,-5.1016 4.1719,-3.4023 6.6445,-7.8164 7.414,-13.2344 h -18.6992 v -5.664 h 25.2774 c -0.055,9.0625 -2.7422,16.2578 -8.0742,21.5898 -5.3282,5.3282 -12.4571,7.9922 -21.3868,7.9922 -10.8476,0 -19.4336,-3.6953 -25.7578,-11.082 -4.8633,-5.6875 -7.2969,-12.2656 -7.2969,-19.7383 0,-5.5547 1.3985,-10.7227 4.1875,-15.5078 2.7891,-4.7852 6.6172,-8.5234 11.4805,-11.2227 4.8672,-2.6992 10.3672,-4.0468 16.5078,-4.0468 4.9688,0 9.6485,0.8984 14.0352,2.6914 4.3828,1.7929 8.664,4.6718 12.8359,8.6328"
         id="path3382"
         inkscape:connector-curvature="0" />
      <path
         style="fill:#d1d1d1;fill-opacity:1;fill-rule:nonzero;stroke:none"
         d="m 3745.9961,2133.3242 h 5.8594 v 58.6446 h -5.8594 z m 0,0"
         id="path3384"
         inkscape:connector-curvature="0" />
      <path
         style="fill:#d1d1d1;fill-opacity:1;fill-rule:nonzero;stroke:none"
         d="m 3765.332,2191.9688 v -58.6446 h 1.2735 l 39.0351,44.9571 v -44.9571 h 5.7813 v 58.6446 h -1.3164 l -38.7149,-44.4063 v 44.4063 z m 0,0"
         id="path3386"
         inkscape:connector-curvature="0" />
      <path
         style="fill:#d1d1d1;fill-opacity:1;fill-rule:nonzero;stroke:none"
         d="m 3848.9141,2145.7813 -10.0469,21.2304 h 20.0469 z m 0.7422,-12.4571 27.3476,58.6485 h -6.3281 l -9.2266,-19.3008 h -25.2656 l -9.1367,19.3008 h -6.5352 l 27.7071,-58.6485 z m 0,0"
         id="path3388"
         inkscape:connector-curvature="0" />
      <path
         style="fill:#d1d1d1;fill-opacity:1;fill-rule:nonzero;stroke:none"
         d="m 3883.4219,2191.9688 8.3984,-58.6446 h 0.9531 l 23.8399,48.125 23.6133,-48.125 h 0.9414 l 8.4375,58.6446 h -5.7461 l -5.7969,-41.9375 -20.7344,41.9375 h -1.5 l -20.9804,-42.2579 -5.7618,42.2579 z m 0,0"
         id="path3390"
         inkscape:connector-curvature="0" />
      <path
         style="fill:#d1d1d1;fill-opacity:1;fill-rule:nonzero;stroke:none"
         d="m 3984.3516,2145.7813 -10.0508,21.2304 h 20.0508 z m 0.7382,-12.4571 27.3516,58.6485 h -6.332 l -9.2227,-19.3008 h -25.2656 l -9.1367,19.3008 h -6.5391 l 27.711,-58.6485 z m 0,0"
         id="path3392"
         inkscape:connector-curvature="0" />
      <path
         style="fill:#d1d1d1;fill-opacity:1;fill-rule:nonzero;stroke:none"
         d="m 3034.4883,2233.3125 h 7.4765 l 22.7891,53.1211 23.1602,-53.1211 h 7.4804 l -29.914,68.7617 h -1.5 z m 0,0"
         id="path3394"
         inkscape:connector-curvature="0" />
      <path
         style="fill:#d1d1d1;fill-opacity:1;fill-rule:nonzero;stroke:none"
         d="m 3105.957,2233.3125 h 6.8711 v 68.7617 h -6.8711 z m 0,0"
         id="path3396"
         inkscape:connector-curvature="0" />
      <path
         style="fill:#d1d1d1;fill-opacity:1;fill-rule:nonzero;stroke:none"
         d="m 3135.8281,2240.043 v 23.3711 l 11.8438,0.094 c 4.5898,0 7.9844,-0.4336 10.1836,-1.3086 2.1992,-0.8711 3.9179,-2.2656 5.1484,-4.1836 1.2344,-1.914 1.8516,-4.0586 1.8516,-6.4258 0,-2.3046 -0.625,-4.3984 -1.875,-6.289 -1.2461,-1.8828 -2.8867,-3.2305 -4.9141,-4.0391 -2.0312,-0.8125 -5.4023,-1.2187 -10.1133,-1.2187 z m -6.8711,-6.7266 h 13.6953 c 7.6329,0 12.8047,0.3086 15.5196,0.9336 4.082,0.9336 7.3984,2.9414 9.9531,6.0156 2.5547,3.0703 3.832,6.8516 3.832,11.3477 0,3.7461 -0.8789,7.0351 -2.6406,9.875 -1.7578,2.8398 -4.2734,4.9844 -7.5469,6.4336 -3.2734,1.4531 -7.7929,2.1953 -13.5547,2.2265 l 24.7266,31.9258 h -8.5 l -24.7305,-31.9258 h -3.8828 v 31.9258 h -6.8711 z m 0,0"
         id="path3398"
         inkscape:connector-curvature="0" />
      <path
         style="fill:#d1d1d1;fill-opacity:1;fill-rule:nonzero;stroke:none"
         d="m 3205.2383,2228.0781 h -6.4961 l -13.5547,-12.0156 h 8.457 l 8.2305,7.1055 8.5664,-7.1055 h 8.6797 z m -25.6602,61.1875 5.8438,-3.5078 c 4.1133,7.5742 8.8633,11.3594 14.2539,11.3594 2.3086,0 4.4726,-0.5391 6.5,-1.6133 2.0234,-1.0703 3.5664,-2.5156 4.625,-4.3203 1.0586,-1.8086 1.5898,-3.7266 1.5898,-5.75 0,-2.3086 -0.7773,-4.5664 -2.3359,-6.7813 -2.1484,-3.0507 -6.0781,-6.7304 -11.7774,-11.0312 -5.7343,-4.332 -9.3046,-7.4609 -10.707,-9.3945 -2.4297,-3.2383 -3.6445,-6.7461 -3.6445,-10.5157 0,-2.9921 0.7148,-5.7187 2.1484,-8.1836 1.4336,-2.4609 3.4531,-4.3984 6.0547,-5.8164 2.6016,-1.4179 5.4297,-2.1289 8.4844,-2.1289 3.2383,0 6.2695,0.8047 9.0898,2.4102 2.8203,1.6055 5.8047,4.5586 8.9532,8.8555 l -5.6094,4.2539 c -2.5899,-3.4258 -4.793,-5.6875 -6.6133,-6.7774 -1.8242,-1.0898 -3.8125,-1.6367 -5.9609,-1.6367 -2.7735,0 -5.043,0.8398 -6.8008,2.5234 -1.7617,1.6836 -2.6406,3.7579 -2.6406,6.2188 0,1.4961 0.3085,2.9453 0.9335,4.3476 0.625,1.4024 1.7618,2.9297 3.4102,4.5821 0.9063,0.8711 3.8672,3.1601 8.8828,6.8711 5.9531,4.3906 10.0352,8.3008 12.2461,11.7304 2.2149,3.4297 3.3203,6.8711 3.3203,10.3321 0,4.9843 -1.8945,9.3164 -5.6797,12.9922 -3.7851,3.6796 -8.3906,5.5156 -13.8125,5.5156 -4.1757,0 -7.9609,-1.1133 -11.3593,-3.3399 -3.3985,-2.2304 -6.5274,-5.9609 -9.3946,-11.1953"
         id="path3400"
         inkscape:connector-curvature="0" />
      <path
         style="fill:#d1d1d1;fill-opacity:1;fill-rule:nonzero;stroke:none"
         d="m 3287.832,2279.543 v -28.8828 l -20.3711,28.8828 z m 5.4336,-47.961 h 1.3907 v 47.961 h 8.3242 v 6.5429 h -8.3242 v 15.9883 h -6.8243 v -15.9883 h -32.9062 z m 0,0"
         id="path3402"
         inkscape:connector-curvature="0" />
      <path
         style="fill:#d1d1d1;fill-opacity:1;fill-rule:nonzero;stroke:none"
         d="m 3315.0859,2267.832 c 0,7.7657 0.6914,13.6368 2.0782,17.6133 1.3867,3.9766 3.4375,6.9922 6.1484,9.0508 2.7109,2.0586 5.5781,3.0898 8.6016,3.0898 3.0547,0 5.9062,-1.0078 8.5547,-3.0195 2.6484,-2.0117 4.6562,-5.0273 6.0312,-9.0508 1.7109,-4.8945 2.5703,-10.7929 2.5703,-17.6836 0,-6.9218 -0.7656,-12.5898 -2.293,-17.0039 -1.5273,-4.4101 -3.6367,-7.6406 -6.332,-9.6797 -2.6953,-2.0429 -5.539,-3.0664 -8.5312,-3.0664 -3.0547,0 -5.9219,1.0235 -8.6016,3.0664 -2.6797,2.0391 -4.7227,5.0508 -6.125,9.0235 -1.4023,3.9765 -2.1016,9.8633 -2.1016,17.6601 m -6.4961,-0.1172 c 0,-9.0664 0.9727,-16.0781 2.918,-21.0351 1.9492,-4.9531 4.6992,-8.707 8.25,-11.2617 3.5547,-2.5547 7.5274,-3.836 11.9219,-3.836 4.457,0 8.4922,1.2891 12.1094,3.8594 3.6132,2.5703 6.4726,6.4258 8.5742,11.5664 2.1055,5.1406 3.1562,12.0469 3.1562,20.707 0,8.6329 -1.0351,15.504 -3.1093,20.6133 -2.0743,5.1133 -4.9297,8.9688 -8.5782,11.5703 -3.6445,2.6016 -7.6953,3.9024 -12.1523,3.9024 -4.3945,0 -8.3516,-1.2617 -11.875,-3.7852 -3.5195,-2.5234 -6.2695,-6.2851 -8.25,-11.2851 -1.9766,-5.0039 -2.9649,-12.0078 -2.9649,-21.0157"
         id="path3404"
         inkscape:connector-curvature="0" />
      <path
         style="fill:#d1d1d1;fill-opacity:1;fill-rule:nonzero;stroke:none"
         d="m 3368.1406,2267.832 c 0,7.7657 0.6914,13.6368 2.0821,17.6133 1.3828,3.9766 3.4336,6.9922 6.1445,9.0508 2.7109,2.0586 5.5781,3.0898 8.6016,3.0898 3.0546,0 5.9023,-1.0078 8.5546,-3.0195 2.6485,-2.0117 4.6563,-5.0273 6.0274,-9.0508 1.7148,-4.8945 2.5703,-10.7929 2.5703,-17.6836 0,-6.9218 -0.7617,-12.5898 -2.2891,-17.0039 -1.5273,-4.4101 -3.6367,-7.6406 -6.332,-9.6797 -2.6992,-2.0429 -5.5391,-3.0664 -8.5312,-3.0664 -3.0547,0 -5.9219,1.0235 -8.6016,3.0664 -2.6797,2.0391 -4.7188,5.0508 -6.125,9.0235 -1.4024,3.9765 -2.1016,9.8633 -2.1016,17.6601 m -6.4961,-0.1172 c 0,-9.0664 0.9727,-16.0781 2.9219,-21.0351 1.9453,-4.9531 4.6953,-8.707 8.25,-11.2617 3.5508,-2.5547 7.5234,-3.836 11.918,-3.836 4.457,0 8.4922,1.2891 12.1054,3.8594 3.6172,2.5703 6.4727,6.4258 8.5782,11.5664 2.1054,5.1406 3.1562,12.0469 3.1562,20.707 0,8.6329 -1.039,15.504 -3.1094,20.6133 -2.0742,5.1133 -4.9296,8.9688 -8.5781,11.5703 -3.6445,2.6016 -7.6953,3.9024 -12.1523,3.9024 -4.3946,0 -8.3516,-1.2617 -11.8711,-3.7852 -3.5235,-2.5234 -6.2735,-6.2851 -8.25,-11.2851 -1.9805,-5.0039 -2.9688,-12.0078 -2.9688,-21.0157"
         id="path3406"
         inkscape:connector-curvature="0" />
      <path
         style="fill:#d1d1d1;fill-opacity:1;fill-rule:nonzero;stroke:none"
         d="m 3439.7031,2240.043 v -6.7266 h 37.6719 v 6.7266 h -15.332 v 62.0312 h -7.0078 v -62.0312 z m 0,0"
         id="path3408"
         inkscape:connector-curvature="0" />
      <path
         style="fill:#d1d1d1;fill-opacity:1;fill-rule:nonzero;stroke:none"
         d="m 3520.332,2238.2695 c -5.0859,0 -9.9101,1.3243 -14.4648,3.9766 -4.5586,2.6484 -8.1172,6.2187 -10.6758,10.7109 -2.5586,4.4922 -3.8398,9.5 -3.8398,15.0157 0,8.1718 2.832,15.0703 8.4961,20.6992 5.6679,5.6328 12.4961,8.4453 20.4843,8.4453 5.336,0 10.2774,-1.2969 14.8164,-3.8828 4.543,-2.5899 8.086,-6.1289 10.6289,-10.6172 2.543,-4.4922 3.8165,-9.4844 3.8165,-14.9727 0,-5.457 -1.2735,-10.3906 -3.8165,-14.8047 -2.5429,-4.414 -6.125,-7.9453 -10.746,-10.5937 -4.6172,-2.6523 -9.5157,-3.9766 -14.6993,-3.9766 m -0.3007,-6.6875 c 10.4101,0 19.1289,3.4766 26.1445,10.4258 7.0156,6.9492 10.5234,15.5039 10.5234,25.6602 0,10.0664 -3.5,18.6054 -10.5,25.6172 -7,7.0117 -15.539,10.5156 -25.6094,10.5156 -10.1953,0 -18.8007,-3.4883 -25.8203,-10.4688 -7.0156,-6.9804 -10.5234,-15.4257 -10.5234,-25.332 0,-6.6094 1.5977,-12.7344 4.7969,-18.375 3.1953,-5.6367 7.5508,-10.0547 13.0703,-13.25 5.5195,-3.1953 11.4922,-4.793 17.918,-4.793"
         id="path3410"
         inkscape:connector-curvature="0" />
      <path
         style="fill:#d1d1d1;fill-opacity:1;fill-rule:nonzero;stroke:none"
         d="m 3570.5352,2302.0742 v -68.7617 h 1.4961 l 45.7617,52.707 v -52.707 h 6.7773 v 68.7617 h -1.543 l -45.3867,-52.0703 v 52.0703 z m 0,0"
         id="path3412"
         inkscape:connector-curvature="0" />
      <path
         style="fill:#d1d1d1;fill-opacity:1;fill-rule:nonzero;stroke:none"
         d="m 3664.7227,2302.0742 h 5.0937 c -3.7695,3.2071 -5.6562,6.2149 -5.6562,9.0196 0,1.4335 0.5859,2.6484 1.7539,3.6445 1.1679,0.9961 2.8554,1.4961 5.0703,1.4961 0.9023,0 1.9804,-0.078 3.2265,-0.2344 l -0.4218,3.9727 c -1.3086,0.3125 -2.6328,0.4687 -3.9727,0.4687 -3.4609,0 -6.1016,-0.8281 -7.9219,-2.4766 -1.8242,-1.6523 -2.7343,-3.6328 -2.7343,-5.9375 0,-4.0507 1.8515,-7.3671 5.5625,-9.9531 m -23.1875,-68.7617 h 6.875 v 41.5078 c 0,4.9219 0.09,7.9961 0.2773,9.207 0.3438,2.711 1.1367,4.9805 2.3867,6.8008 1.2422,1.8242 3.1602,3.3516 5.7461,4.5821 2.586,1.2304 5.1914,1.8476 7.8086,1.8476 2.2734,0 4.457,-0.4844 6.543,-1.4492 2.0859,-0.9648 3.832,-2.3047 5.2344,-4.0195 1.4023,-1.7149 2.4335,-3.7852 3.0859,-6.2188 0.4687,-1.7422 0.6992,-5.3281 0.6992,-10.75 v -41.5078 h 6.875 v 41.5078 c 0,6.1406 -0.6016,11.1016 -1.8008,14.8867 -1.1992,3.7891 -3.6015,7.0821 -7.1992,9.8868 -3.6016,2.8046 -7.9531,4.2109 -13.0664,4.2109 -5.543,0 -10.2969,-1.3281 -14.2539,-3.9766 -3.957,-2.6484 -6.6094,-6.1523 -7.9453,-10.5195 -0.8438,-2.6758 -1.2656,-7.5039 -1.2656,-14.4883 z m 0,0"
         id="path3414"
         inkscape:connector-curvature="0" />
      <path
         style="fill:#d1d1d1;fill-opacity:1;fill-rule:nonzero;stroke:none"
         d="m 3748.2031,2228.0781 h -6.4961 l -13.5547,-12.0156 h 8.4571 l 8.2304,7.1055 8.5665,-7.1055 h 8.6835 z m -20.3789,11.8711 v -6.6367 h 36.2735 l -28.7266,62.0273 h 27.2773 v 6.7344 h -37.9101 l 28.9765,-62.125 z m 0,0"
         id="path3416"
         inkscape:connector-curvature="0" />
      <path
         style="fill:#d1d1d1;fill-opacity:1;fill-rule:nonzero;stroke:none"
         d="m 3776.6719,2233.3125 h 6.8711 v 41.5078 c 0,4.9219 0.094,7.9961 0.2773,9.207 0.3438,2.711 1.1367,4.9805 2.3867,6.8047 1.2461,1.8203 3.1602,3.3477 5.7461,4.5782 2.5899,1.2304 5.1914,1.8476 7.8086,1.8476 2.2735,0 4.4571,-0.4844 6.543,-1.4492 2.0859,-0.9648 3.832,-2.3047 5.2344,-4.0195 1.4023,-1.7149 2.4336,-3.7852 3.0859,-6.2188 0.4688,-1.7422 0.7031,-5.3281 0.7031,-10.75 v -41.5078 h 6.8711 v 41.5078 c 0,6.1406 -0.6015,11.1016 -1.8008,14.8906 -1.1992,3.7852 -3.5976,7.0821 -7.1992,9.8829 -3.5976,2.8046 -7.9531,4.207 -13.0625,4.207 -5.5469,0 -10.3008,-1.3242 -14.2578,-3.9727 -3.957,-2.6484 -6.6055,-6.1523 -7.9453,-10.5195 -0.8438,-2.6758 -1.2617,-7.5078 -1.2617,-14.4883 z m 0,0"
         id="path3418"
         inkscape:connector-curvature="0" />
      <path
         style="fill:#d1d1d1;fill-opacity:1;fill-rule:nonzero;stroke:none"
         d="m 3833.8828,2233.3125 h 7.4805 l 22.789,53.1211 23.1602,-53.1211 h 7.4766 l -29.9141,68.7617 h -1.4961 z m 0,0"
         id="path3420"
         inkscape:connector-curvature="0" />
      <path
         style="fill:#d1d1d1;fill-opacity:1;fill-rule:nonzero;stroke:none"
         d="m 3905.3555,2233.3125 h 6.8711 v 68.7617 h -6.8711 z m 0,0"
         id="path3422"
         inkscape:connector-curvature="0" />
      <path
         style="fill:#d1d1d1;fill-opacity:1;fill-rule:nonzero;stroke:none"
         d="m 3928.0234,2233.3125 h 39.4063 v 6.7305 h -32.5352 v 21.5508 h 32.2539 v 6.7304 h -32.2539 v 27.0156 h 32.2539 v 6.7344 h -39.125 z m 0,0"
         id="path3424"
         inkscape:connector-curvature="0" />
      <path
         style="fill:#d1d1d1;fill-opacity:1;fill-rule:nonzero;stroke:none"
         d="m 3972.1953,2289.2656 5.8438,-3.5078 c 4.1132,7.5742 8.8632,11.3594 14.2578,11.3594 2.3047,0 4.4687,-0.5391 6.4961,-1.6133 2.0234,-1.0742 3.5664,-2.5156 4.625,-4.3242 1.0586,-1.8047 1.5898,-3.7227 1.5898,-5.75 0,-2.3047 -0.7773,-4.5625 -2.3359,-6.7774 -2.1485,-3.0507 -6.0781,-6.7304 -11.7774,-11.0312 -5.7343,-4.332 -9.3047,-7.4609 -10.707,-9.3945 -2.4297,-3.2383 -3.6445,-6.7461 -3.6445,-10.5157 0,-2.9921 0.7148,-5.7148 2.1484,-8.1836 1.4336,-2.4609 3.4531,-4.3984 6.0547,-5.8164 2.6016,-1.4179 5.4297,-2.1289 8.4844,-2.1289 3.2383,0 6.2695,0.8047 9.0898,2.4102 2.8203,1.6055 5.8047,4.5586 8.9531,8.8555 l -5.6093,4.2539 c -2.5899,-3.4258 -4.793,-5.6875 -6.6133,-6.7735 -1.8242,-1.0937 -3.8125,-1.6406 -5.961,-1.6406 -2.7734,0 -5.0429,0.8398 -6.8007,2.5234 -1.7618,1.6836 -2.6407,3.7579 -2.6407,6.2188 0,1.4961 0.3086,2.9453 0.9336,4.3476 0.625,1.4024 1.7618,2.9297 3.4102,4.5821 0.9062,0.8711 3.8672,3.1601 8.8828,6.8711 5.9531,4.3906 10.0352,8.3008 12.2461,11.7304 2.2148,3.4258 3.3203,6.8711 3.3203,10.3321 0,4.9843 -1.8945,9.3164 -5.6797,12.9922 -3.7851,3.6796 -8.3906,5.5156 -13.8125,5.5156 -4.1758,0 -7.9609,-1.1133 -11.3594,-3.3399 -3.3945,-2.2304 -6.5273,-5.9609 -9.3945,-11.1953"
         id="path3426"
         inkscape:connector-curvature="0" />
    </g>
  </g>
</svg>
