<?xml version="1.0" encoding="UTF-8" standalone="no"?>
<!-- Created with Inkscape (http://www.inkscape.org/) -->

<svg
   xmlns:dc="http://purl.org/dc/elements/1.1/"
   xmlns:cc="http://creativecommons.org/ns#"
   xmlns:rdf="http://www.w3.org/1999/02/22-rdf-syntax-ns#"
   xmlns:svg="http://www.w3.org/2000/svg"
   xmlns="http://www.w3.org/2000/svg"
   xmlns:sodipodi="http://sodipodi.sourceforge.net/DTD/sodipodi-0.dtd"
   xmlns:inkscape="http://www.inkscape.org/namespaces/inkscape"
   width="63.736671mm"
   height="38.781139mm"
   viewBox="0 0 63.736672 38.781139"
   version="1.1"
   id="svg1070"
   inkscape:version="0.92.3 (2405546, 2018-03-11)"
   sodipodi:docname="boneless.svg">
  <defs
     id="defs1064" />
  <sodipodi:namedview
     id="base"
     pagecolor="#ffffff"
     bordercolor="#666666"
     borderopacity="1.0"
     inkscape:pageopacity="0.0"
     inkscape:pageshadow="2"
     inkscape:zoom="0.35"
     inkscape:cx="-333.39147"
     inkscape:cy="340.86006"
     inkscape:document-units="mm"
     inkscape:current-layer="layer1"
     showgrid="false"
     inkscape:window-width="1080"
     inkscape:window-height="1857"
     inkscape:window-x="1912"
     inkscape:window-y="-8"
     inkscape:window-maximized="1" />
  <metadata
     id="metadata1067">
    <rdf:RDF>
      <cc:Work
         rdf:about="">
        <dc:format>image/svg+xml</dc:format>
        <dc:type
           rdf:resource="http://purl.org/dc/dcmitype/StillImage" />
        <dc:title></dc:title>
      </cc:Work>
    </rdf:RDF>
  </metadata>
  <g
     inkscape:label="Layer 1"
     inkscape:groupmode="layer"
     id="layer1"
     transform="translate(-184.97173,-220.6488)">
    <path
       style="color:#000000;font-style:normal;font-variant:normal;font-weight:normal;font-stretch:normal;font-size:medium;line-height:normal;font-family:sans-serif;font-variant-ligatures:normal;font-variant-position:normal;font-variant-caps:normal;font-variant-numeric:normal;font-variant-alternates:normal;font-feature-settings:normal;text-indent:0;text-align:start;text-decoration:none;text-decoration-line:none;text-decoration-style:solid;text-decoration-color:#000000;letter-spacing:normal;word-spacing:normal;text-transform:none;writing-mode:lr-tb;direction:ltr;text-orientation:mixed;dominant-baseline:auto;baseline-shift:baseline;text-anchor:start;white-space:normal;shape-padding:0;clip-rule:nonzero;display:inline;overflow:visible;visibility:visible;opacity:1;isolation:auto;mix-blend-mode:normal;color-interpolation:sRGB;color-interpolation-filters:linearRGB;solid-color:#000000;solid-opacity:1;vector-effect:none;fill:#000000;fill-opacity:1;fill-rule:nonzero;stroke:none;stroke-width:1.56500006;stroke-linecap:butt;stroke-linejoin:miter;stroke-miterlimit:4;stroke-dasharray:none;stroke-dashoffset:0;stroke-opacity:1;color-rendering:auto;image-rendering:auto;shape-rendering:auto;text-rendering:auto;enable-background:accumulate"
       d="m 216.18269,220.6488 -11.76156,7.58197 c 0.87467,-0.0501 1.88724,-0.0801 2.96054,-0.046 l 6.76031,-4.3584 -0.75189,5.20434 c 0.56516,0.1268 1.09273,0.25171 1.52911,0.36277 z m 31.74018,6.5505 -1.50172,1.19941 c 0,0 -5.94437,4.79347 -13.09946,10.8965 -0.0115,-0.008 -0.0232,-0.015 -0.0346,-0.0227 l -1.26246,1.03611 c -2.15679,1.79368 -5.47764,4.12335 -8.84753,6.12314 -3.54924,2.10621 -7.12816,3.79577 -8.66821,4.01578 -0.60133,0.0859 -1.14272,0.33811 -1.4707,0.78909 -0.32798,0.45098 -0.37997,0.99808 -0.31264,1.48622 0.13466,0.97628 0.68072,1.93057 1.31051,2.87527 0.42249,0.63371 0.5513,0.68111 0.99219,1.22422 l -14.06426,-5.19193 -0.5917,1.44901 16.89045,6.35052 0.86143,-1.26763 c 0,0 -1.64108,-1.71256 -2.7869,-3.43131 -0.57293,-0.85938 -0.99512,-1.74406 -1.06092,-2.22106 -0.0329,-0.2385 0.007,-0.32211 0.0295,-0.35346 0.0228,-0.0314 0.0917,-0.11247 0.42581,-0.1602 2.20174,-0.31453 5.62879,-2.07357 9.24388,-4.21886 3.57441,-2.12117 7.17615,-4.61039 9.43198,-6.53294 l 1.26348,-1.03715 c 6.04898,-5.14695 10.18864,-8.50682 11.21482,-9.33018 l -1.14824,9.19738 1.67173,9.12864 c -3.38832,-2.78157 -6.90955,-5.57066 -10.58747,-8.184 l -1.20974,1.06867 c 4.31834,3.04068 8.50257,6.34839 12.44007,9.60975 l 1.65623,1.37098 -2.38901,-13.039 z m -41.67136,1.83555 c -2.33519,0.0138 -4.21522,0.27782 -4.28243,0.28732 -1.29032,0.18489 -2.58154,0.45906 -3.87211,0.83613 h -0.002 c -2.66117,0.78783 -5.86045,2.10998 -8.45531,3.92792 -2.59485,1.81794 -4.66793,4.19557 -4.66793,7.11326 0,1.58528 0.9149,3.01402 2.13889,4.29121 1.22397,1.27719 2.80551,2.43054 4.37492,3.41995 3.13882,1.97882 6.25802,3.29851 6.25802,3.29851 l 0.8201,0.34778 0.2403,-0.85731 c 0,0 1.75999,-6.25075 1.89859,-11.10165 0.0682,-2.38569 -0.10084,-3.99077 -0.29714,-5.01985 -0.1963,-1.02909 -0.46095,-1.56011 -0.46095,-1.56011 l -1.38493,0.73225 c 0,0 0.13784,0.22549 0.30903,1.12293 0.17119,0.89744 0.3347,2.38827 0.26923,4.67982 -0.11206,3.92188 -1.27934,8.49281 -1.61695,9.77718 -0.67072,-0.29504 -2.60848,-1.10945 -5.20124,-2.74402 -1.50419,-0.94829 -2.99708,-2.04935 -4.0783,-3.17758 -1.08123,-1.12824 -1.70326,-2.25532 -1.70326,-3.20911 0,-2.16042 1.61182,-4.15886 4.00028,-5.8322 2.38796,-1.67299 5.46938,-2.95802 7.99796,-3.70675 8.40459,-2.45556 16.89013,-0.4638 25.13282,3.67161 2.42486,1.21656 4.8076,2.6641 7.16547,4.19975 l 1.22008,-1.07798 c -2.51562,-1.65352 -5.06982,-3.20844 -7.68429,-4.52013 -2.70503,-1.35713 -5.45933,-2.49636 -8.246,-3.33572 l -0.005,0.0165 c 0,0 -3.01558,-0.88245 -5.98465,-1.31568 -1.21848,-0.15774 -2.44068,-0.2478 -3.6654,-0.26355 -0.0722,-7e-5 -0.14609,-9.3e-4 -0.21756,-5.3e-4 z m -12.35997,7.81554 c -0.89798,0 -1.63453,0.73655 -1.63453,1.63453 0,0.89798 0.73655,1.63711 1.63453,1.63711 0.89799,0 1.63504,-0.73913 1.63504,-1.63711 0,-0.89798 -0.73705,-1.63453 -1.63504,-1.63453 z m 0,0.86507 c 0.43051,0 0.76946,0.33896 0.76946,0.76946 0,0.4305 -0.33895,0.77153 -0.76946,0.77153 -0.43049,0 -0.76946,-0.34103 -0.76946,-0.77153 0,-0.4305 0.33897,-0.76945 0.76946,-0.76946 z m 7.95507,1.24592 0.0605,1.21698 c 0,0 0.11869,2.79009 -0.0289,3.9982 -0.1559,1.27577 -0.98237,4.08761 -0.98237,4.08761 l -0.21704,0.72295 0.74001,0.14263 c 0,0 3.51334,0.67568 10.37352,0.29455 7.16982,-0.39832 13.65034,-6.41201 13.65034,-6.41201 l -0.66249,-1.156 c -11.20752,3.49086 -21.86482,-2.31045 -21.86482,-2.31045 z m 1.41438,2.24844 c 0.34705,0.16907 0.85423,0.39926 1.47795,0.65474 0.009,0.24644 0.0217,0.65645 0.0217,1.24178 0,0.82688 -0.0421,1.82496 -0.15244,2.34921 -0.25967,1.23343 -0.416,1.51774 -0.416,1.51774 l 1.13275,0.56637 c 0,0 0.24499,-0.51647 0.51986,-1.82211 0.1569,-0.74527 0.18139,-1.75094 0.18139,-2.61121 0,-0.29374 -0.007,-0.51851 -0.0119,-0.75344 0.48493,0.17388 1.01227,0.35063 1.58594,0.524 0.007,0.21805 0.0139,0.46866 0.0139,0.76843 0,0.70477 -0.047,1.55706 -0.15399,1.98024 -0.13265,0.52468 -0.24669,0.86118 -0.32246,1.05678 -0.0758,0.1956 -0.092,0.21653 -0.092,0.21653 l 1.01751,0.61133 c 0,0 0.0877,-0.14983 0.18397,-0.39843 0.0963,-0.24859 0.22216,-0.62888 0.36483,-1.19321 0.16834,-0.66582 0.19172,-1.53078 0.19172,-2.27324 0,-0.16759 -0.005,-0.28173 -0.008,-0.42995 0.5516,0.14465 1.1419,0.27806 1.75131,0.40359 0.002,0.12658 0.007,0.2196 0.007,0.36019 10e-6,0.70477 -0.047,1.55758 -0.15399,1.98076 -0.13265,0.52468 -0.24669,0.86066 -0.32246,1.05626 -0.0758,0.1956 -0.092,0.21704 -0.092,0.21704 l 1.01957,0.61134 c 0,0 0.0856,-0.14983 0.1819,-0.39843 0.0963,-0.2486 0.22268,-0.62941 0.36536,-1.19372 0.16834,-0.66583 0.1912,-1.53079 0.1912,-2.27325 0,-0.0516 -0.002,-0.0822 -0.003,-0.13229 0.49512,0.0831 1.00399,0.15763 1.52808,0.22014 0.004,0.14648 0.01,0.27623 0.01,0.4532 10e-6,0.58238 -0.0516,1.29031 -0.15244,1.61127 -0.13592,0.43279 -0.25221,0.70727 -0.32815,0.86507 -0.0759,0.15779 -0.0879,0.16639 -0.0879,0.16639 l 0.88677,0.66198 c 0,0 0.0949,-0.13677 0.1974,-0.34985 0.10254,-0.21308 0.23691,-0.53486 0.38654,-1.01131 0.18478,-0.58828 0.20515,-1.3176 0.20515,-1.94355 0,-0.1335 -0.005,-0.22305 -0.008,-0.3421 2.32713,0.19529 4.88926,0.15219 7.58559,-0.31781 -2.3351,1.71259 -5.87519,3.95991 -10.24795,4.20285 -5.78298,0.32128 -8.51727,-0.064 -9.32605,-0.19327 0.20923,-0.70917 0.6837,-2.23354 0.84181,-3.52744 0.13709,-1.12187 0.0622,-2.2843 0.0295,-3.13262 z"
       id="path881"
       inkscape:connector-curvature="0" />
  </g>
</svg>
