<?xml version="1.0" encoding="UTF-8" standalone="no"?>
<!-- Created with Inkscape (http://www.inkscape.org/) -->

<svg
   xmlns:dc="http://purl.org/dc/elements/1.1/"
   xmlns:cc="http://creativecommons.org/ns#"
   xmlns:rdf="http://www.w3.org/1999/02/22-rdf-syntax-ns#"
   xmlns:svg="http://www.w3.org/2000/svg"
   xmlns="http://www.w3.org/2000/svg"
   xmlns:sodipodi="http://sodipodi.sourceforge.net/DTD/sodipodi-0.dtd"
   xmlns:inkscape="http://www.inkscape.org/namespaces/inkscape"
   width="127.22014mm"
   height="85.192543mm"
   viewBox="0 0 127.22014 85.192543"
   version="1.1"
   id="svg979"
   inkscape:version="0.92.3 (2405546, 2018-03-11)"
   sodipodi:docname="boneless.svg">
  <defs
     id="defs973" />
  <sodipodi:namedview
     id="base"
     pagecolor="#ffffff"
     bordercolor="#666666"
     borderopacity="1.0"
     inkscape:pageopacity="0.0"
     inkscape:pageshadow="2"
     inkscape:zoom="0.35"
     inkscape:cx="149.40345"
     inkscape:cy="796.27269"
     inkscape:document-units="mm"
     inkscape:current-layer="layer1"
     showgrid="false"
     inkscape:window-width="1920"
     inkscape:window-height="1017"
     inkscape:window-x="-8"
     inkscape:window-y="-8"
     inkscape:window-maximized="1" />
  <metadata
     id="metadata976">
    <rdf:RDF>
      <cc:Work
         rdf:about="">
        <dc:format>image/svg+xml</dc:format>
        <dc:type
           rdf:resource="http://purl.org/dc/dcmitype/StillImage" />
        <dc:title></dc:title>
      </cc:Work>
    </rdf:RDF>
  </metadata>
  <g
     inkscape:label="Layer 1"
     inkscape:groupmode="layer"
     id="layer1"
     transform="translate(75.815378,-274.32127)">
    <path
       style="fill:#000000;stroke:none;stroke-width:0.26458332px;stroke-linecap:butt;stroke-linejoin:miter;stroke-opacity:1"
       d="m -3.9200268,274.32127 c 0,0 -18.7086512,4.27625 -23.5195012,9.62164 -2.90101,3.22336 -5.114811,7.50604 -6.420789,10.40608 -27.583521,6.69222 -41.955061,25.14058 -41.955061,25.14058 0,0 15.67787,20.12188 45.709351,25.95863 1.154059,2.41 4.74522,7.37356 6.911721,9.7808 4.14438,4.60487 17.0542582,4.27984 17.0542582,4.27984 -3.9442502,-5.85275 -1.417738,-9.14223 0.43511,-12.83023 20.2028318,-1.76006 34.6327518,-10.01032 43.4479988,-16.96692 3.891309,11.5178 13.6617,18.37614 13.6617,18.37614 v -51.85058 c 0,0 -8.83937,4.03405 -13.051404,13.517 -8.594204,-6.92571 -22.856944,-15.3388 -42.9462138,-17.34623 -2.348471,-4.27606 -4.1666,-10.90567 0.67283,-18.08675 z m -0.323501,25.93434 c 11.2981397,0 33.7602218,13.23071 33.7602218,13.23071 0,0 -3.126301,-1.30064 -7.933891,-2.82721 -0.2267,1.33821 -1.509879,8.04309 -5.22655,13.01729 -4.14342,5.54533 -6.053381,7.56233 -6.053381,7.56233 0,0 3.291621,-5.33247 5.26687,-9.04545 1.99163,-3.74376 3.709512,-10.51813 4.03334,-12.14344 -2.003118,-0.60034 -4.20538,-1.21206 -6.578409,-1.7787 -0.18523,2.21458 -1.001009,9.13181 -4.3154998,14.8518 -3.9944992,6.89353 -5.8962793,9.47901 -5.8962793,9.47901 0,0 3.0675184,-6.49461 4.8503497,-10.95592 1.7440804,-4.36433 2.8679484,-11.76053 3.0954184,-13.88855 -2.3148897,-0.5009 -4.7355494,-0.94341 -7.2016301,-1.27796 -0.1906878,3.27895 -1.0174578,10.1793 -4.55320969,16.18971 -4.83241801,8.2146 -7.19180801,11.33884 -7.19180801,11.33884 0,0 3.609369,-7.66298 5.649269,-12.89224 1.76385001,-4.52163 2.67720001,-11.71275 2.95434001,-14.99753 -1.95759101,-0.18409 -3.92414101,-0.29146 -5.86941101,-0.29146 -1.736428,0 -3.47174,0.094 -5.1893492,0.25632 0.345739,3.14661 0.579739,8.65533 -0.979781,14.2198 -2.379139,8.48892 -3.686599,11.8768 -3.686599,11.8768 0,0 1.527339,-7.64639 2.243281,-12.73514 0.580458,-4.12584 0.201609,-9.96958 -0.115242,-13.07311 -3.191439,0.43084 -6.27978,1.08351 -9.145699,1.8309 0.495689,2.26118 1.30357,6.87972 1.00098,12.10469 -0.425691,7.3503 -0.78549,10.37197 -0.78549,10.37197 0,0 0.0557,-6.4675 -0.0667,-10.69753 -0.116419,-4.02569 -1.167497,-9.6123 -1.563208,-11.39724 -8.747062,2.43434 -15.068852,5.59811 -15.068852,5.59811 0,0 23.268752,-13.9268 34.5668812,-13.9268 z m -45.6468202,6.93963 c 2.066619,-7e-5 3.741961,1.67527 3.74189,3.74188 7.1e-5,2.06662 -1.675271,3.74196 -3.74189,3.7419 -2.06661,6e-5 -3.74196,-1.67528 -3.74189,-3.7419 -7e-5,-2.06661 1.67528,-3.74195 3.74189,-3.74188 z"
       id="path841"
       inkscape:connector-curvature="0" />
  </g>
</svg>
