<?xml version="1.0" encoding="UTF-8" standalone="no"?>
<!-- Created with Inkscape (http://www.inkscape.org/) -->

<svg
   xmlns:dc="http://purl.org/dc/elements/1.1/"
   xmlns:cc="http://creativecommons.org/ns#"
   xmlns:rdf="http://www.w3.org/1999/02/22-rdf-syntax-ns#"
   xmlns:svg="http://www.w3.org/2000/svg"
   xmlns="http://www.w3.org/2000/svg"
   xmlns:sodipodi="http://sodipodi.sourceforge.net/DTD/sodipodi-0.dtd"
   xmlns:inkscape="http://www.inkscape.org/namespaces/inkscape"
   width="72.239479mm"
   height="63.393192mm"
   viewBox="0 0 72.23948 63.393192"
   version="1.1"
   id="svg979"
   inkscape:version="0.92.3 (2405546, 2018-03-11)"
   sodipodi:docname="filet.svg">
  <defs
     id="defs973" />
  <sodipodi:namedview
     id="base"
     pagecolor="#ffffff"
     bordercolor="#666666"
     borderopacity="1.0"
     inkscape:pageopacity="0.0"
     inkscape:pageshadow="2"
     inkscape:zoom="0.35"
     inkscape:cx="-104.21514"
     inkscape:cy="893.65482"
     inkscape:document-units="mm"
     inkscape:current-layer="layer1"
     showgrid="false"
     inkscape:window-width="1920"
     inkscape:window-height="1017"
     inkscape:window-x="-8"
     inkscape:window-y="-8"
     inkscape:window-maximized="1" />
  <metadata
     id="metadata976">
    <rdf:RDF>
      <cc:Work
         rdf:about="">
        <dc:format>image/svg+xml</dc:format>
        <dc:type
           rdf:resource="http://purl.org/dc/dcmitype/StillImage" />
        <dc:title></dc:title>
      </cc:Work>
    </rdf:RDF>
  </metadata>
  <g
     inkscape:label="Layer 1"
     inkscape:groupmode="layer"
     id="layer1"
     transform="translate(8.7121248,-321.88631)">
    <path
       inkscape:connector-curvature="0"
       style="fill:#000000;stroke:#000000;stroke-width:0.32221958px;stroke-linecap:butt;stroke-linejoin:miter;stroke-opacity:1"
       d="m 45.854253,322.04742 c -13.809406,0 -20.253544,3.22202 -20.253544,3.22202 0,0 -43.730168,51.55544 -32.2223221,57.07921 11.50784,5.52376 17.9522281,0.9206 30.8410111,1.84123 12.888781,0.92063 39.126811,-55.69789 39.126811,-55.69789 0,0 -3.682539,-6.44457 -17.491956,-6.44457 z m -3.488677,3.56206 c 0,0 -7.937351,14.55208 -14.362946,22.48958 -6.425596,7.9375 -19.8437501,32.88378 -19.8437501,32.88378 0,0 5.8584831,-14.93021 13.0400301,-26.64747 7.181551,-11.71726 21.166666,-28.72589 21.166666,-28.72589 z m -15.043525,4.40799 c 0.178379,0.002 0.354909,0.009 0.528134,0.0238 2.771572,0.23423 6.75566,2.57607 6.75566,2.57607 0,0 -3.453027,0.26103 -5.313371,-0.77514 -1.860333,-1.03619 -7.781438,-0.48266 -7.781438,-0.48266 0,0 3.135342,-1.36447 5.811015,-1.34204 z m 20.552751,0.339 c 0.246959,0.002 0.492884,0.01 0.736388,0.0243 3.896082,0.23633 10.056236,2.59881 10.056236,2.59881 0,0 -4.699156,0.26359 -7.559746,-0.78187 -2.860578,-1.04545 -10.890293,-0.48679 -10.890293,-0.48679 0,0 3.953021,-1.37707 7.657415,-1.35444 z m -23.216153,3.03289 c 0.178377,0.002 0.354391,0.009 0.527616,0.0238 2.771574,0.23422 6.755659,2.57607 6.755659,2.57607 0,0 -3.453029,0.26103 -5.31337,-0.77515 -1.860336,-1.03618 -7.781438,-0.48266 -7.781438,-0.48266 0,0 3.135857,-1.36447 5.811533,-1.34204 z m 20.475752,0.36897 c 0.24696,0.002 0.492885,0.01 0.736389,0.0243 3.896082,0.23633 10.056751,2.59881 10.056751,2.59881 0,0 -4.699674,0.26359 -7.560262,-0.78187 -2.860577,-1.04545 -10.890292,-0.48679 -10.890292,-0.48679 0,0 3.95302,-1.37707 7.657414,-1.35444 z m -23.166027,3.47059 c 0.178376,0.002 0.35439,0.009 0.527616,0.0238 2.771571,0.23422 6.755659,2.57606 6.755659,2.57606 0,0 -3.452511,0.26104 -5.312855,-0.77514 -1.860333,-1.03618 -7.781954,-0.48266 -7.781954,-0.48266 0,0 3.135858,-1.36447 5.811534,-1.34204 z m 20.520194,0.40359 c 0.246959,0.002 0.492884,0.01 0.736388,0.0243 3.896082,0.23633 10.056752,2.59881 10.056752,2.59881 0,0 -4.699675,0.26359 -7.560262,-0.78186 -2.860578,-1.04546 -10.890293,-0.4868 -10.890293,-0.4868 0,0 3.953021,-1.37707 7.657415,-1.35444 z M 19.483253,341.069 c 0.17838,0.002 0.35491,0.009 0.528133,0.0238 2.771574,0.23423 6.755661,2.57607 6.755661,2.57607 0,0 -3.453029,0.26103 -5.313373,-0.77514 -1.86033,-1.03618 -7.781952,-0.48266 -7.781952,-0.48266 0,0 3.135855,-1.36447 5.811531,-1.34204 z m 20.643184,0.43821 c 0.246959,0.002 0.492884,0.009 0.736391,0.0238 3.896082,0.23632 10.056233,2.59932 10.056233,2.59932 0,0 -4.699675,0.26308 -7.560263,-0.78238 -2.860577,-1.04545 -10.889773,-0.48679 -10.889773,-0.48679 0,0 3.953018,-1.37655 7.657412,-1.35392 z m -23.67814,4.43177 c 0.178376,0.002 0.35439,0.009 0.527616,0.0238 2.771572,0.23423 6.75566,2.57607 6.75566,2.57607 0,0 -3.452511,0.26103 -5.312855,-0.77515 -1.860336,-1.03619 -7.781955,-0.48267 -7.781955,-0.48267 0,0 3.135858,-1.36447 5.811534,-1.34204 z m 20.843172,0.48163 c 0.246959,0.002 0.492884,0.01 0.736388,0.0243 3.896082,0.23633 10.056236,2.59881 10.056236,2.59881 0,0 -4.699159,0.26359 -7.559747,-0.78187 -2.860577,-1.04545 -10.890292,-0.48731 -10.890292,-0.48731 0,0 3.95302,-1.37655 7.657415,-1.35392 z m -24.394894,4.57595 c 0.178377,0.002 0.354909,0.009 0.528132,0.0238 2.771571,0.23423 6.75566,2.57607 6.75566,2.57607 0,0 -3.453028,0.26103 -5.313371,-0.77515 -1.860333,-1.03618 -7.7814361,-0.48266 -7.7814361,-0.48266 0,0 3.1353391,-1.36447 5.8110151,-1.34203 z m 20.898467,0.52658 c 0.24696,0.002 0.492882,0.01 0.736389,0.0243 3.896082,0.23632 10.056749,2.59881 10.056749,2.59881 0,0 -4.699675,0.26358 -7.56026,-0.78187 -2.860577,-1.04545 -10.890292,-0.48679 -10.890292,-0.48679 0,0 3.95302,-1.37707 7.657414,-1.35444 z M 9.6492269,356.2412 c 0.17838,0.002 0.3549101,0.009 0.5281321,0.0238 2.771574,0.23423 6.755662,2.57607 6.755662,2.57607 0,0 -3.453029,0.26103 -5.31337,-0.77514 -1.8603361,-1.03619 -7.7819541,-0.48266 -7.7819541,-0.48266 0,0 3.135855,-1.36447 5.81153,-1.34204 z m 21.1222261,0.57361 c 0.246959,0.002 0.492887,0.01 0.736388,0.0243 3.896082,0.23633 10.056236,2.59881 10.056236,2.59881 0,0 -4.699159,0.26359 -7.559747,-0.78186 -2.860577,-1.04546 -10.890289,-0.4868 -10.890289,-0.4868 0,0 3.953017,-1.37706 7.657412,-1.35443 z m -25.0940771,5.88852 c 0.17838,0.002 0.354394,0.009 0.527617,0.0238 2.771573,0.23423 6.7556611,2.57607 6.7556611,2.57607 0,0 -3.4525131,0.26103 -5.3128541,-0.77514 -1.860336,-1.03618 -7.78195401,-0.48266 -7.78195401,-0.48266 0,0 3.13585501,-1.36447 5.81153001,-1.34204 z m 21.4085131,0.63201 c 0.246962,0.002 0.492884,0.009 0.736391,0.0238 3.896082,0.23633 10.056749,2.59933 10.056749,2.59933 0,0 -4.699675,0.26307 -7.560263,-0.78238 -2.860577,-1.04546 -10.889773,-0.4868 -10.889773,-0.4868 0,0 3.952502,-1.37655 7.656896,-1.35392 z m -26.15034111,7.60987 c 0.17837701,0.002 0.35491001,0.009 0.52813201,0.0238 2.771574,0.23424 6.75566,2.57607 6.75566,2.57607 0,0 -3.453027,0.26104 -5.313371,-0.77514 -1.860333,-1.03618 -7.781954,-0.48266 -7.781954,-0.48266 0,0 3.135858,-1.36447 5.81153299,-1.34204 z m 21.89840511,0.70538 c 0.246959,0.002 0.492887,0.009 0.736388,0.0238 3.896082,0.23633 10.056236,2.59933 10.056236,2.59933 0,0 -4.699159,0.26307 -7.559747,-0.78238 -2.860577,-1.04546 -10.89029,-0.48679 -10.89029,-0.48679 0,0 3.953018,-1.37656 7.657413,-1.35393 z"
       id="path895" />
  </g>
</svg>
