<?xml version="1.0" encoding="UTF-8" standalone="no"?>
<!-- Created with Inkscape (http://www.inkscape.org/) -->

<svg
   xmlns:dc="http://purl.org/dc/elements/1.1/"
   xmlns:cc="http://creativecommons.org/ns#"
   xmlns:rdf="http://www.w3.org/1999/02/22-rdf-syntax-ns#"
   xmlns:svg="http://www.w3.org/2000/svg"
   xmlns="http://www.w3.org/2000/svg"
   xmlns:sodipodi="http://sodipodi.sourceforge.net/DTD/sodipodi-0.dtd"
   xmlns:inkscape="http://www.inkscape.org/namespaces/inkscape"
   width="47.43121mm"
   height="28.362415mm"
   viewBox="0 0 47.431209 28.362415"
   version="1.1"
   id="svg1070"
   inkscape:version="0.92.3 (2405546, 2018-03-11)"
   sodipodi:docname="filet.svg">
  <defs
     id="defs1064" />
  <sodipodi:namedview
     id="base"
     pagecolor="#ffffff"
     bordercolor="#666666"
     borderopacity="1.0"
     inkscape:pageopacity="0.0"
     inkscape:pageshadow="2"
     inkscape:zoom="0.35"
     inkscape:cx="-190.66055"
     inkscape:cy="482.41327"
     inkscape:document-units="mm"
     inkscape:current-layer="layer1"
     showgrid="false"
     inkscape:window-width="1080"
     inkscape:window-height="1857"
     inkscape:window-x="1912"
     inkscape:window-y="-8"
     inkscape:window-maximized="1" />
  <metadata
     id="metadata1067">
    <rdf:RDF>
      <cc:Work
         rdf:about="">
        <dc:format>image/svg+xml</dc:format>
        <dc:type
           rdf:resource="http://purl.org/dc/dcmitype/StillImage" />
        <dc:title></dc:title>
      </cc:Work>
    </rdf:RDF>
  </metadata>
  <g
     inkscape:label="Layer 1"
     inkscape:groupmode="layer"
     id="layer1"
     transform="translate(-147.20751,-268.52014)">
    <path
       style="color:#000000;font-style:normal;font-variant:normal;font-weight:normal;font-stretch:normal;font-size:medium;line-height:normal;font-family:sans-serif;font-variant-ligatures:normal;font-variant-position:normal;font-variant-caps:normal;font-variant-numeric:normal;font-variant-alternates:normal;font-feature-settings:normal;text-indent:0;text-align:start;text-decoration:none;text-decoration-line:none;text-decoration-style:solid;text-decoration-color:#000000;letter-spacing:normal;word-spacing:normal;text-transform:none;writing-mode:lr-tb;direction:ltr;text-orientation:mixed;dominant-baseline:auto;baseline-shift:baseline;text-anchor:start;white-space:normal;shape-padding:0;clip-rule:nonzero;display:inline;overflow:visible;visibility:visible;opacity:1;isolation:auto;mix-blend-mode:normal;color-interpolation:sRGB;color-interpolation-filters:linearRGB;solid-color:#000000;solid-opacity:1;vector-effect:none;fill:#000000;fill-opacity:1;fill-rule:nonzero;stroke:none;stroke-width:1.54900002;stroke-linecap:butt;stroke-linejoin:miter;stroke-miterlimit:4;stroke-dasharray:none;stroke-dashoffset:0;stroke-opacity:1;color-rendering:auto;image-rendering:auto;shape-rendering:auto;text-rendering:auto;enable-background:accumulate"
       d="m 172.01013,268.52099 c -3.44787,0.0162 -6.8686,0.21238 -10.00404,0.59583 -3.58336,0.43821 -6.7927,1.11805 -9.27747,2.08979 -2.48477,0.97174 -4.33962,2.23365 -4.90616,4.08037 l 1.48053,0.45269 c 0.33006,-1.07589 1.70121,-2.19446 3.99045,-3.08973 2.28925,-0.89529 5.40162,-1.56816 8.9023,-1.99627 6.95507,-0.85055 15.44772,-0.74255 22.34747,0.19947 3.54356,1.97492 5.99216,4.92325 8.20881,8.17987 -5.25169,8.0636 -14.04194,11.37527 -20.19102,14.52934 -4.33449,-6.55862 -12.67547,-14.3438 -23.50192,-15.9985 l -1.85157,-0.28112 1.11104,1.50791 c 3.3416,4.53637 7.47994,7.3093 11.1895,9.8361 3.70957,2.5268 6.96039,4.80142 8.7912,8.25582 l 1.36891,-0.7245 c -2.05182,-3.87141 -5.57213,-6.28022 -9.28729,-8.81083 -3.16562,-2.15628 -6.46638,-4.46975 -9.33587,-7.7401 9.44843,2.29851 16.91943,9.46854 20.64267,15.35359 l 0.38292,0.60358 0.63304,-0.33228 c 6.073,-3.19085 15.9846,-6.645 21.67154,-15.80679 l 0.26355,-0.42374 -0.27698,-0.416 c -2.37311,-3.54971 -5.09982,-6.93079 -9.19376,-9.16998 l -0.12299,-0.0662 -0.14263,-0.0196 c -3.53987,-0.49059 -7.47042,-0.76455 -11.41377,-0.8046 -0.49292,-0.005 -0.98591,-0.006 -1.47846,-0.004 z m 0.39843,1.92598 -0.79117,1.34927 c 1.33797,0.78567 2.43879,1.30128 3.24425,3.15278 l 1.4335,-0.62529 c -0.98601,-2.26654 -2.60628,-3.12495 -3.88658,-3.87676 z m 6.48435,0.37878 -0.84181,1.31827 c 1.04619,0.6688 1.65215,1.42026 1.91203,2.09961 l 1.46296,-0.55862 c -0.40912,-1.06949 -1.27107,-2.05241 -2.53318,-2.85926 z m -13.94126,0.50592 -0.40463,1.50998 c 2.28087,0.61271 3.51842,1.72952 4.53151,3.11713 l 1.26349,-0.92191 c -1.14875,-1.57343 -2.76909,-3.00105 -5.39037,-3.7052 z m -11.44375,2.35179 -0.22066,1.5503 c 3.71613,0.52798 7.85175,1.08974 11.64839,4.12894 l 0.97875,-1.22266 c -4.15746,-3.32803 -8.69976,-3.92993 -12.40648,-4.45658 z m 32.82849,0.80047 c 0,0 -6.92708,1.111 -10.44329,1.89239 -1.85262,0.41169 -4.33021,1.48867 -6.39082,2.46497 -2.06062,0.97631 -3.68557,1.85776 -3.68557,1.85776 l 0.61702,1.13844 c 0,0 1.59644,-0.86399 3.62303,-1.82418 2.0266,-0.96019 4.50326,-2.01221 6.11746,-2.37091 3.41743,-0.75945 10.36888,-1.87896 10.36887,-1.87896 z m 0.91209,2.45515 -1.22267,0.97668 c 0.72392,0.90676 1.18709,1.90876 1.17151,3.43132 l 1.56683,0.016 c 0.0191,-1.87108 -0.62651,-3.3103 -1.51567,-4.42402 z m -4.7501,0.36122 -1.02526,1.1839 c 2.29525,1.99089 2.77048,3.87656 2.62671,5.96863 l 1.56063,0.10749 c 0.16739,-2.43558 -0.55392,-4.99772 -3.16208,-7.26002 z m -3.93154,1.33997 -1.01596,1.19114 c 2.09453,1.78087 2.82062,4.04997 3.03547,6.7014 l 1.56063,-0.12506 c -0.23293,-2.87453 -1.11153,-5.66853 -3.58014,-7.76748 z m -4.10776,1.47071 -1.07022,1.14256 c 2.02098,1.89246 3.58298,3.97077 3.9982,7.07812 l 1.55081,-0.20722 c -0.4726,-3.53679 -2.32742,-5.9989 -4.47879,-8.01346 z m -4.36098,1.53117 -1.02732,1.18184 c 1.75948,1.52862 3.63093,3.15919 4.07572,7.3458 l 1.55701,-0.16433 c -0.49176,-4.6288 -2.82497,-6.81648 -4.60541,-8.36331 z"
       id="path1314"
       inkscape:connector-curvature="0" />
  </g>
</svg>
