<?xml version="1.0" encoding="UTF-8" standalone="no"?>
<!-- Created with Inkscape (http://www.inkscape.org/) -->

<svg
   xmlns:dc="http://purl.org/dc/elements/1.1/"
   xmlns:cc="http://creativecommons.org/ns#"
   xmlns:rdf="http://www.w3.org/1999/02/22-rdf-syntax-ns#"
   xmlns:svg="http://www.w3.org/2000/svg"
   xmlns="http://www.w3.org/2000/svg"
   xmlns:sodipodi="http://sodipodi.sourceforge.net/DTD/sodipodi-0.dtd"
   xmlns:inkscape="http://www.inkscape.org/namespaces/inkscape"
   width="63.736683mm"
   height="38.78112mm"
   viewBox="0 0 63.736683 38.78112"
   version="1.1"
   id="svg1070"
   inkscape:version="0.92.3 (2405546, 2018-03-11)"
   sodipodi:docname="fish.svg">
  <defs
     id="defs1064" />
  <sodipodi:namedview
     id="base"
     pagecolor="#ffffff"
     bordercolor="#666666"
     borderopacity="1.0"
     inkscape:pageopacity="0.0"
     inkscape:pageshadow="2"
     inkscape:zoom="0.35"
     inkscape:cx="23.304147"
     inkscape:cy="-43.855701"
     inkscape:document-units="mm"
     inkscape:current-layer="layer1"
     showgrid="false"
     inkscape:window-width="1080"
     inkscape:window-height="1857"
     inkscape:window-x="1912"
     inkscape:window-y="-8"
     inkscape:window-maximized="1" />
  <metadata
     id="metadata1067">
    <rdf:RDF>
      <cc:Work
         rdf:about="">
        <dc:format>image/svg+xml</dc:format>
        <dc:type
           rdf:resource="http://purl.org/dc/dcmitype/StillImage" />
        <dc:title></dc:title>
      </cc:Work>
    </rdf:RDF>
  </metadata>
  <g
     inkscape:label="Layer 1"
     inkscape:groupmode="layer"
     id="layer1"
     transform="translate(-90.596016,-118.85944)">
    <path
       style="color:#000000;font-style:normal;font-variant:normal;font-weight:normal;font-stretch:normal;font-size:medium;line-height:normal;font-family:sans-serif;font-variant-ligatures:normal;font-variant-position:normal;font-variant-caps:normal;font-variant-numeric:normal;font-variant-alternates:normal;font-feature-settings:normal;text-indent:0;text-align:start;text-decoration:none;text-decoration-line:none;text-decoration-style:solid;text-decoration-color:#000000;letter-spacing:normal;word-spacing:normal;text-transform:none;writing-mode:lr-tb;direction:ltr;text-orientation:mixed;dominant-baseline:auto;baseline-shift:baseline;text-anchor:start;white-space:normal;shape-padding:0;clip-rule:nonzero;display:inline;overflow:visible;visibility:visible;opacity:1;isolation:auto;mix-blend-mode:normal;color-interpolation:sRGB;color-interpolation-filters:linearRGB;solid-color:#000000;solid-opacity:1;vector-effect:none;fill:#000000;fill-opacity:1;fill-rule:nonzero;stroke:none;stroke-width:1.56500006;stroke-linecap:butt;stroke-linejoin:miter;stroke-miterlimit:4;stroke-dasharray:none;stroke-dashoffset:0;stroke-opacity:1;color-rendering:auto;image-rendering:auto;shape-rendering:auto;text-rendering:auto;enable-background:accumulate"
       d="m 121.80697,118.85944 -11.76156,7.58196 c 0.87467,-0.0501 1.88724,-0.0801 2.96054,-0.046 l 6.76031,-4.35839 -0.75189,5.20433 c 0.56516,0.1268 1.09273,0.25171 1.5291,0.36277 z m 31.74017,6.5505 -1.50172,1.19941 c 0,0 -5.94434,4.79346 -13.09944,10.89649 -0.0115,-0.008 -0.0232,-0.015 -0.0346,-0.0227 l -1.26247,1.03611 c -2.15678,1.79368 -5.47764,4.12335 -8.84751,6.12314 -3.54924,2.10621 -7.12817,3.79577 -8.66821,4.01577 -0.60134,0.0859 -1.14273,0.33812 -1.47071,0.7891 -0.32798,0.45098 -0.37998,0.99808 -0.31264,1.48622 0.13465,0.97628 0.68071,1.93058 1.31051,2.87528 0.42249,0.63371 0.5513,0.6811 0.99219,1.22421 l -14.06426,-5.19193 -0.5917,1.449 16.89044,6.35052 0.86146,-1.26762 c 0,0 -1.6411,-1.71257 -2.78692,-3.43132 -0.57291,-0.85938 -0.99513,-1.74405 -1.06091,-2.22105 -0.0329,-0.2385 0.007,-0.32212 0.0295,-0.35347 0.0228,-0.0314 0.0917,-0.11246 0.4258,-0.16019 2.20174,-0.31453 5.62879,-2.07358 9.24388,-4.21887 3.57441,-2.12117 7.17616,-4.61038 9.43199,-6.53293 l 1.2635,-1.03715 c 6.04896,-5.14695 10.18862,-8.50682 11.2148,-9.33018 l -1.14824,9.19737 1.67173,9.12864 c -3.38831,-2.78157 -6.90956,-5.57065 -10.58746,-8.18399 l -1.20975,1.06867 c 4.31835,3.04068 8.50256,6.34839 12.44006,9.60975 l 1.65624,1.37097 -2.389,-13.03899 z m -41.67135,1.83555 c -2.3352,0.0138 -4.21522,0.27782 -4.28243,0.28732 -1.29032,0.18489 -2.58154,0.45905 -3.87211,0.83612 h -0.002 c -2.66117,0.78783 -5.860438,2.10999 -8.455299,3.92793 -2.594849,1.81794 -4.667935,4.19557 -4.667935,7.11326 0,1.58528 0.91491,3.01402 2.138891,4.29121 1.22397,1.27719 2.805517,2.43054 4.374928,3.41995 3.138815,1.97882 6.258015,3.2985 6.258015,3.2985 l 0.82011,0.34779 0.24029,-0.85732 c 0,0 1.75999,-6.25074 1.89859,-11.10164 0.0682,-2.38569 -0.10084,-3.99077 -0.29714,-5.01985 -0.1963,-1.02909 -0.46095,-1.56011 -0.46095,-1.56011 l -1.38493,0.73225 c 0,0 0.13783,0.22549 0.30903,1.12293 0.17119,0.89744 0.3347,2.38827 0.26923,4.67982 -0.11205,3.92188 -1.27935,8.49281 -1.61696,9.77718 -0.67071,-0.29504 -2.60847,-1.10945 -5.201229,-2.74402 -1.50419,-0.94829 -2.997083,-2.04935 -4.078303,-3.17758 -1.08123,-1.12824 -1.703255,-2.25532 -1.703255,-3.20911 0,-2.16042 1.611812,-4.15886 4.000272,-5.8322 2.38796,-1.67299 5.469375,-2.95802 7.997965,-3.70675 8.40459,-2.45556 16.89013,-0.4638 25.13284,3.67161 2.42484,1.21656 4.80758,2.6641 7.16544,4.19974 l 1.22009,-1.07797 c -2.51563,-1.65352 -5.06983,-3.20845 -7.6843,-4.52014 -2.70502,-1.35713 -5.45932,-2.49635 -8.24599,-3.33571 l -0.005,0.0165 c 0,0 -3.01559,-0.88245 -5.98466,-1.31568 -1.21848,-0.15774 -2.44069,-0.24781 -3.66541,-0.26356 -0.0722,-7e-5 -0.14609,-9.3e-4 -0.21755,-5.1e-4 z m -12.359972,7.81554 c -0.89798,0 -1.634525,0.73655 -1.634525,1.63453 0,0.89798 0.736545,1.63711 1.634525,1.63711 0.897982,0 1.635042,-0.73913 1.635042,-1.63711 0,-0.89798 -0.73706,-1.63453 -1.635042,-1.63453 z m 0,0.86506 c 0.430501,0 0.769462,0.33897 0.769462,0.76947 0,0.4305 -0.338961,0.77153 -0.769462,0.77153 -0.430499,0 -0.769462,-0.34103 -0.769462,-0.77153 0,-0.4305 0.338963,-0.76946 0.769462,-0.76947 z"
       id="path834"
       inkscape:connector-curvature="0" />
  </g>
</svg>
