<?xml version="1.0" encoding="UTF-8" standalone="no"?>
<!-- Created with Inkscape (http://www.inkscape.org/) -->

<svg
   xmlns:dc="http://purl.org/dc/elements/1.1/"
   xmlns:cc="http://creativecommons.org/ns#"
   xmlns:rdf="http://www.w3.org/1999/02/22-rdf-syntax-ns#"
   xmlns:svg="http://www.w3.org/2000/svg"
   xmlns="http://www.w3.org/2000/svg"
   xmlns:sodipodi="http://sodipodi.sourceforge.net/DTD/sodipodi-0.dtd"
   xmlns:inkscape="http://www.inkscape.org/namespaces/inkscape"
   width="127.22014mm"
   height="85.19223mm"
   viewBox="0 0 127.22014 85.19223"
   version="1.1"
   id="svg979"
   inkscape:version="0.92.3 (2405546, 2018-03-11)"
   sodipodi:docname="fish.svg">
  <defs
     id="defs973" />
  <sodipodi:namedview
     id="base"
     pagecolor="#ffffff"
     bordercolor="#666666"
     borderopacity="1.0"
     inkscape:pageopacity="0.0"
     inkscape:pageshadow="2"
     inkscape:zoom="0.35"
     inkscape:cx="191.84458"
     inkscape:cy="415.27892"
     inkscape:document-units="mm"
     inkscape:current-layer="layer1"
     showgrid="false"
     inkscape:window-width="1920"
     inkscape:window-height="1017"
     inkscape:window-x="-8"
     inkscape:window-y="-8"
     inkscape:window-maximized="1" />
  <metadata
     id="metadata976">
    <rdf:RDF>
      <cc:Work
         rdf:about="">
        <dc:format>image/svg+xml</dc:format>
        <dc:type
           rdf:resource="http://purl.org/dc/dcmitype/StillImage" />
        <dc:title></dc:title>
      </cc:Work>
    </rdf:RDF>
  </metadata>
  <g
     inkscape:label="Layer 1"
     inkscape:groupmode="layer"
     id="layer1"
     transform="translate(87.044594,-173.51698)">
    <path
       style="fill:#000000;stroke:none;stroke-width:0.26458332px;stroke-linecap:butt;stroke-linejoin:miter;stroke-opacity:1"
       d="m -15.149243,173.51698 c 0,0 -18.708651,4.27624 -23.519501,9.62163 -2.90101,3.22336 -5.114811,7.50604 -6.420789,10.40608 -27.583521,6.69222 -41.955061,25.14059 -41.955061,25.14059 0,0 15.67787,20.12187 45.709351,25.95862 1.154059,2.41001 4.745421,7.37325 6.911919,9.78048 4.14438,4.60487 17.054071,4.27986 17.054071,4.27986 -3.94425,-5.85275 -1.417741,-9.14192 0.43511,-12.82992 20.2028292,-1.76006 34.632739,-10.01032 43.447989,-16.96693 3.89131,11.5178 13.6617,18.37614 13.6617,18.37614 v -51.85058 c 0,0 -8.83937,4.03405 -13.0514,13.51701 -8.59421,-6.92572 -22.8569488,-15.3388 -42.946219,-17.34623 -2.348471,-4.27606 -4.1666,-10.90567 0.67283,-18.08675 z m -45.970321,32.87396 c 2.066619,-7e-5 3.741961,1.67527 3.74189,3.74189 7.1e-5,2.06662 -1.675271,3.74196 -3.74189,3.74189 -2.06661,7e-5 -3.74196,-1.67527 -3.74189,-3.74189 -7e-5,-2.06662 1.67528,-3.74196 3.74189,-3.74189 z"
       id="path822"
       inkscape:connector-curvature="0"
       sodipodi:nodetypes="cscccsccccccccccccc" />
  </g>
</svg>
