<?xml version="1.0" encoding="UTF-8" standalone="no"?>
<!-- Created with Inkscape (http://www.inkscape.org/) -->

<svg
   xmlns:dc="http://purl.org/dc/elements/1.1/"
   xmlns:cc="http://creativecommons.org/ns#"
   xmlns:rdf="http://www.w3.org/1999/02/22-rdf-syntax-ns#"
   xmlns:svg="http://www.w3.org/2000/svg"
   xmlns="http://www.w3.org/2000/svg"
   xmlns:sodipodi="http://sodipodi.sourceforge.net/DTD/sodipodi-0.dtd"
   xmlns:inkscape="http://www.inkscape.org/namespaces/inkscape"
   width="45.162495mm"
   height="37.186096mm"
   viewBox="0 0 45.162494 37.186096"
   version="1.1"
   id="svg1070"
   inkscape:version="0.92.3 (2405546, 2018-03-11)"
   sodipodi:docname="grinded.svg">
  <defs
     id="defs1064" />
  <sodipodi:namedview
     id="base"
     pagecolor="#ffffff"
     bordercolor="#666666"
     borderopacity="1.0"
     inkscape:pageopacity="0.0"
     inkscape:pageshadow="2"
     inkscape:zoom="0.35"
     inkscape:cx="-276.74267"
     inkscape:cy="749.82907"
     inkscape:document-units="mm"
     inkscape:current-layer="layer1"
     showgrid="false"
     inkscape:window-width="1080"
     inkscape:window-height="1857"
     inkscape:window-x="1912"
     inkscape:window-y="-8"
     inkscape:window-maximized="1" />
  <metadata
     id="metadata1067">
    <rdf:RDF>
      <cc:Work
         rdf:about="">
        <dc:format>image/svg+xml</dc:format>
        <dc:type
           rdf:resource="http://purl.org/dc/dcmitype/StillImage" />
        <dc:title></dc:title>
      </cc:Work>
    </rdf:RDF>
  </metadata>
  <g
     inkscape:label="Layer 1"
     inkscape:groupmode="layer"
     id="layer1"
     transform="translate(-169.9834,-330.45022)">
    <path
       inkscape:connector-curvature="0"
       style="color:#000000;font-style:normal;font-variant:normal;font-weight:normal;font-stretch:normal;font-size:medium;line-height:normal;font-family:sans-serif;font-variant-ligatures:normal;font-variant-position:normal;font-variant-caps:normal;font-variant-numeric:normal;font-variant-alternates:normal;font-feature-settings:normal;text-indent:0;text-align:start;text-decoration:none;text-decoration-line:none;text-decoration-style:solid;text-decoration-color:#000000;letter-spacing:normal;word-spacing:normal;text-transform:none;writing-mode:lr-tb;direction:ltr;text-orientation:mixed;dominant-baseline:auto;baseline-shift:baseline;text-anchor:start;white-space:normal;shape-padding:0;clip-rule:nonzero;display:inline;overflow:visible;visibility:visible;opacity:1;isolation:auto;mix-blend-mode:normal;color-interpolation:sRGB;color-interpolation-filters:linearRGB;solid-color:#000000;solid-opacity:1;vector-effect:none;fill:#000000;fill-opacity:1;fill-rule:nonzero;stroke:none;stroke-width:0.80000001;stroke-linecap:square;stroke-linejoin:miter;stroke-miterlimit:4;stroke-dasharray:none;stroke-dashoffset:0;stroke-opacity:1;paint-order:markers fill stroke;color-rendering:auto;image-rendering:auto;shape-rendering:auto;text-rendering:auto;enable-background:accumulate"
       d="m 174.52239,330.45022 c -1.34824,0 -2.3397,0.58755 -2.67787,1.54668 -0.33818,0.95913 -0.0504,2.1534 0.75809,3.39255 l 13.50977,20.7052 c 1.52343,2.33478 4.49335,4.26592 7.08691,4.4819 0.0452,0.004 0.0894,0.003 0.13435,0.006 0.11391,0.008 0.22778,0.0165 0.339,0.0165 h 18.65829 c 0.008,0 0.0152,-10e-4 0.0233,-10e-4 0.12901,-5.3e-4 0.25409,-0.008 0.3762,-0.0196 0.0208,-0.002 0.0425,-0.003 0.0631,-0.005 1.11041,-0.11991 1.91552,-0.67615 2.2133,-1.52188 0.33771,-0.95917 0.0509,-2.15553 -0.75758,-3.39462 l -13.5077,-20.70313 c -1.617,-2.47817 -4.86431,-4.5036 -7.56078,-4.5036 z m 0,0.79892 h 8.29769 l -10e-4,5.3e-4 h -8.29665 c -0.14988,0 -0.29206,0.008 -0.4284,0.0217 0.13339,-0.0141 0.27478,-0.0222 0.4284,-0.0222 z m 8.68526,0 h 9.97303 c 0.001,0 0.003,5.3e-4 0.005,5.3e-4 -0.002,0 -0.003,0 -0.005,0 h -9.97252 z m -9.25525,0.0444 c -0.0673,0.01 -0.13424,0.0194 -0.19792,0.0326 0.0617,-0.0139 0.13088,-0.0224 0.19792,-0.0326 z m 1.12654,0.80874 h 6.81819 l 4.62298,7.21868 h -9.38031 l -2.84995,-4.36718 c -0.60138,-0.92164 -0.7157,-1.67545 -0.56224,-2.12493 0.11397,-0.33382 0.36012,-0.57156 0.80925,-0.67231 0.029,-0.006 0.059,-0.0107 0.0889,-0.0155 0.0479,-0.008 0.0956,-0.0167 0.1478,-0.0222 0.0978,-0.01 0.19897,-0.0165 0.3054,-0.0165 z m 8.67545,0 h 9.98285 c 0.002,0 0.004,5.2e-4 0.006,5.2e-4 1.61403,0.003 4.1094,1.44543 5.31078,3.28662 l 13.50977,20.7052 c 0.60137,0.92164 0.71616,1.67515 0.56276,2.12494 -0.15341,0.44978 -0.545,0.72657 -1.35186,0.72657 h -10.8937 l 0.046,-0.0295 z m 1.7172,0.70745 -0.076,1.22214 c 0,0 0.79007,0.0516 1.66966,0.2465 0.87959,0.1949 1.79186,0.61396 1.99626,0.92346 0.10221,0.15474 0.12118,0.29697 0.0744,0.55862 -0.0467,0.26166 -0.17963,0.60265 -0.33228,0.97462 -0.15264,0.37197 -0.32572,0.77643 -0.40618,1.2268 -0.0805,0.45038 -0.047,0.98744 0.25787,1.449 0.30484,0.46159 0.77972,0.70657 1.22835,0.82631 0.44864,0.11975 0.89894,0.14367 1.31464,0.17002 0.41572,0.0263 0.79716,0.0548 1.07384,0.12867 0.27669,0.0738 0.41973,0.16359 0.52193,0.31833 0.1022,0.15475 0.12066,0.29696 0.0739,0.55862 -0.0468,0.26165 -0.17912,0.60265 -0.33176,0.97462 -0.15265,0.37196 -0.32571,0.77436 -0.40618,1.22473 -0.0805,0.45038 -0.0475,0.98949 0.25735,1.45107 0.30484,0.46157 0.78023,0.70656 1.22886,0.82631 0.44865,0.11974 0.89843,0.1416 1.31414,0.16795 0.41571,0.0263 0.79766,0.0569 1.07435,0.13074 0.2767,0.0738 0.42127,0.16357 0.52348,0.31833 0.1022,0.15474 0.11906,0.29697 0.0724,0.55862 -0.0467,0.26165 -0.17964,0.60264 -0.33228,0.97461 -0.15265,0.37197 -0.32572,0.77436 -0.40618,1.22474 -0.0805,0.45038 -0.0469,0.98742 0.25787,1.449 0.30485,0.46157 0.78177,0.70864 1.23041,0.82838 0.44863,0.11975 0.89687,0.1416 1.31258,0.16795 0.41572,0.0264 0.79767,0.0569 1.07436,0.13074 0.27669,0.0739 0.42128,0.16202 0.52348,0.31677 0.20441,0.30949 0.20599,1.25307 0.0155,2.09341 -0.19046,0.84033 -0.47852,1.54513 -0.47852,1.54513 l 1.13275,0.46457 c 0,0 0.32445,-0.78218 0.54105,-1.73788 0.19654,-0.86713 0.38028,-1.9038 -0.0424,-2.77812 0.40707,0.0932 0.81159,0.11716 1.18908,0.14108 0.41571,0.0264 0.79767,0.0569 1.07435,0.13074 0.27669,0.0739 0.42129,0.16358 0.52348,0.31832 0.20442,0.30949 0.20599,1.25153 0.0155,2.09186 -0.19056,0.84034 -0.47853,1.54513 -0.47853,1.54513 l 1.13482,0.46664 c 0,0 0.32237,-0.78424 0.53898,-1.73995 0.18224,-0.80405 0.35418,-1.75269 0.0419,-2.5833 0.44171,0.11496 0.88262,0.13736 1.29191,0.1633 0.41571,0.0264 0.79767,0.0569 1.07436,0.13074 0.27668,0.0738 0.42128,0.16151 0.52348,0.31626 0.20441,0.30949 0.20598,1.25359 0.0155,2.09393 -0.19046,0.84033 -0.47852,1.54512 -0.47852,1.54512 l 1.13481,0.46457 c 0,0 0.32238,-0.78269 0.53898,-1.73839 0.21661,-0.9557 0.42212,-2.11595 -0.18758,-3.03909 -0.30485,-0.46158 -0.78177,-0.70811 -1.23041,-0.82786 -0.44865,-0.11974 -0.89688,-0.1416 -1.31259,-0.16795 -0.41571,-0.0263 -0.79921,-0.0569 -1.0759,-0.13074 -0.27669,-0.0739 -0.41922,-0.16203 -0.52142,-0.31678 -0.10219,-0.15475 -0.12117,-0.29851 -0.0744,-0.56017 0.0468,-0.26165 0.18118,-0.60265 0.33383,-0.97462 0.15264,-0.37197 0.32416,-0.77435 0.40463,-1.22473 0.0805,-0.45037 0.0469,-0.98794 -0.25787,-1.44952 -0.30484,-0.46157 -0.77971,-0.70604 -1.22835,-0.82579 -0.44864,-0.11975 -0.89687,-0.14367 -1.31258,-0.17002 -0.41571,-0.0263 -0.79973,-0.0553 -1.07642,-0.12919 -0.27669,-0.0738 -0.4192,-0.16358 -0.52141,-0.31833 -0.1022,-0.15474 -0.12066,-0.29696 -0.0739,-0.55862 0.0467,-0.26165 0.17912,-0.60264 0.33176,-0.97461 0.15265,-0.37197 0.32572,-0.77591 0.40618,-1.22628 0.0805,-0.45039 0.0469,-0.98744 -0.25787,-1.44901 -0.30484,-0.46157 -0.77972,-0.70657 -1.22835,-0.82631 -0.44864,-0.11975 -0.89893,-0.14367 -1.31464,-0.17001 -0.41571,-0.0264 -0.79715,-0.0554 -1.07384,-0.12919 -0.27669,-0.0738 -0.41973,-0.16358 -0.52193,-0.31833 -0.1022,-0.15474 -0.12067,-0.29697 -0.0739,-0.55863 0.0468,-0.26166 0.17912,-0.60213 0.33176,-0.9741 0.15265,-0.37197 0.32624,-0.77435 0.4067,-1.22473 0.0805,-0.45038 0.0469,-0.9895 -0.25787,-1.45107 -0.60969,-0.92315 -1.76757,-1.2252 -2.75435,-1.44384 -0.98677,-0.21865 -1.85725,-0.27337 -1.85725,-0.27337 l -0.0491,0.76791 c -0.63243,-0.50276 -1.48342,-0.72001 -2.23604,-0.88676 -0.98677,-0.21865 -1.85725,-0.27337 -1.85725,-0.27337 l -0.0537,0.84129 c 0,0 -5.3e-4,0 -5.3e-4,0 -0.60628,-0.40375 -1.3654,-0.59331 -2.0438,-0.74362 -0.98678,-0.21866 -1.85932,-0.27337 -1.85932,-0.27337 z m 4.408,1.45365 c 0.30543,0.0374 0.71105,0.0975 1.14102,0.19276 0.87958,0.19489 1.7934,0.61396 1.99781,0.92346 0.1022,0.15475 0.11906,0.29696 0.0724,0.55862 -0.0467,0.26165 -0.17912,0.60264 -0.33177,0.97462 -0.15264,0.37196 -0.32571,0.77435 -0.40617,1.22473 -0.0658,0.36826 -0.0527,0.79401 0.11989,1.18959 -0.40987,-0.0949 -0.8186,-0.12063 -1.19838,-0.1447 -0.41571,-0.0264 -0.79767,-0.0549 -1.07435,-0.12867 -0.27669,-0.0738 -0.41921,-0.16358 -0.52142,-0.31833 -0.1022,-0.15475 -0.12066,-0.29697 -0.0739,-0.55862 0.0468,-0.26166 0.17912,-0.60265 0.33177,-0.97462 0.15264,-0.37197 0.3257,-0.77435 0.40617,-1.22473 0.0805,-0.45038 0.047,-0.9895 -0.25786,-1.45107 -0.0625,-0.0946 -0.13199,-0.18095 -0.20516,-0.26304 z m 4.12171,0.38758 c 0.30728,0.0372 0.72318,0.0987 1.16169,0.19585 0.87959,0.1949 1.79185,0.61396 1.99626,0.92346 0.10221,0.15475 0.12119,0.29697 0.0744,0.55862 -0.0467,0.26166 -0.17964,0.60473 -0.33228,0.97669 -0.15266,0.37197 -0.32572,0.77436 -0.40618,1.22473 -0.0553,0.30932 -0.0541,0.65925 0.0491,0.99787 0,0 -5.3e-4,0 -5.3e-4,0 -0.44864,-0.11975 -0.89635,-0.1416 -1.31206,-0.16795 -0.41571,-0.0263 -0.79973,-0.0569 -1.07642,-0.13074 -0.27669,-0.0738 -0.41921,-0.16358 -0.52142,-0.31833 -0.1022,-0.15474 -0.12117,-0.29697 -0.0744,-0.55862 0.0467,-0.26166 0.17964,-0.60265 0.33228,-0.97462 0.15265,-0.37197 0.32571,-0.77435 0.40618,-1.22473 0.0805,-0.45038 0.0469,-0.98743 -0.25787,-1.449 -0.0122,-0.0185 -0.0261,-0.0352 -0.0388,-0.0532 z m -22.54694,1.49448 -0.28164,0.7736 c -0.42624,1.17481 -0.92019,2.48017 -1.11104,3.82199 -0.19085,1.34183 -0.0676,2.74061 0.76171,4.01164 l 0.004,0.006 12.93771,18.37304 c 1.52308,2.33421 4.49243,4.27624 7.08794,4.48396 0.008,5.3e-4 0.0151,5.3e-4 0.0227,10e-4 0.15245,0.0131 0.30278,0.0203 0.45061,0.0196 l 16.62018,-0.0713 0.35708,-0.002 c 0.0259,-1.1e-4 0.0512,-0.002 0.077,-0.002 0.13121,-0.002 0.26217,-0.004 0.39067,-0.0114 1.12205,-0.0592 2.18458,-0.33085 3.00344,-1.05317 0.9314,-0.82159 1.47639,-2.18573 1.47639,-4.24987 v -0.38499 l -0.38447,-0.0155 c -0.44145,-0.0166 -0.27703,-0.0597 -1.06247,0.002 l -0.36948,0.0295 v 0.36897 c 0,1.9363 -0.51036,2.77259 -1.17357,3.20135 -0.66321,0.42877 -1.60111,0.45858 -2.51562,0.46251 l -16.97674,0.0744 c -1.6109,0.007 -4.11345,-1.44549 -5.31647,-3.28921 l -0.004,-0.008 -12.93565,-18.37149 c -0.61671,-0.94516 -0.85109,-1.62922 -0.83819,-2.52904 0.0129,-0.89983 0.30278,-2.03998 0.81494,-3.76566 l 0.0543,-0.18345 -0.11111,-0.15813 c -0.28449,-0.40789 -0.2211,-0.31389 -0.54518,-0.83613 z m 22.50095,4.29276 c 0.40981,0.0949 0.81812,0.12063 1.19786,0.1447 0.41571,0.0263 0.79767,0.0569 1.07435,0.13074 0.27669,0.0738 0.42128,0.16203 0.52349,0.31678 0.1022,0.15476 0.11905,0.29644 0.0724,0.5581 -0.0467,0.26165 -0.17912,0.60471 -0.33177,0.97668 -0.15264,0.37197 -0.32417,0.77436 -0.40463,1.22473 -0.0658,0.36828 -0.0538,0.79402 0.11834,1.1896 -0.40969,-0.095 -0.81641,-0.12062 -1.1963,-0.1447 -0.41571,-0.0263 -0.79974,-0.0569 -1.07642,-0.13074 -0.27669,-0.0738 -0.41922,-0.16152 -0.52142,-0.31626 -0.1022,-0.15475 -0.12119,-0.29696 -0.0744,-0.55862 0.0467,-0.26165 0.17963,-0.60471 0.33227,-0.97669 0.15265,-0.37197 0.32572,-0.77435 0.40618,-1.22473 0.0658,-0.36824 0.0527,-0.79404 -0.11989,-1.18959 z m 4.0256,0.36742 c 0,0 5.3e-4,0 5.3e-4,0 0.44863,0.11975 0.89893,0.14367 1.31464,0.17002 0.41572,0.0263 0.79715,0.0549 1.07384,0.12867 0.27669,0.0738 0.42127,0.16358 0.52348,0.31833 0.1022,0.15475 0.11906,0.29696 0.0724,0.55862 -0.0467,0.26165 -0.17911,0.60265 -0.33176,0.97462 -0.15264,0.37196 -0.32571,0.77436 -0.40618,1.22473 -0.0553,0.30949 -0.0543,0.66056 0.0491,0.99994 0,0 -5.3e-4,0 -5.3e-4,0 -0.44864,-0.11974 -0.89687,-0.14367 -1.31258,-0.17002 -0.41571,-0.0263 -0.79921,-0.0548 -1.0759,-0.12867 -0.27669,-0.0738 -0.41921,-0.16358 -0.52142,-0.31833 -0.1022,-0.15475 -0.12117,-0.29696 -0.0744,-0.55862 0.0468,-0.26165 0.18118,-0.60265 0.33383,-0.97462 0.15264,-0.37196 0.32417,-0.77435 0.40463,-1.22473 0.0553,-0.30949 0.0538,-0.66056 -0.0496,-0.99994 z m -19.81895,0.0822 h 9.3617 l 11.56519,18.05833 h -5.97276 c -1.61371,0 -4.11373,-1.4459 -5.31647,-3.28921 z m 19.52542,5.20226 c 0.41023,0.0953 0.81801,0.12111 1.19838,0.14521 0.41571,0.0264 0.79766,0.0549 1.07435,0.12868 0.27669,0.0738 0.42128,0.16356 0.52349,0.31832 0.1022,0.15475 0.11905,0.29698 0.0723,0.55863 -0.0468,0.26165 -0.17964,0.60264 -0.33228,0.97462 -0.15265,0.37197 -0.32365,0.77435 -0.40411,1.22473 -0.0657,0.36768 -0.0541,0.79407 0.11731,1.18959 -0.40934,-0.0945 -0.81622,-0.11857 -1.19579,-0.14263 -0.41571,-0.0263 -0.79922,-0.0569 -1.07591,-0.13074 -0.27669,-0.0739 -0.41921,-0.16359 -0.52141,-0.31833 -0.1022,-0.15475 -0.12118,-0.29696 -0.0744,-0.55862 0.0467,-0.26165 0.18119,-0.60265 0.33383,-0.97462 0.15265,-0.37197 0.32417,-0.77435 0.40463,-1.22473 0.0658,-0.3684 0.0524,-0.79441 -0.12041,-1.19011 z m 4.02663,0.36794 c 0.44864,0.11974 0.89842,0.1416 1.31413,0.16795 0.41571,0.0263 0.79767,0.0569 1.07436,0.13074 0.27669,0.0739 0.42127,0.16357 0.52348,0.31833 0.1022,0.15474 0.11906,0.29697 0.0724,0.55862 -0.0467,0.26165 -0.17912,0.60265 -0.33177,0.97462 -0.15264,0.37197 -0.32416,0.77435 -0.40462,1.22473 -0.0554,0.31009 -0.0554,0.66105 0.0481,1.00045 -2.7e-4,-9e-5 -8e-4,-5.3e-4 -0.001,-5.3e-4 -0.44863,-0.11974 -0.89687,-0.14367 -1.31258,-0.17001 -0.41571,-0.0263 -0.79767,-0.0549 -1.07435,-0.12867 -0.2767,-0.0738 -0.42129,-0.16358 -0.52349,-0.31833 -0.10221,-0.15475 -0.12067,-0.29697 -0.0739,-0.55862 0.0467,-0.26166 0.18119,-0.60265 0.33383,-0.97462 0.15266,-0.37197 0.32365,-0.77643 0.40412,-1.2268 0.0553,-0.3093 0.0546,-0.65927 -0.0486,-0.99787 z m -10.72079,12.6075 c 0.17792,0.0734 0.35517,0.1472 0.53175,0.21859 -0.17552,-0.0659 -0.35207,-0.13685 -0.53175,-0.21859 z m 21.41936,0.61081 c -0.035,0.009 -0.0737,0.0131 -0.11007,0.0202 0.0368,-0.006 0.0741,-0.0122 0.11007,-0.0202 z m -0.28215,0.0496 c -0.11297,0.0136 -0.23069,0.0217 -0.35553,0.0217 h -12.14448 l 0.001,-5.3e-4 h 12.14292 c 0.12202,0 0.24062,-0.008 0.35605,-0.0212 z m -18.74459,0.0212 h 6.21564 l 5.3e-4,5.3e-4 h -6.21357 c -8e-4,-6e-5 -0.002,-5.3e-4 -0.003,-5.3e-4 z m -4.75372,6.35361 c 0.17933,0.0744 0.35769,0.149 0.53589,0.22118 -0.17704,-0.0666 -0.35485,-0.13846 -0.53589,-0.22118 z m 19.04225,0.61185 -16.63619,0.0718 c -0.003,-2.6e-4 -0.007,-0.002 -0.01,-0.002 z"
       id="path947" />
  </g>
</svg>
