<?xml version="1.0" encoding="UTF-8" standalone="no"?>
<!-- Created with Inkscape (http://www.inkscape.org/) -->

<svg
   xmlns:dc="http://purl.org/dc/elements/1.1/"
   xmlns:cc="http://creativecommons.org/ns#"
   xmlns:rdf="http://www.w3.org/1999/02/22-rdf-syntax-ns#"
   xmlns:svg="http://www.w3.org/2000/svg"
   xmlns="http://www.w3.org/2000/svg"
   xmlns:sodipodi="http://sodipodi.sourceforge.net/DTD/sodipodi-0.dtd"
   xmlns:inkscape="http://www.inkscape.org/namespaces/inkscape"
   width="38.68058mm"
   height="45.03091mm"
   viewBox="0 0 38.68058 45.03091"
   version="1.1"
   id="svg1070"
   inkscape:version="0.92.3 (2405546, 2018-03-11)"
   sodipodi:docname="steak.svg">
  <defs
     id="defs1064" />
  <sodipodi:namedview
     id="base"
     pagecolor="#ffffff"
     bordercolor="#666666"
     borderopacity="1.0"
     inkscape:pageopacity="0.0"
     inkscape:pageshadow="2"
     inkscape:zoom="0.98994949"
     inkscape:cx="23.203353"
     inkscape:cy="164.83832"
     inkscape:document-units="mm"
     inkscape:current-layer="layer1"
     showgrid="false"
     inkscape:window-width="1080"
     inkscape:window-height="1857"
     inkscape:window-x="1912"
     inkscape:window-y="-8"
     inkscape:window-maximized="1" />
  <metadata
     id="metadata1067">
    <rdf:RDF>
      <cc:Work
         rdf:about="">
        <dc:format>image/svg+xml</dc:format>
        <dc:type
           rdf:resource="http://purl.org/dc/dcmitype/StillImage" />
        <dc:title />
      </cc:Work>
    </rdf:RDF>
  </metadata>
  <g
     inkscape:label="Layer 1"
     inkscape:groupmode="layer"
     id="layer1"
     transform="translate(-170.16716,-288.31925)">
    <path
       style="color:#000000;font-style:normal;font-variant:normal;font-weight:normal;font-stretch:normal;font-size:medium;line-height:normal;font-family:sans-serif;font-variant-ligatures:normal;font-variant-position:normal;font-variant-caps:normal;font-variant-numeric:normal;font-variant-alternates:normal;font-feature-settings:normal;text-indent:0;text-align:start;text-decoration:none;text-decoration-line:none;text-decoration-style:solid;text-decoration-color:#000000;letter-spacing:normal;word-spacing:normal;text-transform:none;writing-mode:lr-tb;direction:ltr;text-orientation:mixed;dominant-baseline:auto;baseline-shift:baseline;text-anchor:start;white-space:normal;shape-padding:0;clip-rule:nonzero;display:inline;overflow:visible;visibility:visible;opacity:1;isolation:auto;mix-blend-mode:normal;color-interpolation:sRGB;color-interpolation-filters:linearRGB;solid-color:#000000;solid-opacity:1;vector-effect:none;fill:#000000;fill-opacity:1;fill-rule:nonzero;stroke:none;stroke-width:1.51999998;stroke-linecap:butt;stroke-linejoin:miter;stroke-miterlimit:4;stroke-dasharray:none;stroke-dashoffset:0;stroke-opacity:1;color-rendering:auto;image-rendering:auto;shape-rendering:auto;text-rendering:auto;enable-background:accumulate"
       d="m 188.17486,288.83474 c -0.35958,0.0481 -0.69873,0.0978 -1.01446,0.14864 -0.63144,0.10175 -1.16762,0.20679 -1.5963,0.31612 -0.42868,0.10933 -0.70425,0.15243 -1.0556,0.42157 l 0.92576,1.2058 c -0.11689,0.0895 0.1454,-0.0639 0.50523,-0.15571 0.35983,-0.0918 0.86326,-0.19038 1.46417,-0.28721 1.20182,-0.19366 2.80418,-0.37762 4.57281,-0.49759 3.42915,-0.2326 7.46254,-0.19897 10.47162,0.36389 0.29558,0.45619 4.52696,7.0293 4.85234,12.52643 0.16936,2.86142 -0.54185,7.22302 -1.31168,10.81341 -0.76198,3.55381 -1.55125,6.30736 -1.56758,6.36439 -0.0224,0.0503 -0.87332,1.95523 -3.73415,5.19593 -1.33049,1.50716 -3.98627,3.12141 -6.28263,4.29273 -1.62077,0.82672 -2.27841,1.06774 -2.98466,1.36185 0.0326,-0.25362 0.11168,-1.00579 2.27446,-14.73419 2.3376,-14.83801 -10.58224,-25.6194 -10.58224,-25.6194 l -0.31909,-0.26689 -0.39508,0.12256 c 0,0 -1.98105,0.63399 -4.3184,2.82417 -2.33734,2.19018 -5.10733,5.96291 -6.96361,12.25453 -3.77737,12.80292 4.9458,26.66386 4.9458,26.66386 l 0.45788,0.73692 2.97528,-2.44379 -0.0657,-0.4286 c 0,0 -0.0533,-0.37697 -0.0737,-0.51565 l 0.11539,0.0229 c 0,0 0.23569,-1.20277 0.54633,-2.59301 0.31064,-1.39024 0.71844,-3.00956 0.97089,-3.64641 0.28523,-0.71958 0.94018,-2.1462 1.63014,-3.39109 0.34499,-0.62245 0.70153,-1.20281 1.01185,-1.62236 0.31033,-0.41955 0.66058,-0.6429 0.54083,-0.60266 l -0.49741,-1.48223 c -0.63525,0.21354 -0.92403,0.64353 -1.3017,1.15414 -0.37767,0.5106 -0.7563,1.13657 -1.12169,1.79583 -0.73077,1.31853 -1.39254,2.75447 -1.71692,3.5728 -0.24488,0.61776 -0.49473,1.55356 -0.73002,2.53313 -0.18226,-1.59113 -0.35583,-3.35502 -0.44302,-4.9363 0.15968,0.2919 0.31718,0.53032 0.45998,0.71837 0.29179,0.38423 0.58009,0.60711 0.58009,0.60711 l 0.92149,-1.26481 c 0,0 -0.0597,-0.0303 -0.25523,-0.28782 -0.19554,-0.25749 -0.47082,-0.70017 -0.7269,-1.40685 -0.48525,-1.33956 -0.5247,-3.37897 -0.52502,-3.39597 0.0841,-0.25854 0.17531,-0.51789 0.27467,-0.77833 0.093,0.54397 0.21859,1.0897 0.39294,1.57096 0.30752,0.84867 0.65897,1.43691 0.95076,1.82116 0.29178,0.38423 0.5798,0.60507 0.5798,0.60507 l 0.92178,-1.26278 c 0,0 -0.0599,-0.0319 -0.25545,-0.28934 -0.19553,-0.25749 -0.4714,-0.7006 -0.72748,-1.4073 -0.41372,-1.14206 -0.52258,-3.37069 -0.54294,-3.87508 0.0145,-0.0266 0.0284,-0.0553 0.0428,-0.0816 0.0709,-0.1292 0.12297,-0.21531 0.18681,-0.32824 0.0916,0.80336 0.2457,1.69474 0.51456,2.43682 0.30752,0.84868 0.65898,1.43692 0.95076,1.82115 0.29178,0.38424 0.57987,0.60558 0.57987,0.60558 l 0.92171,-1.26327 c 0,0 -0.0597,-0.0303 -0.25524,-0.28783 -0.19553,-0.25747 -0.47162,-0.70214 -0.72769,-1.40882 -0.33594,-0.92736 -0.47106,-2.6146 -0.52224,-3.4955 0.98531,1.5722 3.15473,5.34653 3.56425,9.58049 0.52128,5.38942 -1.92842,10.61947 -1.92842,10.61947 l -0.0197,0.0419 -0.014,0.0416 c -0.15434,0.45851 0.0573,0.75669 0.18959,0.93412 0.13234,0.17742 0.27697,0.31032 0.44134,0.44702 0.32875,0.27339 0.7402,0.54502 1.17022,0.80844 0.86004,0.52684 1.67927,0.96623 2.14123,1.14018 l 0.53454,-1.4236 c -0.0833,-0.0314 -1.09253,-0.52883 -1.88288,-1.01297 -0.39518,-0.24209 -0.76625,-0.49502 -0.99074,-0.68171 -0.0294,-0.0245 -0.0283,-0.0261 -0.0521,-0.0481 0.27025,-0.58406 2.46529,-5.42719 1.92498,-11.01344 -0.57663,-5.96163 -4.6487,-11.69341 -4.6487,-11.69341 l -0.60658,-0.86744 -0.62846,0.85284 c 0,0 -1.08012,1.467 -2.17569,3.46373 -1.09558,1.99671 -2.24316,4.51728 -2.32634,6.84515 -0.14854,4.15644 0.96633,11.41465 1.07592,12.12211 l -0.93032,0.76513 c -1.14223,-1.97863 -7.57995,-13.76305 -4.36427,-24.66219 1.78707,-6.05701 4.40525,-9.56906 6.54621,-11.57521 1.75228,-1.64195 2.90002,-2.13358 3.344,-2.30334 0.97585,0.85385 11.8172,10.63688 9.72795,23.89851 -2.36304,14.99954 -2.49258,16.1631 -2.49258,16.1631 l -0.13853,1.25185 1.17206,-0.46185 c 0,0 1.99507,-0.78287 4.36198,-1.99017 2.36691,-1.20731 5.11101,-2.80666 6.73062,-4.64133 3.0014,-3.39994 4.00485,-5.61835 4.00485,-5.61835 l 0.0209,-0.0484 0.0142,-0.0516 c 0,0 0.82768,-2.88529 1.60913,-6.52988 0.78146,-3.64458 1.53267,-8.03066 1.34379,-11.22177 -0.37974,-6.41557 -5.26896,-13.57279 -5.26896,-13.57279 l -0.17412,-0.26003 -0.3045,-0.0618 c -3.29155,-0.66946 -7.57719,-0.6676 -11.19773,-0.42201 -1.35771,0.0921 -2.6194,0.22015 -3.69814,0.3643 z m 7.04261,5.20459 -0.0723,2.32949 c 0,0 -0.0361,1.10873 -0.19574,2.23821 -0.0798,0.56475 -0.19348,1.13531 -0.33106,1.53916 -0.0688,0.20191 -0.14549,0.35946 -0.20243,0.44418 0,0 -4.5e-4,5.8e-4 -4.5e-4,5.8e-4 -0.005,-0.003 -0.002,-7.1e-4 -0.008,-0.005 -0.10939,-0.0775 -0.28752,-0.25387 -0.47525,-0.4955 -0.37547,-0.48327 -0.80625,-1.21696 -1.19603,-1.96687 -0.77959,-1.49981 -1.4111,-3.06439 -1.4111,-3.06439 l -1.14774,0.46419 c 0,0 0.6439,1.60308 1.4596,3.17241 0.40785,0.78465 0.85451,1.55961 1.31672,2.15452 0.23111,0.29747 0.46277,0.55234 0.73739,0.74688 0.27463,0.19455 0.65828,0.35576 1.0696,0.23081 0.32496,-0.0988 0.5327,-0.32114 0.68303,-0.54479 0.15033,-0.22365 0.25743,-0.47174 0.34851,-0.73907 0.18215,-0.53464 0.29833,-1.15625 0.38419,-1.76365 0.0346,-0.24441 0.0175,-0.24623 0.0418,-0.47702 0.0601,0.0891 0.0486,0.0921 0.11203,0.18156 0.31502,0.44504 0.66444,0.88714 1.0481,1.22992 0.19182,0.17138 0.39279,0.32073 0.63302,0.42596 0.24022,0.10523 0.54859,0.16567 0.85764,0.0658 0.56407,-0.18227 0.73274,-0.6268 0.89518,-1.04252 0.16244,-0.4157 0.27306,-0.88871 0.35988,-1.34803 0.007,-0.0372 0.003,-0.0354 0.01,-0.0723 0.0425,0.0608 0.0339,0.0621 0.0783,0.12315 0.28566,0.3933 0.60202,0.78514 0.95209,1.09567 0.35007,0.31052 0.77678,0.63566 1.36615,0.48936 0.37734,-0.0937 0.51705,-0.34402 0.62403,-0.54123 0.10696,-0.19721 0.17961,-0.40675 0.24605,-0.63969 0.13286,-0.46587 0.23135,-1.02143 0.30908,-1.56948 0.15546,-1.09607 0.22472,-2.15773 0.22472,-2.15773 l -1.23601,-0.0813 c 0,0 -0.0693,1.02884 -0.21627,2.06524 -0.0735,0.5182 -0.16863,1.04079 -0.27256,1.40523 -0.03,0.10533 -0.0553,0.15308 -0.0834,0.22455 -0.0401,-0.0208 -0.008,-0.004 -0.13901,-0.12092 -0.23174,-0.20557 -0.51625,-0.54461 -0.77253,-0.89746 -0.51257,-0.7057 -0.92532,-1.45633 -0.92532,-1.45633 l -1.00255,-1.8259 -0.15726,2.07682 c 0,0 -0.0653,0.81869 -0.22287,1.65237 -0.0788,0.41684 -0.18246,0.83578 -0.29594,1.1262 -0.064,0.16376 -0.12225,0.23895 -0.13951,0.27102 -0.0632,-0.0331 -0.15601,-0.0931 -0.2675,-0.19271 -0.25899,-0.2314 -0.5753,-0.61794 -0.86081,-1.0213 -0.57103,-0.80668 -1.03036,-1.67018 -1.03036,-1.67018 z m -13.7427,5.26664 c -1.23373,0.17254 -2.10719,1.33064 -1.93465,2.56436 0.17254,1.23373 1.33013,2.10726 2.56386,1.93472 1.23373,-0.17253 2.10931,-1.3304 1.93677,-2.56414 -0.17254,-1.23372 -1.33225,-2.10748 -2.56598,-1.93494 z m 0.2105,1.50515 c 0.42018,-0.0588 0.79002,0.22032 0.84878,0.6405 0.0588,0.42019 -0.22032,0.79002 -0.6405,0.84879 -0.42018,0.0588 -0.79002,-0.22033 -0.84879,-0.64051 -0.0588,-0.42018 0.22033,-0.79002 0.64051,-0.84878 z m 3.45628,29.60533 c -0.002,0.005 0.003,0.002 0.001,0.008 l -0.0337,0.0835 c 0,0 0.0317,-0.0894 0.0326,-0.0912 z"
       id="path1027"
       inkscape:connector-curvature="0" />
  </g>
</svg>
