<?xml version="1.0" encoding="UTF-8" standalone="no"?>
<!-- Created with Inkscape (http://www.inkscape.org/) -->

<svg
   xmlns:dc="http://purl.org/dc/elements/1.1/"
   xmlns:cc="http://creativecommons.org/ns#"
   xmlns:rdf="http://www.w3.org/1999/02/22-rdf-syntax-ns#"
   xmlns:svg="http://www.w3.org/2000/svg"
   xmlns="http://www.w3.org/2000/svg"
   xmlns:sodipodi="http://sodipodi.sourceforge.net/DTD/sodipodi-0.dtd"
   xmlns:inkscape="http://www.inkscape.org/namespaces/inkscape"
   width="86.863541mm"
   height="62.221531mm"
   viewBox="0 0 86.863542 62.221531"
   version="1.1"
   id="svg979"
   inkscape:version="0.92.3 (2405546, 2018-03-11)"
   sodipodi:docname="steak.svg">
  <defs
     id="defs973" />
  <sodipodi:namedview
     id="base"
     pagecolor="#ffffff"
     bordercolor="#666666"
     borderopacity="1.0"
     inkscape:pageopacity="0.0"
     inkscape:pageshadow="2"
     inkscape:zoom="0.35"
     inkscape:cx="-232.15926"
     inkscape:cy="679.57096"
     inkscape:document-units="mm"
     inkscape:current-layer="layer1"
     showgrid="false"
     inkscape:window-width="1920"
     inkscape:window-height="1017"
     inkscape:window-x="-8"
     inkscape:window-y="-8"
     inkscape:window-maximized="1" />
  <metadata
     id="metadata976">
    <rdf:RDF>
      <cc:Work
         rdf:about="">
        <dc:format>image/svg+xml</dc:format>
        <dc:type
           rdf:resource="http://purl.org/dc/dcmitype/StillImage" />
        <dc:title></dc:title>
      </cc:Work>
    </rdf:RDF>
  </metadata>
  <g
     inkscape:label="Layer 1"
     inkscape:groupmode="layer"
     id="layer1"
     transform="translate(-25.139758,-266.41495)">
    <path
       inkscape:connector-curvature="0"
       style="fill:#000000;stroke:none;stroke-width:0.19742337px;stroke-linecap:butt;stroke-linejoin:miter;stroke-opacity:1"
       d="m 42.928082,266.41495 c 0,0 -15.555558,6.38197 -17.549834,22.73505 -1.994278,16.35307 9.174115,33.50389 9.174115,33.50389 0,0 2.779088,3.78208 8.531265,5.33095 1.293871,-1.77449 1.44022,-4.13464 1.44022,-4.13464 0.153307,2.29959 0.580117,3.73892 1.097608,4.6328 0.787535,0.0983 1.617739,0.15348 2.491838,0.15348 9.173675,0 58.631566,-19.94297 58.631566,-19.94297 0,0 5.98291,-6.78023 5.18521,-19.94246 -0.79771,-13.16223 -69.001988,-22.3361 -69.001988,-22.3361 z m 10.214361,4.66225 c 0,0 11.421996,4.79461 8.883698,28.06237 -2.538304,23.26775 -15.088486,27.78021 -15.088486,27.78021 0,0 9.729805,-7.19148 12.550139,-27.07483 2.820332,-19.88335 -6.345351,-28.76775 -6.345351,-28.76775 z m -11.140403,0.5643 c -8.602019,8.60202 -9.025255,13.53769 -10.153385,20.87056 -1.128133,7.33287 6.20463,24.67767 7.05073,27.35699 0.846101,2.67932 3.525883,6.20479 3.525883,6.20479 0,0 -3.243691,-2.39729 -4.371824,-3.66644 -1.128136,-1.26915 -9.16591,-17.48586 -9.306925,-29.89534 C 28.605501,280.10259 42.002038,271.6415 42.00204,271.6415 Z m 3.171899,3.64267 c -7.183244,7.18325 -7.536486,11.30498 -8.478554,17.4284 -0.942062,6.12342 5.181465,20.60719 5.888014,22.8446 0.706548,2.2374 2.944005,5.1816 2.944005,5.1816 0,0 -2.708357,-2.00201 -3.650422,-3.06183 -0.942064,-1.05982 -7.654377,-14.60166 -7.772135,-24.96437 -0.117758,-10.36271 11.069092,-17.4284 11.069092,-17.4284 z m 24.3365,1.16944 c 0,0 1.513181,2.79018 3.858678,2.97295 2.345496,0.18276 3.85868,-1.43609 3.85868,-1.43609 0,0 1.513697,2.7907 3.859194,2.97346 2.345497,0.18277 3.858162,-1.4366 3.858162,-1.4366 0,0 1.513703,2.79069 3.859197,2.97346 2.345497,0.18276 3.858162,-1.4366 3.858162,-1.4366 0,0 1.5137,2.79069 3.859197,2.97346 2.345497,0.18276 3.858681,-1.43712 3.858681,-1.43712 0,0 -0.454266,2.50411 -3.556374,2.26239 -3.102107,-0.24172 -4.161504,-3.79873 -4.161504,-3.79873 0,0 -0.453747,2.50308 -3.555854,2.26136 -3.10211,-0.24173 -4.161505,-3.79822 -4.161505,-3.79822 0,0 -0.453744,2.5036 -3.555854,2.26187 -3.102107,-0.24172 -4.161502,-3.79873 -4.161502,-3.79873 0,0 -0.453747,2.5036 -3.555857,2.26188 -3.102107,-0.24172 -4.161501,-3.79874 -4.161501,-3.79874 z m -21.069517,3.41582 c 0.01976,0.0615 0.03988,0.12106 0.05943,0.18345 -5.279372,5.51588 -5.582296,8.85403 -6.330363,13.71647 -0.779256,5.06515 4.286062,17.04579 4.870503,18.89652 0.195096,0.61781 0.532088,1.30007 0.893488,1.9358 -0.08206,0.32132 -0.164455,0.64142 -0.248566,0.9462 -0.483338,-0.40158 -0.950613,-0.815 -1.229381,-1.12862 -0.779254,-0.87666 -6.331143,-12.0781 -6.42855,-20.6499 -0.08062,-7.09458 6.230962,-12.30923 8.413441,-13.89992 z m 1.290878,5.90506 c 0.05513,0.4038 0.105482,0.82145 0.152445,1.2485 -1.559735,2.62652 -1.816359,4.85017 -2.252059,7.68222 -0.368853,2.39755 0.801216,6.61444 1.99781,10.15701 -0.125312,1.15368 -0.266626,2.24516 -0.420645,3.283 -1.538875,-3.61407 -3.349268,-8.94833 -3.400308,-13.44001 -0.04185,-3.68317 1.945153,-6.77302 3.922757,-8.93072 z m 20.045804,7.00113 c 0,0 1.5137,2.55522 3.859197,2.37246 2.345497,-0.18277 3.858162,-2.0376 3.858162,-2.0376 0,0 1.5137,2.55471 3.859197,2.37195 2.345494,-0.18277 3.858678,-2.03812 3.858678,-2.03812 0,0 1.513183,2.55471 3.85868,2.37194 2.345497,-0.18275 3.858678,-2.03811 3.858678,-2.03811 0,0 1.513184,2.55523 3.858681,2.37246 2.345497,-0.18276 3.858683,-2.03812 3.858683,-2.03812 0,0 -0.45427,2.57465 -3.556378,2.81637 -3.102105,0.24172 -4.160986,-3.15071 -4.160986,-3.15071 0,0 -0.454263,2.57464 -3.55637,2.81636 -3.10211,0.24172 -4.160988,-3.15019 -4.160988,-3.15019 0,0 -0.454264,2.57413 -3.556371,2.81585 -3.10211,0.24172 -4.161504,-3.14968 -4.161504,-3.14968 0,0 -0.453747,2.57413 -3.555855,2.81585 -3.102107,0.24172 -4.161504,-3.15071 -4.161504,-3.15071 z m 30.736626,11.47371 c 0,0 -0.45426,2.69703 -3.556372,3.77135 -3.102107,1.07431 -4.161504,-2.03347 -4.161504,-2.03347 0,0 -0.453747,2.696 -3.555854,3.77031 -3.10211,1.07431 -4.161505,-2.03347 -4.161505,-2.03347 0,0 -0.453744,2.69652 -3.555854,3.77084 -3.102107,1.07431 -4.161504,-2.03347 -4.161504,-2.03347 0,0 -0.454261,2.69652 -3.556371,3.77083 -3.10211,1.07431 -4.160985,-2.03399 -4.160985,-2.03399 0,0 1.513181,2.14864 3.858678,1.33635 2.345497,-0.81228 3.858678,-3.07319 3.858678,-3.07319 0,0 1.513184,2.14863 3.85868,1.33635 2.345497,-0.81228 3.858678,-3.07372 3.858678,-3.07372 0,0 1.513184,2.14864 3.858681,1.33636 2.345494,-0.81228 3.858678,-3.0732 3.858678,-3.0732 0,0 1.513184,2.14812 3.858681,1.33584 2.345497,-0.81229 3.859195,-3.07372 3.859195,-3.07372 z"
       id="path857" />
  </g>
</svg>
